%
M48
M72
T01C0.0197
T02C0.0236
T03C0.0315
T04C0.0320
T05C0.0350
T06C0.0354
T07C0.0400
T08C0.0433
T09C0.0472
T10C0.0520
T11C0.1102
%
T01
X58850Y26975
X58850Y27475
X58850Y27975
X58850Y28475
X58850Y28975
X58850Y29475
X59350Y29475
X59850Y29475
X59850Y28975
X59350Y28975
X59350Y28475
X59850Y28475
X59850Y27975
X59350Y27975
X59350Y27475
X59850Y27475
X59850Y26975
X59350Y26975
X60350Y26975
X60350Y27475
X60350Y27975
X60350Y28475
X60350Y28975
X60350Y29475
X60850Y29475
X60850Y28975
X60850Y28475
X60850Y27975
X60850Y27475
X60850Y26975
X61350Y26975
X61350Y27475
X61350Y27975
X61350Y28475
X61350Y28975
X61350Y29475
X61850Y29475
X61850Y28975
X61850Y28475
X61850Y27975
X61850Y27475
X61850Y26975
T02
X61350Y25725
X60850Y25725
X60350Y25725
X59850Y25725
X59350Y25725
X57350Y24288
X54100Y24350
X54100Y25350
X51600Y24350
X50975Y24350
X50350Y24350
X49725Y24350
X49100Y24350
X49663Y26100
X48100Y26225
X46725Y27788
X46975Y28725
X45350Y30475
X46350Y30600
X46350Y31100
X46350Y31600
X48975Y30600
X53475Y33350
X53975Y33350
X54475Y33350
X59350Y30725
X59850Y30725
X60350Y30725
X60850Y30725
X61350Y30725
X61975Y34850
X61975Y35475
X61975Y36100
X48350Y37100
X48350Y37725
X48350Y38350
X42975Y34725
X42100Y34100
X41100Y34600
X40600Y33475
X39725Y33475
X37475Y34725
X34538Y33663
X34350Y32350
X34850Y31225
X35225Y30350
X38225Y29975
X39600Y30350
X40600Y30350
X42600Y28475
X42475Y27725
X43600Y28100
X41225Y25975
X40725Y25225
X40225Y25600
X39600Y24850
X40475Y24350
X40475Y23475
X41975Y23475
X42475Y23850
X42975Y24225
X43725Y24600
X44225Y24975
X44725Y24725
X45225Y24975
X46100Y24850
X45725Y21350
X45225Y20850
X44725Y20350
X44225Y19850
X43725Y19350
X42975Y18350
X42475Y17850
X41975Y17350
X41475Y16850
X40975Y16350
X38225Y13350
X37475Y12475
X35225Y10600
X37350Y9975
X37725Y9100
X38225Y9475
X39225Y9100
X39100Y8100
X39600Y7225
X41350Y8100
X42225Y8100
X43850Y8725
X44475Y9225
X45725Y8600
X45725Y10350
X45225Y10600
X44725Y10850
X44225Y11100
X43725Y11350
X42975Y11725
X42475Y11975
X41975Y12225
X41475Y12475
X40975Y12725
X36725Y8725
X32475Y10600
X29100Y8975
X26975Y9225
X26100Y9350
X25225Y9350
X24850Y8850
X19350Y13100
X18100Y13600
X18496Y14704
X17725Y14725
X16975Y14725
X16225Y14725
X15850Y14100
X13850Y14725
X12600Y14725
X11225Y14100
X12600Y13600
X13850Y13100
X11225Y12600
X10350Y12600
X9725Y12600
X9100Y12600
X8100Y12600
X9100Y14600
X9725Y14975
X10350Y15350
X8100Y15100
X7100Y15725
X6725Y15100
X6350Y16225
X5350Y15225
X4975Y14600
X4600Y13975
X2600Y11850
X3350Y11350
X2975Y10850
X10600Y9725
X11225Y10100
X12350Y10475
X13100Y10100
X14850Y9350
X15850Y8850
X18643Y15975
X16600Y17225
X17725Y18100
X19350Y20850
X18850Y21225
X18350Y21600
X19350Y21975
X20100Y22475
X19350Y22975
X18350Y23600
X13100Y23350
X11850Y21975
X11350Y22350
X7600Y21100
X6225Y21350
X5725Y19850
X6225Y18475
X8100Y16725
X6100Y22975
X4100Y23475
X3725Y24100
X3350Y23475
X2975Y22850
X2600Y23850
X1350Y27350
X1350Y29100
X2725Y29475
X3225Y31100
X3725Y31600
X6225Y33350
X6975Y34850
X9225Y37600
X5975Y38475
X5100Y38475
X4225Y38475
X1350Y36475
X6850Y28975
X7475Y24975
X12725Y29350
X12725Y31350
X14975Y31350
X14975Y29350
X19975Y32100
X20600Y32100
X23350Y30350
X24475Y27850
X26975Y29350
X27350Y30350
X27100Y31350
X28725Y30475
X29475Y31100
X30975Y28475
X31350Y26475
X33475Y26850
X34225Y26600
X35975Y26975
X36600Y24350
X35975Y23850
X34975Y23850
X32725Y23850
X30350Y23975
X29975Y22350
X27600Y22725
X26350Y21850
X25850Y20850
X29975Y17850
X30725Y15850
X38350Y22725
X37725Y23350
X40600Y21600
X40600Y20725
X46225Y15850
X48600Y14100
X48100Y12350
X47475Y11600
X49600Y11475
X51600Y12225
X53600Y10975
X54631Y10256
X54631Y12350
X54100Y12944
X54600Y13850
X55850Y13756
X55850Y14475
X55850Y15506
X54600Y15725
X52600Y14163
X59350Y15788
X62100Y15788
X62100Y17413
X61350Y11663
X59288Y11663
X49600Y7850
X48350Y9100
X41600Y4725
X39600Y4350
X37475Y4850
X37100Y1975
X33225Y3850
X41725Y1975
X40100Y27350
X30975Y34225
X30975Y34850
X28850Y35350
X26225Y37600
X25350Y37600
X24850Y35850
X24475Y34850
X24475Y33850
X22850Y36350
X21700Y38075
X20725Y38100
X19975Y35350
X19975Y34350
X15975Y37600
X34225Y37350
X39725Y38100
X41350Y38100
X3850Y4850
X2850Y4850
T03
X34172Y38209
X34172Y38367
X34172Y38524
X34172Y38682
X34172Y38839
X38778Y38839
X38778Y38682
X38778Y38524
X38778Y38367
X38778Y38209
X42422Y38209
X42422Y38367
X42422Y38524
X42422Y38682
X42422Y38839
X47028Y38839
X47028Y38682
X47028Y38524
X47028Y38367
X47028Y38209
X59725Y22406
X59725Y21619
X59725Y20831
X59725Y20044
X59725Y7281
X59725Y6494
X59725Y5706
X59725Y4919
T04
X55350Y4350
X55350Y2350
X52350Y2350
X50600Y2350
X50600Y4350
X52350Y4350
X52350Y5350
X52350Y6350
X52350Y7350
X52350Y8350
X50600Y8350
X50600Y7350
X50600Y6350
X47600Y6350
X47600Y5350
X47600Y4350
X47600Y2350
X47600Y7350
X47600Y8350
X55350Y8350
X55350Y7350
X55350Y6350
X53600Y15350
X53600Y16350
X54600Y16350
X54600Y17350
X53600Y17350
X53600Y18350
X54600Y18350
X54600Y19350
X53600Y19350
X53600Y20350
X54600Y20350
X54600Y21350
X53600Y21350
X52600Y21350
X51600Y21350
X50600Y21350
X49600Y21350
X48600Y21350
X48600Y20350
X48600Y19350
X48600Y18350
X48600Y17350
X47600Y17350
X47600Y18350
X47600Y19350
X47600Y20350
X47600Y21350
X48600Y22350
X49600Y22350
X50600Y22350
X51600Y22350
X52600Y22350
X53600Y22350
X52600Y16350
X51600Y16350
X51600Y15350
X52600Y15350
X50600Y15350
X50600Y16350
X49600Y16350
X48600Y16350
X48600Y15350
X49600Y15350
X47600Y16350
X39350Y16350
X39350Y15350
X39350Y14350
X39350Y13350
X36350Y13350
X36350Y14350
X36350Y15350
X36350Y16350
X36350Y17350
X36350Y18350
X36350Y19350
X36350Y20350
X36350Y21350
X36350Y22350
X34475Y22350
X34475Y21350
X34475Y20350
X34475Y19350
X34475Y18350
X34475Y17350
X34475Y16350
X34475Y15350
X34475Y14350
X34475Y13350
X31475Y13350
X31475Y14350
X31475Y15350
X31475Y16350
X31475Y17350
X31475Y18350
X31475Y19350
X31475Y20350
X31475Y21350
X31475Y22350
X28100Y24850
X28100Y25850
X28100Y26850
X28100Y27850
X28100Y28850
X28100Y29850
X28100Y30850
X28100Y31850
X28100Y32850
X28100Y33850
X28100Y34850
X28100Y35850
X22100Y35850
X22100Y34850
X22100Y33850
X22100Y32850
X22100Y31850
X22100Y30850
X22100Y29850
X22100Y28850
X22100Y27850
X22100Y26850
X22100Y25850
X22100Y24850
X18850Y26350
X17850Y26350
X17850Y25350
X16850Y25350
X16850Y26350
X15850Y26350
X14850Y26350
X14850Y25350
X15850Y25350
X13850Y25350
X12850Y25350
X12850Y26350
X13850Y26350
X11850Y26350
X10850Y26350
X10850Y25350
X11850Y25350
X9850Y25350
X9850Y26350
X9850Y27350
X8850Y27350
X8850Y26350
X8850Y28350
X8850Y29350
X8850Y30350
X8850Y31350
X8850Y32350
X9850Y32350
X9850Y31350
X9850Y30350
X9850Y29350
X9850Y28350
X9850Y33350
X9850Y34350
X9850Y35350
X10850Y35350
X11850Y35350
X11850Y34350
X10850Y34350
X12850Y34350
X13850Y34350
X13850Y35350
X12850Y35350
X14850Y35350
X15850Y35350
X15850Y34350
X14850Y34350
X16850Y34350
X16850Y35350
X17850Y35350
X17850Y34350
X18850Y34350
X18850Y33350
X17850Y33350
X17850Y32350
X18850Y32350
X18850Y31350
X17850Y31350
X17850Y30350
X18850Y30350
X18850Y29350
X17850Y29350
X17850Y28350
X18850Y28350
X18850Y27350
X17850Y27350
X8850Y33350
X8850Y34350
X11650Y37600
X13550Y37600
X22850Y19600
X22850Y18600
X21850Y18600
X21850Y17600
X22850Y17600
X22850Y16600
X21850Y16600
X21850Y15600
X22850Y15600
X22850Y14600
X23850Y14600
X23850Y15600
X24850Y15600
X25850Y15600
X25850Y14600
X24850Y14600
X26850Y14600
X26850Y15600
X27850Y15600
X27850Y16600
X26850Y16600
X26850Y17600
X27850Y17600
X27850Y18600
X26850Y18600
X26850Y19600
X25850Y19600
X24850Y19600
X24850Y18600
X25850Y18600
X23850Y18600
X23850Y19600
X22850Y8350
X22850Y7350
X21350Y7350
X21350Y8350
X21350Y6350
X22850Y6350
X22850Y5350
X22850Y4350
X21350Y4350
X21350Y2350
X22850Y2350
X25850Y2350
X27850Y2350
X27850Y4350
X27850Y5350
X27850Y6350
X27850Y7350
X27850Y8350
X25850Y8350
X25850Y7350
X25850Y6350
X25850Y4350
X30850Y4350
X32350Y4350
X32350Y5350
X32350Y6350
X30850Y6350
X30850Y7350
X30850Y8350
X32350Y8350
X32350Y7350
X35350Y7350
X35350Y8350
X35350Y6350
X35350Y4350
X35350Y2350
X32350Y2350
X30850Y2350
X18350Y2350
X16850Y2350
X16850Y4350
X18350Y4350
X18350Y5350
X18350Y6350
X16850Y6350
X16850Y7350
X16850Y8350
X18350Y8350
X18350Y7350
X13850Y7350
X13850Y8350
X12350Y8350
X12350Y7350
X12350Y6350
X13850Y6350
X13850Y5350
X13850Y4350
X12350Y4350
X12350Y2350
X13850Y2350
X9350Y2350
X7850Y2350
X7850Y4350
X9350Y4350
X9350Y5350
X9350Y6350
X7850Y6350
X7850Y7350
X7850Y8350
X9350Y8350
X9350Y7350
X4850Y7350
X4850Y8350
X4850Y6350
X4850Y5350
X4850Y4350
X4850Y2350
X39350Y17350
X39350Y18350
X39350Y19350
X39350Y20350
X39350Y21350
X39350Y22350
X56525Y36350
X58475Y37550
X58475Y35100
T05
X5350Y35350
X5350Y34350
X5350Y33350
X4350Y33350
X4350Y34350
X4350Y35350
X4350Y36350
X5350Y36350
T06
X46475Y35475
X46475Y34600
X53600Y32475
X54350Y32475
X54350Y31725
X53600Y31725
X49881Y27350
X56956Y21993
X57744Y21993
X57744Y21205
X56956Y21205
X56956Y20418
X56956Y19631
X57744Y19631
X57744Y20418
X57744Y18843
X56956Y18843
X56956Y18056
X57744Y18056
X57744Y17268
X57744Y16481
X56956Y16481
X56956Y17268
X56956Y15694
X57744Y15694
X57744Y14906
X56956Y14906
X56956Y14119
X56956Y13331
X57744Y13331
X57744Y14119
X57744Y12544
X56956Y12544
X56956Y11756
X56956Y10969
X57744Y10969
X57744Y11756
X57744Y10182
X56956Y10182
X56956Y9394
X57744Y9394
X57744Y8607
X57744Y7819
X56956Y7819
X56956Y8607
X56956Y7032
X57744Y7032
X57744Y6245
X56956Y6245
X56956Y5457
X57744Y5457
X49600Y13475
T07
X59475Y9100
X60475Y9100
X61475Y9100
X62475Y9100
X62475Y24225
X61475Y24225
X60475Y24225
X59475Y24225
T08
X45611Y38497
X43839Y38497
X37361Y38497
X35589Y38497
T09
X42491Y6850
X43475Y6850
X44459Y6850
T10
X62225Y11100
T11
X2350Y2350
X2350Y37850
X61350Y37850
X61350Y2350
M30
