G75*
%MOIN*%
%OFA0B0*%
%FSLAX24Y24*%
%IPPOS*%
%LPD*%
%AMOC8*
5,1,8,0,0,1.08239X$1,22.5*
%
%ADD10C,0.1182*%
%ADD11OC8,0.0600*%
%ADD12C,0.0600*%
%ADD13R,0.0600X0.0600*%
%ADD14C,0.0600*%
%ADD15C,0.0880*%
%ADD16R,0.0595X0.0595*%
%ADD17C,0.0595*%
%ADD18C,0.0789*%
%ADD19C,0.0710*%
%ADD20OC8,0.0710*%
%ADD21C,0.0780*%
%ADD22C,0.0513*%
%ADD23C,0.0395*%
%ADD24R,0.0820X0.0820*%
%ADD25C,0.0820*%
%ADD26C,0.0634*%
%ADD27OC8,0.0930*%
%ADD28R,0.0730X0.0730*%
%ADD29C,0.0730*%
%ADD30C,0.0476*%
%ADD31C,0.0437*%
%ADD32C,0.0611*%
D10*
X002350Y002350D03*
X002350Y037850D03*
X061350Y037850D03*
X061350Y002350D03*
D11*
X027850Y015600D03*
X026850Y015600D03*
X026850Y014600D03*
X025850Y014600D03*
X024850Y014600D03*
X024850Y015600D03*
X025850Y015600D03*
X023850Y015600D03*
X023850Y014600D03*
X022850Y014600D03*
X022850Y015600D03*
X021850Y015600D03*
X021850Y016600D03*
X022850Y016600D03*
X022850Y017600D03*
X021850Y017600D03*
X021850Y018600D03*
X022850Y018600D03*
X022850Y019600D03*
X023850Y019600D03*
X023850Y018600D03*
X024850Y018600D03*
X025850Y018600D03*
X025850Y019600D03*
X024850Y019600D03*
X026850Y019600D03*
X026850Y018600D03*
X027850Y018600D03*
X027850Y017600D03*
X026850Y017600D03*
X027850Y016600D03*
X017850Y025350D03*
X017850Y026350D03*
X018850Y026350D03*
X018850Y027350D03*
X017850Y027350D03*
X016850Y026350D03*
X016850Y025350D03*
X015850Y025350D03*
X014850Y025350D03*
X014850Y026350D03*
X015850Y026350D03*
X013850Y026350D03*
X012850Y026350D03*
X012850Y025350D03*
X013850Y025350D03*
X011850Y025350D03*
X010850Y025350D03*
X010850Y026350D03*
X011850Y026350D03*
X009850Y026350D03*
X009850Y025350D03*
X008850Y026350D03*
X008850Y027350D03*
X009850Y027350D03*
X009850Y028350D03*
X009850Y029350D03*
X009850Y030350D03*
X009850Y031350D03*
X009850Y032350D03*
X008850Y032350D03*
X008850Y031350D03*
X008850Y030350D03*
X008850Y029350D03*
X008850Y028350D03*
X008850Y033350D03*
X008850Y034350D03*
X009850Y034350D03*
X009850Y033350D03*
X010850Y034350D03*
X011850Y034350D03*
X011850Y035350D03*
X010850Y035350D03*
X009850Y035350D03*
X012850Y035350D03*
X013850Y035350D03*
X013850Y034350D03*
X012850Y034350D03*
X014850Y034350D03*
X015850Y034350D03*
X015850Y035350D03*
X014850Y035350D03*
X016850Y035350D03*
X016850Y034350D03*
X017850Y034350D03*
X018850Y034350D03*
X018850Y033350D03*
X017850Y033350D03*
X017850Y032350D03*
X018850Y032350D03*
X018850Y031350D03*
X017850Y031350D03*
X017850Y030350D03*
X018850Y030350D03*
X018850Y029350D03*
X017850Y029350D03*
X017850Y028350D03*
X018850Y028350D03*
X017850Y035350D03*
D12*
X031215Y022350D02*
X031735Y022350D01*
X031735Y021350D02*
X031215Y021350D01*
X031215Y020350D02*
X031735Y020350D01*
X031735Y019350D02*
X031215Y019350D01*
X031215Y018350D02*
X031735Y018350D01*
X031735Y017350D02*
X031215Y017350D01*
X031215Y016350D02*
X031735Y016350D01*
X031735Y015350D02*
X031215Y015350D01*
X031215Y014350D02*
X031735Y014350D01*
X031735Y013350D02*
X031215Y013350D01*
X034215Y013350D02*
X034735Y013350D01*
X034735Y014350D02*
X034215Y014350D01*
X034215Y015350D02*
X034735Y015350D01*
X034735Y016350D02*
X034215Y016350D01*
X034215Y017350D02*
X034735Y017350D01*
X034735Y018350D02*
X034215Y018350D01*
X034215Y019350D02*
X034735Y019350D01*
X034735Y020350D02*
X034215Y020350D01*
X034215Y021350D02*
X034735Y021350D01*
X036090Y021350D02*
X036610Y021350D01*
X036610Y020350D02*
X036090Y020350D01*
X036090Y019350D02*
X036610Y019350D01*
X036610Y018350D02*
X036090Y018350D01*
X036090Y017350D02*
X036610Y017350D01*
X036610Y016350D02*
X036090Y016350D01*
X036090Y015350D02*
X036610Y015350D01*
X036610Y014350D02*
X036090Y014350D01*
X036090Y013350D02*
X036610Y013350D01*
X039090Y013350D02*
X039610Y013350D01*
X039610Y014350D02*
X039090Y014350D01*
X039090Y015350D02*
X039610Y015350D01*
X039610Y016350D02*
X039090Y016350D01*
X039090Y017350D02*
X039610Y017350D01*
X039610Y018350D02*
X039090Y018350D01*
X039090Y019350D02*
X039610Y019350D01*
X039610Y020350D02*
X039090Y020350D01*
X039090Y021350D02*
X039610Y021350D01*
X039610Y022350D02*
X039090Y022350D01*
X036610Y022350D02*
X036090Y022350D01*
X034735Y022350D02*
X034215Y022350D01*
X035090Y008350D02*
X035610Y008350D01*
X035610Y007350D02*
X035090Y007350D01*
X035090Y006350D02*
X035610Y006350D01*
X035610Y004350D02*
X035090Y004350D01*
X035090Y002350D02*
X035610Y002350D01*
X032610Y002350D02*
X032090Y002350D01*
X031110Y002350D02*
X030590Y002350D01*
X030590Y004350D02*
X031110Y004350D01*
X032090Y004350D02*
X032610Y004350D01*
X032610Y005350D02*
X032090Y005350D01*
X032090Y006350D02*
X032610Y006350D01*
X032610Y007350D02*
X032090Y007350D01*
X031110Y007350D02*
X030590Y007350D01*
X030590Y008350D02*
X031110Y008350D01*
X032090Y008350D02*
X032610Y008350D01*
X031110Y006350D02*
X030590Y006350D01*
X028110Y006350D02*
X027590Y006350D01*
X027590Y005350D02*
X028110Y005350D01*
X028110Y004350D02*
X027590Y004350D01*
X026110Y004350D02*
X025590Y004350D01*
X025590Y002350D02*
X026110Y002350D01*
X027590Y002350D02*
X028110Y002350D01*
X026110Y006350D02*
X025590Y006350D01*
X025590Y007350D02*
X026110Y007350D01*
X026110Y008350D02*
X025590Y008350D01*
X027590Y008350D02*
X028110Y008350D01*
X028110Y007350D02*
X027590Y007350D01*
X023110Y007350D02*
X022590Y007350D01*
X021610Y007350D02*
X021090Y007350D01*
X021090Y008350D02*
X021610Y008350D01*
X022590Y008350D02*
X023110Y008350D01*
X023110Y006350D02*
X022590Y006350D01*
X021610Y006350D02*
X021090Y006350D01*
X022590Y005350D02*
X023110Y005350D01*
X023110Y004350D02*
X022590Y004350D01*
X021610Y004350D02*
X021090Y004350D01*
X021090Y002350D02*
X021610Y002350D01*
X022590Y002350D02*
X023110Y002350D01*
X018610Y002350D02*
X018090Y002350D01*
X017110Y002350D02*
X016590Y002350D01*
X016590Y004350D02*
X017110Y004350D01*
X018090Y004350D02*
X018610Y004350D01*
X018610Y005350D02*
X018090Y005350D01*
X018090Y006350D02*
X018610Y006350D01*
X018610Y007350D02*
X018090Y007350D01*
X017110Y007350D02*
X016590Y007350D01*
X016590Y008350D02*
X017110Y008350D01*
X018090Y008350D02*
X018610Y008350D01*
X017110Y006350D02*
X016590Y006350D01*
X014110Y006350D02*
X013590Y006350D01*
X012610Y006350D02*
X012090Y006350D01*
X012090Y007350D02*
X012610Y007350D01*
X013590Y007350D02*
X014110Y007350D01*
X014110Y008350D02*
X013590Y008350D01*
X012610Y008350D02*
X012090Y008350D01*
X009610Y008350D02*
X009090Y008350D01*
X008110Y008350D02*
X007590Y008350D01*
X007590Y007350D02*
X008110Y007350D01*
X009090Y007350D02*
X009610Y007350D01*
X009610Y006350D02*
X009090Y006350D01*
X008110Y006350D02*
X007590Y006350D01*
X009090Y005350D02*
X009610Y005350D01*
X009610Y004350D02*
X009090Y004350D01*
X008110Y004350D02*
X007590Y004350D01*
X005110Y004350D02*
X004590Y004350D01*
X004590Y005350D02*
X005110Y005350D01*
X005110Y006350D02*
X004590Y006350D01*
X004590Y007350D02*
X005110Y007350D01*
X005110Y008350D02*
X004590Y008350D01*
X012090Y004350D02*
X012610Y004350D01*
X013590Y004350D02*
X014110Y004350D01*
X014110Y005350D02*
X013590Y005350D01*
X013590Y002350D02*
X014110Y002350D01*
X012610Y002350D02*
X012090Y002350D01*
X009610Y002350D02*
X009090Y002350D01*
X008110Y002350D02*
X007590Y002350D01*
X005110Y002350D02*
X004590Y002350D01*
X047340Y002350D02*
X047860Y002350D01*
X047860Y004350D02*
X047340Y004350D01*
X047340Y005350D02*
X047860Y005350D01*
X047860Y006350D02*
X047340Y006350D01*
X047340Y007350D02*
X047860Y007350D01*
X047860Y008350D02*
X047340Y008350D01*
X050340Y008350D02*
X050860Y008350D01*
X050860Y007350D02*
X050340Y007350D01*
X052090Y007350D02*
X052610Y007350D01*
X052610Y008350D02*
X052090Y008350D01*
X052090Y006350D02*
X052610Y006350D01*
X052610Y005350D02*
X052090Y005350D01*
X052090Y004350D02*
X052610Y004350D01*
X050860Y004350D02*
X050340Y004350D01*
X050340Y002350D02*
X050860Y002350D01*
X052090Y002350D02*
X052610Y002350D01*
X055090Y002350D02*
X055610Y002350D01*
X055610Y004350D02*
X055090Y004350D01*
X055090Y006350D02*
X055610Y006350D01*
X055610Y007350D02*
X055090Y007350D01*
X055090Y008350D02*
X055610Y008350D01*
X050860Y006350D02*
X050340Y006350D01*
D13*
X028100Y024850D03*
D14*
X028100Y025850D03*
X028100Y026850D03*
X028100Y027850D03*
X028100Y028850D03*
X028100Y029850D03*
X028100Y030850D03*
X028100Y031850D03*
X028100Y032850D03*
X028100Y033850D03*
X028100Y034850D03*
X028100Y035850D03*
X022100Y035850D03*
X022100Y034850D03*
X022100Y033850D03*
X022100Y032850D03*
X022100Y031850D03*
X022100Y030850D03*
X022100Y029850D03*
X022100Y028850D03*
X022100Y027850D03*
X022100Y026850D03*
X022100Y025850D03*
X022100Y024850D03*
X026850Y016600D03*
X013550Y037600D03*
X011650Y037600D03*
D15*
X056525Y036750D02*
X056525Y035950D01*
X058075Y035100D02*
X058875Y035100D01*
X058875Y037550D02*
X058075Y037550D01*
D16*
X059725Y022406D03*
X059725Y007281D03*
D17*
X059725Y006494D03*
X059725Y005706D03*
X059725Y004919D03*
X059725Y020044D03*
X059725Y020831D03*
X059725Y021619D03*
D18*
X044459Y006850D03*
X043475Y006850D03*
X042491Y006850D03*
D19*
X050600Y016350D03*
D20*
X050600Y015350D03*
X049600Y015350D03*
X048600Y015350D03*
X048600Y016350D03*
X049600Y016350D03*
X048600Y017350D03*
X048600Y018350D03*
X048600Y019350D03*
X048600Y020350D03*
X048600Y021350D03*
X049600Y021350D03*
X050600Y021350D03*
X051600Y021350D03*
X052600Y021350D03*
X053600Y021350D03*
X054600Y021350D03*
X054600Y020350D03*
X053600Y020350D03*
X053600Y019350D03*
X054600Y019350D03*
X054600Y018350D03*
X053600Y018350D03*
X053600Y017350D03*
X054600Y017350D03*
X054600Y016350D03*
X053600Y016350D03*
X053600Y015350D03*
X052600Y015350D03*
X051600Y015350D03*
X051600Y016350D03*
X052600Y016350D03*
X047600Y016350D03*
X047600Y017350D03*
X047600Y018350D03*
X047600Y019350D03*
X047600Y020350D03*
X047600Y021350D03*
X048600Y022350D03*
X049600Y022350D03*
X050600Y022350D03*
X051600Y022350D03*
X052600Y022350D03*
X053600Y022350D03*
D21*
X047028Y038174D02*
X047028Y038874D01*
X042422Y038874D02*
X042422Y038174D01*
X038778Y038174D02*
X038778Y038874D01*
X034172Y038874D02*
X034172Y038174D01*
D22*
X035589Y038497D03*
X037361Y038497D03*
X043839Y038497D03*
X045611Y038497D03*
D23*
X047028Y038367D03*
X047028Y038209D03*
X047028Y038682D03*
X047028Y038839D03*
X042422Y038839D03*
X042422Y038682D03*
X042422Y038367D03*
X042422Y038209D03*
X038778Y038209D03*
X038778Y038367D03*
X038778Y038682D03*
X038778Y038839D03*
X034172Y038839D03*
X034172Y038682D03*
X034172Y038367D03*
X034172Y038209D03*
D24*
X062475Y024225D03*
X062475Y009100D03*
D25*
X061475Y009100D03*
X060475Y009100D03*
X059475Y009100D03*
X059475Y024225D03*
X060475Y024225D03*
X061475Y024225D03*
D26*
X057744Y021993D03*
X056956Y021993D03*
X056956Y021205D03*
X057744Y021205D03*
X057744Y020418D03*
X057744Y019631D03*
X056956Y019631D03*
X056956Y020418D03*
X056956Y018843D03*
X057744Y018843D03*
X057744Y018056D03*
X056956Y018056D03*
X056956Y017268D03*
X056956Y016481D03*
X057744Y016481D03*
X057744Y017268D03*
X057744Y015694D03*
X056956Y015694D03*
X056956Y014906D03*
X057744Y014906D03*
X057744Y014119D03*
X057744Y013331D03*
X056956Y013331D03*
X056956Y014119D03*
X056956Y012544D03*
X057744Y012544D03*
X057744Y011756D03*
X057744Y010969D03*
X056956Y010969D03*
X056956Y011756D03*
X056956Y010182D03*
X057744Y010182D03*
X057744Y009394D03*
X056956Y009394D03*
X056956Y008607D03*
X056956Y007819D03*
X057744Y007819D03*
X057744Y008607D03*
X057744Y007032D03*
X056956Y007032D03*
X056956Y006245D03*
X057744Y006245D03*
X057744Y005457D03*
X056956Y005457D03*
D27*
X062225Y011100D03*
D28*
X004350Y036350D03*
D29*
X004350Y035350D03*
X004350Y034350D03*
X004350Y033350D03*
X005350Y033350D03*
X005350Y034350D03*
X005350Y035350D03*
X005350Y036350D03*
D30*
X006975Y034850D03*
X006225Y033350D03*
X003725Y031600D03*
X003225Y031100D03*
X002725Y029475D03*
X001350Y029100D03*
X001350Y027350D03*
X002600Y023850D03*
X003350Y023475D03*
X002975Y022850D03*
X004100Y023475D03*
X003725Y024100D03*
X006100Y022975D03*
X006225Y021350D03*
X007600Y021100D03*
X005725Y019850D03*
X006225Y018475D03*
X008100Y016725D03*
X007100Y015725D03*
X006725Y015100D03*
X006350Y016225D03*
X005350Y015225D03*
X004975Y014600D03*
X004600Y013975D03*
X002600Y011850D03*
X003350Y011350D03*
X002975Y010850D03*
X008100Y012600D03*
X009100Y012600D03*
X009725Y012600D03*
X010350Y012600D03*
X011225Y012600D03*
X012600Y013600D03*
X013850Y013100D03*
X015850Y014100D03*
X016225Y014725D03*
X016975Y014725D03*
X017725Y014725D03*
X018496Y014704D03*
X018100Y013600D03*
X019350Y013100D03*
X018643Y015975D03*
X016600Y017225D03*
X017725Y018100D03*
X019350Y020850D03*
X018850Y021225D03*
X018350Y021600D03*
X019350Y021975D03*
X020100Y022475D03*
X019350Y022975D03*
X018350Y023600D03*
X013100Y023350D03*
X011850Y021975D03*
X011350Y022350D03*
X007475Y024975D03*
X006850Y028975D03*
X012725Y029350D03*
X012725Y031350D03*
X014975Y031350D03*
X014975Y029350D03*
X019975Y032100D03*
X020600Y032100D03*
X023350Y030350D03*
X024475Y027850D03*
X026975Y029350D03*
X027350Y030350D03*
X027100Y031350D03*
X028725Y030475D03*
X029475Y031100D03*
X030975Y028475D03*
X031350Y026475D03*
X033475Y026850D03*
X034225Y026600D03*
X035975Y026975D03*
X036600Y024350D03*
X035975Y023850D03*
X034975Y023850D03*
X032725Y023850D03*
X030350Y023975D03*
X029975Y022350D03*
X027600Y022725D03*
X026350Y021850D03*
X025850Y020850D03*
X029975Y017850D03*
X030725Y015850D03*
X037475Y012475D03*
X038225Y013350D03*
X040975Y012725D03*
X041475Y012475D03*
X041975Y012225D03*
X042475Y011975D03*
X042975Y011725D03*
X043725Y011350D03*
X044225Y011100D03*
X044725Y010850D03*
X045225Y010600D03*
X045725Y010350D03*
X044475Y009225D03*
X043850Y008725D03*
X042225Y008100D03*
X041350Y008100D03*
X039600Y007225D03*
X039100Y008100D03*
X039225Y009100D03*
X038225Y009475D03*
X037725Y009100D03*
X037350Y009975D03*
X036725Y008725D03*
X035225Y010600D03*
X032475Y010600D03*
X029100Y008975D03*
X026975Y009225D03*
X026100Y009350D03*
X025225Y009350D03*
X024850Y008850D03*
X033225Y003850D03*
X037100Y001975D03*
X039600Y004350D03*
X041600Y004725D03*
X041725Y001975D03*
X037475Y004850D03*
X045725Y008600D03*
X048350Y009100D03*
X049600Y007850D03*
X053600Y010975D03*
X054631Y010256D03*
X051600Y012225D03*
X054100Y012944D03*
X054631Y012350D03*
X054600Y013850D03*
X055850Y013756D03*
X055850Y014475D03*
X055850Y015506D03*
X054600Y015725D03*
X052600Y014163D03*
X048600Y014100D03*
X048100Y012350D03*
X047475Y011600D03*
X049600Y011475D03*
X046225Y015850D03*
X042975Y018350D03*
X042475Y017850D03*
X041975Y017350D03*
X041475Y016850D03*
X040975Y016350D03*
X043725Y019350D03*
X044225Y019850D03*
X044725Y020350D03*
X045225Y020850D03*
X045725Y021350D03*
X042475Y023850D03*
X041975Y023475D03*
X042975Y024225D03*
X043725Y024600D03*
X044225Y024975D03*
X044725Y024725D03*
X045225Y024975D03*
X046100Y024850D03*
X048100Y026225D03*
X049663Y026100D03*
X049725Y024350D03*
X049100Y024350D03*
X050350Y024350D03*
X050975Y024350D03*
X051600Y024350D03*
X054100Y024350D03*
X054100Y025350D03*
X057350Y024288D03*
X059350Y025725D03*
X059850Y025725D03*
X060350Y025725D03*
X060850Y025725D03*
X061350Y025725D03*
X061350Y030725D03*
X060850Y030725D03*
X060350Y030725D03*
X059850Y030725D03*
X059350Y030725D03*
X054475Y033350D03*
X053975Y033350D03*
X053475Y033350D03*
X048975Y030600D03*
X046350Y030600D03*
X046350Y031100D03*
X046350Y031600D03*
X045350Y030475D03*
X046975Y028725D03*
X046725Y027788D03*
X043600Y028100D03*
X042600Y028475D03*
X042475Y027725D03*
X041225Y025975D03*
X040725Y025225D03*
X040225Y025600D03*
X039600Y024850D03*
X040475Y024350D03*
X040475Y023475D03*
X038350Y022725D03*
X037725Y023350D03*
X040600Y021600D03*
X040600Y020725D03*
X040100Y027350D03*
X038225Y029975D03*
X039600Y030350D03*
X040600Y030350D03*
X040600Y033475D03*
X039725Y033475D03*
X041100Y034600D03*
X042100Y034100D03*
X042975Y034725D03*
X041350Y038100D03*
X039725Y038100D03*
X037475Y034725D03*
X034538Y033663D03*
X034350Y032350D03*
X034850Y031225D03*
X035225Y030350D03*
X030975Y034225D03*
X030975Y034850D03*
X028850Y035350D03*
X026225Y037600D03*
X025350Y037600D03*
X024850Y035850D03*
X024475Y034850D03*
X024475Y033850D03*
X022850Y036350D03*
X021700Y038075D03*
X020725Y038100D03*
X019975Y035350D03*
X019975Y034350D03*
X015975Y037600D03*
X009225Y037600D03*
X005975Y038475D03*
X005100Y038475D03*
X004225Y038475D03*
X001350Y036475D03*
X008100Y015100D03*
X009100Y014600D03*
X009725Y014975D03*
X010350Y015350D03*
X011225Y014100D03*
X012600Y014725D03*
X013850Y014725D03*
X012350Y010475D03*
X013100Y010100D03*
X011225Y010100D03*
X010600Y009725D03*
X014850Y009350D03*
X015850Y008850D03*
X003850Y004850D03*
X002850Y004850D03*
X034225Y037350D03*
X048350Y037100D03*
X048350Y037725D03*
X048350Y038350D03*
X061975Y036100D03*
X061975Y035475D03*
X061975Y034850D03*
X062100Y017413D03*
X062100Y015788D03*
X059350Y015788D03*
X059288Y011663D03*
X061350Y011663D03*
D31*
X061350Y026975D03*
X061350Y027475D03*
X061350Y027975D03*
X061350Y028475D03*
X061350Y028975D03*
X061350Y029475D03*
X060850Y029475D03*
X060850Y028975D03*
X060850Y028475D03*
X060850Y027975D03*
X060850Y027475D03*
X060850Y026975D03*
X060350Y026975D03*
X060350Y027475D03*
X060350Y027975D03*
X060350Y028475D03*
X060350Y028975D03*
X060350Y029475D03*
X059850Y029475D03*
X059350Y029475D03*
X059350Y028975D03*
X059850Y028975D03*
X059850Y028475D03*
X059350Y028475D03*
X059350Y027975D03*
X059850Y027975D03*
X059850Y027475D03*
X059350Y027475D03*
X059350Y026975D03*
X059850Y026975D03*
X058850Y026975D03*
X058850Y027475D03*
X058850Y027975D03*
X058850Y028475D03*
X058850Y028975D03*
X058850Y029475D03*
X061850Y029475D03*
X061850Y028975D03*
X061850Y028475D03*
X061850Y027975D03*
X061850Y027475D03*
X061850Y026975D03*
D32*
X054350Y031725D03*
X053600Y031725D03*
X053600Y032475D03*
X054350Y032475D03*
X049881Y027350D03*
X046475Y034600D03*
X046475Y035475D03*
X049600Y013475D03*
M02*
