G75*
%MOIN*%
%OFA0B0*%
%FSLAX24Y24*%
%IPPOS*%
%LPD*%
%AMOC8*
5,1,8,0,0,1.08239X$1,22.5*
%
%ADD10C,0.0217*%
%ADD11R,0.0780X0.0220*%
%ADD12R,0.0220X0.0520*%
%ADD13R,0.0390X0.0120*%
%ADD14R,0.0137X0.0550*%
%ADD15C,0.0088*%
%ADD16R,0.0709X0.0433*%
%ADD17R,0.0800X0.0260*%
%ADD18R,0.1500X0.0750*%
%ADD19R,0.0750X0.1500*%
%ADD20R,0.1000X0.1200*%
%ADD21R,0.1200X0.1000*%
%ADD22R,0.0669X0.1654*%
%ADD23R,0.1000X0.0600*%
%ADD24C,0.0079*%
%ADD25R,0.0220X0.0780*%
%ADD26R,0.0315X0.0984*%
%ADD27R,0.0866X0.0236*%
%ADD28R,0.4098X0.4252*%
%ADD29R,0.0850X0.0420*%
%ADD30R,0.0315X0.0551*%
%ADD31C,0.0600*%
%ADD32C,0.0100*%
%ADD33R,0.2165X0.1575*%
%ADD34R,0.0140X0.0460*%
%ADD35R,0.0236X0.0394*%
D10*
X002918Y017407D02*
X002918Y017407D01*
X002918Y017821D01*
X002918Y017821D01*
X002918Y017407D01*
X002918Y017623D02*
X002918Y017623D01*
X003233Y017407D02*
X003233Y017407D01*
X003233Y017821D01*
X003233Y017821D01*
X003233Y017407D01*
X003233Y017623D02*
X003233Y017623D01*
X003548Y017407D02*
X003548Y017407D01*
X003548Y017821D01*
X003548Y017821D01*
X003548Y017407D01*
X003548Y017623D02*
X003548Y017623D01*
X003863Y017407D02*
X003863Y017407D01*
X003863Y017821D01*
X003863Y017821D01*
X003863Y017407D01*
X003863Y017623D02*
X003863Y017623D01*
X004178Y017407D02*
X004178Y017407D01*
X004178Y017821D01*
X004178Y017821D01*
X004178Y017407D01*
X004178Y017623D02*
X004178Y017623D01*
X004493Y017407D02*
X004493Y017407D01*
X004493Y017821D01*
X004493Y017821D01*
X004493Y017407D01*
X004493Y017623D02*
X004493Y017623D01*
X004808Y017407D02*
X004808Y017407D01*
X004808Y017821D01*
X004808Y017821D01*
X004808Y017407D01*
X004808Y017623D02*
X004808Y017623D01*
X005123Y017407D02*
X005123Y017407D01*
X005123Y017821D01*
X005123Y017821D01*
X005123Y017407D01*
X005123Y017623D02*
X005123Y017623D01*
X005438Y017407D02*
X005438Y017407D01*
X005438Y017821D01*
X005438Y017821D01*
X005438Y017407D01*
X005438Y017623D02*
X005438Y017623D01*
X005753Y017407D02*
X005753Y017407D01*
X005753Y017821D01*
X005753Y017821D01*
X005753Y017407D01*
X005753Y017623D02*
X005753Y017623D01*
X006068Y017407D02*
X006068Y017407D01*
X006068Y017821D01*
X006068Y017821D01*
X006068Y017407D01*
X006068Y017623D02*
X006068Y017623D01*
X006382Y017407D02*
X006382Y017407D01*
X006382Y017821D01*
X006382Y017821D01*
X006382Y017407D01*
X006382Y017623D02*
X006382Y017623D01*
X006697Y017407D02*
X006697Y017407D01*
X006697Y017821D01*
X006697Y017821D01*
X006697Y017407D01*
X006697Y017623D02*
X006697Y017623D01*
X007012Y017407D02*
X007012Y017407D01*
X007012Y017821D01*
X007012Y017821D01*
X007012Y017407D01*
X007012Y017623D02*
X007012Y017623D01*
X007327Y017407D02*
X007327Y017407D01*
X007327Y017821D01*
X007327Y017821D01*
X007327Y017407D01*
X007327Y017623D02*
X007327Y017623D01*
X007642Y017407D02*
X007642Y017407D01*
X007642Y017821D01*
X007642Y017821D01*
X007642Y017407D01*
X007642Y017623D02*
X007642Y017623D01*
X007957Y017407D02*
X007957Y017407D01*
X007957Y017821D01*
X007957Y017821D01*
X007957Y017407D01*
X007957Y017623D02*
X007957Y017623D01*
X008272Y017407D02*
X008272Y017407D01*
X008272Y017821D01*
X008272Y017821D01*
X008272Y017407D01*
X008272Y017623D02*
X008272Y017623D01*
X008587Y017407D02*
X008587Y017407D01*
X008587Y017821D01*
X008587Y017821D01*
X008587Y017407D01*
X008587Y017623D02*
X008587Y017623D01*
X008902Y017407D02*
X008902Y017407D01*
X008902Y017821D01*
X008902Y017821D01*
X008902Y017407D01*
X008902Y017623D02*
X008902Y017623D01*
X009217Y017407D02*
X009217Y017407D01*
X009217Y017821D01*
X009217Y017821D01*
X009217Y017407D01*
X009217Y017623D02*
X009217Y017623D01*
X009532Y017407D02*
X009532Y017407D01*
X009532Y017821D01*
X009532Y017821D01*
X009532Y017407D01*
X009532Y017623D02*
X009532Y017623D01*
X009532Y022293D02*
X009532Y022293D01*
X009532Y021879D01*
X009532Y021879D01*
X009532Y022293D01*
X009532Y022095D02*
X009532Y022095D01*
X009217Y022293D02*
X009217Y022293D01*
X009217Y021879D01*
X009217Y021879D01*
X009217Y022293D01*
X009217Y022095D02*
X009217Y022095D01*
X008902Y022293D02*
X008902Y022293D01*
X008902Y021879D01*
X008902Y021879D01*
X008902Y022293D01*
X008902Y022095D02*
X008902Y022095D01*
X008587Y022293D02*
X008587Y022293D01*
X008587Y021879D01*
X008587Y021879D01*
X008587Y022293D01*
X008587Y022095D02*
X008587Y022095D01*
X008272Y022293D02*
X008272Y022293D01*
X008272Y021879D01*
X008272Y021879D01*
X008272Y022293D01*
X008272Y022095D02*
X008272Y022095D01*
X007957Y022293D02*
X007957Y022293D01*
X007957Y021879D01*
X007957Y021879D01*
X007957Y022293D01*
X007957Y022095D02*
X007957Y022095D01*
X007642Y022293D02*
X007642Y022293D01*
X007642Y021879D01*
X007642Y021879D01*
X007642Y022293D01*
X007642Y022095D02*
X007642Y022095D01*
X007327Y022293D02*
X007327Y022293D01*
X007327Y021879D01*
X007327Y021879D01*
X007327Y022293D01*
X007327Y022095D02*
X007327Y022095D01*
X007012Y022293D02*
X007012Y022293D01*
X007012Y021879D01*
X007012Y021879D01*
X007012Y022293D01*
X007012Y022095D02*
X007012Y022095D01*
X006697Y022293D02*
X006697Y022293D01*
X006697Y021879D01*
X006697Y021879D01*
X006697Y022293D01*
X006697Y022095D02*
X006697Y022095D01*
X006382Y022293D02*
X006382Y022293D01*
X006382Y021879D01*
X006382Y021879D01*
X006382Y022293D01*
X006382Y022095D02*
X006382Y022095D01*
X006068Y022293D02*
X006068Y022293D01*
X006068Y021879D01*
X006068Y021879D01*
X006068Y022293D01*
X006068Y022095D02*
X006068Y022095D01*
X005753Y022293D02*
X005753Y022293D01*
X005753Y021879D01*
X005753Y021879D01*
X005753Y022293D01*
X005753Y022095D02*
X005753Y022095D01*
X005438Y022293D02*
X005438Y022293D01*
X005438Y021879D01*
X005438Y021879D01*
X005438Y022293D01*
X005438Y022095D02*
X005438Y022095D01*
X005123Y022293D02*
X005123Y022293D01*
X005123Y021879D01*
X005123Y021879D01*
X005123Y022293D01*
X005123Y022095D02*
X005123Y022095D01*
X004808Y022293D02*
X004808Y022293D01*
X004808Y021879D01*
X004808Y021879D01*
X004808Y022293D01*
X004808Y022095D02*
X004808Y022095D01*
X004493Y022293D02*
X004493Y022293D01*
X004493Y021879D01*
X004493Y021879D01*
X004493Y022293D01*
X004493Y022095D02*
X004493Y022095D01*
X004178Y022293D02*
X004178Y022293D01*
X004178Y021879D01*
X004178Y021879D01*
X004178Y022293D01*
X004178Y022095D02*
X004178Y022095D01*
X003863Y022293D02*
X003863Y022293D01*
X003863Y021879D01*
X003863Y021879D01*
X003863Y022293D01*
X003863Y022095D02*
X003863Y022095D01*
X003548Y022293D02*
X003548Y022293D01*
X003548Y021879D01*
X003548Y021879D01*
X003548Y022293D01*
X003548Y022095D02*
X003548Y022095D01*
X003233Y022293D02*
X003233Y022293D01*
X003233Y021879D01*
X003233Y021879D01*
X003233Y022293D01*
X003233Y022095D02*
X003233Y022095D01*
X002918Y022293D02*
X002918Y022293D01*
X002918Y021879D01*
X002918Y021879D01*
X002918Y022293D01*
X002918Y022095D02*
X002918Y022095D01*
D11*
X041005Y010225D03*
X041005Y009725D03*
X041005Y009225D03*
X041005Y008725D03*
X042945Y008725D03*
X042945Y009225D03*
X042945Y009725D03*
X042945Y010225D03*
D12*
X039970Y006600D03*
X039600Y006600D03*
X039230Y006600D03*
X039230Y005600D03*
X039600Y005600D03*
X039970Y005600D03*
D13*
X046701Y010718D03*
X046701Y010974D03*
X046701Y011230D03*
X046701Y011486D03*
X046701Y011742D03*
X046701Y011998D03*
X046701Y012254D03*
X046701Y012509D03*
X046701Y012765D03*
X046701Y013021D03*
X048999Y013021D03*
X048999Y012765D03*
X048999Y012509D03*
X048999Y012254D03*
X048999Y011998D03*
X048999Y011742D03*
X048999Y011486D03*
X048999Y011230D03*
X048999Y010974D03*
X048999Y010718D03*
X048999Y024718D03*
X048999Y024974D03*
X048999Y025230D03*
X048999Y025486D03*
X048999Y025742D03*
X048999Y025998D03*
X048999Y026254D03*
X048999Y026509D03*
X048999Y026765D03*
X048999Y027021D03*
X046701Y027021D03*
X046701Y026765D03*
X046701Y026509D03*
X046701Y026254D03*
X046701Y025998D03*
X046701Y025742D03*
X046701Y025486D03*
X046701Y025230D03*
X046701Y024974D03*
X046701Y024718D03*
D14*
X044513Y030536D03*
X044257Y030536D03*
X044002Y030536D03*
X043746Y030536D03*
X043490Y030536D03*
X043234Y030536D03*
X042978Y030536D03*
X042722Y030536D03*
X042466Y030536D03*
X042210Y030536D03*
X041954Y030536D03*
X041698Y030536D03*
X041443Y030536D03*
X041187Y030536D03*
X039013Y030536D03*
X038757Y030536D03*
X038502Y030536D03*
X038246Y030536D03*
X037990Y030536D03*
X037734Y030536D03*
X037478Y030536D03*
X037222Y030536D03*
X036966Y030536D03*
X036710Y030536D03*
X036454Y030536D03*
X036198Y030536D03*
X035943Y030536D03*
X035687Y030536D03*
X035687Y033414D03*
X035943Y033414D03*
X036198Y033414D03*
X036454Y033414D03*
X036710Y033414D03*
X036966Y033414D03*
X037222Y033414D03*
X037478Y033414D03*
X037734Y033414D03*
X037990Y033414D03*
X038246Y033414D03*
X038502Y033414D03*
X038757Y033414D03*
X039013Y033414D03*
X041187Y033414D03*
X041443Y033414D03*
X041698Y033414D03*
X041954Y033414D03*
X042210Y033414D03*
X042466Y033414D03*
X042722Y033414D03*
X042978Y033414D03*
X043234Y033414D03*
X043490Y033414D03*
X043746Y033414D03*
X044002Y033414D03*
X044257Y033414D03*
X044513Y033414D03*
D15*
X045481Y033031D02*
X045481Y032769D01*
X045219Y032769D01*
X045219Y033031D01*
X045481Y033031D01*
X045481Y032856D02*
X045219Y032856D01*
X045219Y032943D02*
X045481Y032943D01*
X045481Y033030D02*
X045219Y033030D01*
X045481Y032431D02*
X045481Y032169D01*
X045219Y032169D01*
X045219Y032431D01*
X045481Y032431D01*
X045481Y032256D02*
X045219Y032256D01*
X045219Y032343D02*
X045481Y032343D01*
X045481Y032430D02*
X045219Y032430D01*
X045219Y031781D02*
X045219Y031519D01*
X045219Y031781D02*
X045481Y031781D01*
X045481Y031519D01*
X045219Y031519D01*
X045219Y031606D02*
X045481Y031606D01*
X045481Y031693D02*
X045219Y031693D01*
X045219Y031780D02*
X045481Y031780D01*
X045219Y031181D02*
X045219Y030919D01*
X045219Y031181D02*
X045481Y031181D01*
X045481Y030919D01*
X045219Y030919D01*
X045219Y031006D02*
X045481Y031006D01*
X045481Y031093D02*
X045219Y031093D01*
X045219Y031180D02*
X045481Y031180D01*
X047669Y029969D02*
X047931Y029969D01*
X047669Y029969D02*
X047669Y030231D01*
X047931Y030231D01*
X047931Y029969D01*
X047931Y030056D02*
X047669Y030056D01*
X047669Y030143D02*
X047931Y030143D01*
X047931Y030230D02*
X047669Y030230D01*
X048269Y029969D02*
X048531Y029969D01*
X048269Y029969D02*
X048269Y030231D01*
X048531Y030231D01*
X048531Y029969D01*
X048531Y030056D02*
X048269Y030056D01*
X048269Y030143D02*
X048531Y030143D01*
X048531Y030230D02*
X048269Y030230D01*
X051344Y031794D02*
X051344Y032056D01*
X051606Y032056D01*
X051606Y031794D01*
X051344Y031794D01*
X051344Y031881D02*
X051606Y031881D01*
X051606Y031968D02*
X051344Y031968D01*
X051344Y032055D02*
X051606Y032055D01*
X051344Y032394D02*
X051344Y032656D01*
X051606Y032656D01*
X051606Y032394D01*
X051344Y032394D01*
X051344Y032481D02*
X051606Y032481D01*
X051606Y032568D02*
X051344Y032568D01*
X051344Y032655D02*
X051606Y032655D01*
X050906Y035719D02*
X050644Y035719D01*
X050644Y035981D01*
X050906Y035981D01*
X050906Y035719D01*
X050906Y035806D02*
X050644Y035806D01*
X050644Y035893D02*
X050906Y035893D01*
X050906Y035980D02*
X050644Y035980D01*
X050306Y035719D02*
X050044Y035719D01*
X050044Y035981D01*
X050306Y035981D01*
X050306Y035719D01*
X050306Y035806D02*
X050044Y035806D01*
X050044Y035893D02*
X050306Y035893D01*
X050306Y035980D02*
X050044Y035980D01*
X047094Y035894D02*
X047094Y036156D01*
X047356Y036156D01*
X047356Y035894D01*
X047094Y035894D01*
X047094Y035981D02*
X047356Y035981D01*
X047356Y036068D02*
X047094Y036068D01*
X047094Y036155D02*
X047356Y036155D01*
X047094Y035556D02*
X047094Y035294D01*
X047094Y035556D02*
X047356Y035556D01*
X047356Y035294D01*
X047094Y035294D01*
X047094Y035381D02*
X047356Y035381D01*
X047356Y035468D02*
X047094Y035468D01*
X047094Y035555D02*
X047356Y035555D01*
X042606Y035644D02*
X042606Y035906D01*
X042606Y035644D02*
X042344Y035644D01*
X042344Y035906D01*
X042606Y035906D01*
X042606Y035731D02*
X042344Y035731D01*
X042344Y035818D02*
X042606Y035818D01*
X042606Y035905D02*
X042344Y035905D01*
X041594Y035906D02*
X041594Y035644D01*
X041594Y035906D02*
X041856Y035906D01*
X041856Y035644D01*
X041594Y035644D01*
X041594Y035731D02*
X041856Y035731D01*
X041856Y035818D02*
X041594Y035818D01*
X041594Y035905D02*
X041856Y035905D01*
X041594Y035306D02*
X041594Y035044D01*
X041594Y035306D02*
X041856Y035306D01*
X041856Y035044D01*
X041594Y035044D01*
X041594Y035131D02*
X041856Y035131D01*
X041856Y035218D02*
X041594Y035218D01*
X041594Y035305D02*
X041856Y035305D01*
X042606Y035306D02*
X042606Y035044D01*
X042344Y035044D01*
X042344Y035306D01*
X042606Y035306D01*
X042606Y035131D02*
X042344Y035131D01*
X042344Y035218D02*
X042606Y035218D01*
X042606Y035305D02*
X042344Y035305D01*
X039981Y031781D02*
X039981Y031519D01*
X039719Y031519D01*
X039719Y031781D01*
X039981Y031781D01*
X039981Y031606D02*
X039719Y031606D01*
X039719Y031693D02*
X039981Y031693D01*
X039981Y031780D02*
X039719Y031780D01*
X039981Y031181D02*
X039981Y030919D01*
X039719Y030919D01*
X039719Y031181D01*
X039981Y031181D01*
X039981Y031006D02*
X039719Y031006D01*
X039719Y031093D02*
X039981Y031093D01*
X039981Y031180D02*
X039719Y031180D01*
X035481Y035044D02*
X035481Y035306D01*
X035481Y035044D02*
X035219Y035044D01*
X035219Y035306D01*
X035481Y035306D01*
X035481Y035131D02*
X035219Y035131D01*
X035219Y035218D02*
X035481Y035218D01*
X035481Y035305D02*
X035219Y035305D01*
X035481Y035644D02*
X035481Y035906D01*
X035481Y035644D02*
X035219Y035644D01*
X035219Y035906D01*
X035481Y035906D01*
X035481Y035731D02*
X035219Y035731D01*
X035219Y035818D02*
X035481Y035818D01*
X035481Y035905D02*
X035219Y035905D01*
X034469Y035906D02*
X034469Y035644D01*
X034469Y035906D02*
X034731Y035906D01*
X034731Y035644D01*
X034469Y035644D01*
X034469Y035731D02*
X034731Y035731D01*
X034731Y035818D02*
X034469Y035818D01*
X034469Y035905D02*
X034731Y035905D01*
X034469Y035306D02*
X034469Y035044D01*
X034469Y035306D02*
X034731Y035306D01*
X034731Y035044D01*
X034469Y035044D01*
X034469Y035131D02*
X034731Y035131D01*
X034731Y035218D02*
X034469Y035218D01*
X034469Y035305D02*
X034731Y035305D01*
X033106Y035544D02*
X033106Y035806D01*
X033106Y035544D02*
X032844Y035544D01*
X032844Y035806D01*
X033106Y035806D01*
X033106Y035631D02*
X032844Y035631D01*
X032844Y035718D02*
X033106Y035718D01*
X033106Y035805D02*
X032844Y035805D01*
X033106Y036144D02*
X033106Y036406D01*
X033106Y036144D02*
X032844Y036144D01*
X032844Y036406D01*
X033106Y036406D01*
X033106Y036231D02*
X032844Y036231D01*
X032844Y036318D02*
X033106Y036318D01*
X033106Y036405D02*
X032844Y036405D01*
X031981Y036406D02*
X031981Y036144D01*
X031719Y036144D01*
X031719Y036406D01*
X031981Y036406D01*
X031981Y036231D02*
X031719Y036231D01*
X031719Y036318D02*
X031981Y036318D01*
X031981Y036405D02*
X031719Y036405D01*
X031981Y035806D02*
X031981Y035544D01*
X031719Y035544D01*
X031719Y035806D01*
X031981Y035806D01*
X031981Y035631D02*
X031719Y035631D01*
X031719Y035718D02*
X031981Y035718D01*
X031981Y035805D02*
X031719Y035805D01*
X030231Y035806D02*
X030231Y035544D01*
X029969Y035544D01*
X029969Y035806D01*
X030231Y035806D01*
X030231Y035631D02*
X029969Y035631D01*
X029969Y035718D02*
X030231Y035718D01*
X030231Y035805D02*
X029969Y035805D01*
X030231Y036144D02*
X030231Y036406D01*
X030231Y036144D02*
X029969Y036144D01*
X029969Y036406D01*
X030231Y036406D01*
X030231Y036231D02*
X029969Y036231D01*
X029969Y036318D02*
X030231Y036318D01*
X030231Y036405D02*
X029969Y036405D01*
X029894Y037244D02*
X029894Y037506D01*
X030306Y037506D01*
X030306Y037244D01*
X029894Y037244D01*
X029894Y037331D02*
X030306Y037331D01*
X030306Y037418D02*
X029894Y037418D01*
X029894Y037505D02*
X030306Y037505D01*
X029894Y037944D02*
X029894Y038206D01*
X030306Y038206D01*
X030306Y037944D01*
X029894Y037944D01*
X029894Y038031D02*
X030306Y038031D01*
X030306Y038118D02*
X029894Y038118D01*
X029894Y038205D02*
X030306Y038205D01*
X031644Y038206D02*
X031644Y037944D01*
X031644Y038206D02*
X032056Y038206D01*
X032056Y037944D01*
X031644Y037944D01*
X031644Y038031D02*
X032056Y038031D01*
X032056Y038118D02*
X031644Y038118D01*
X031644Y038205D02*
X032056Y038205D01*
X032769Y038206D02*
X032769Y037944D01*
X032769Y038206D02*
X033181Y038206D01*
X033181Y037944D01*
X032769Y037944D01*
X032769Y038031D02*
X033181Y038031D01*
X033181Y038118D02*
X032769Y038118D01*
X032769Y038205D02*
X033181Y038205D01*
X032769Y037506D02*
X032769Y037244D01*
X032769Y037506D02*
X033181Y037506D01*
X033181Y037244D01*
X032769Y037244D01*
X032769Y037331D02*
X033181Y037331D01*
X033181Y037418D02*
X032769Y037418D01*
X032769Y037505D02*
X033181Y037505D01*
X031644Y037506D02*
X031644Y037244D01*
X031644Y037506D02*
X032056Y037506D01*
X032056Y037244D01*
X031644Y037244D01*
X031644Y037331D02*
X032056Y037331D01*
X032056Y037418D02*
X031644Y037418D01*
X031644Y037505D02*
X032056Y037505D01*
X033856Y033781D02*
X033856Y033519D01*
X033594Y033519D01*
X033594Y033781D01*
X033856Y033781D01*
X033856Y033606D02*
X033594Y033606D01*
X033594Y033693D02*
X033856Y033693D01*
X033856Y033780D02*
X033594Y033780D01*
X033856Y033181D02*
X033856Y032919D01*
X033594Y032919D01*
X033594Y033181D01*
X033856Y033181D01*
X033856Y033006D02*
X033594Y033006D01*
X033594Y033093D02*
X033856Y033093D01*
X033856Y033180D02*
X033594Y033180D01*
X033594Y031781D02*
X033594Y031519D01*
X033594Y031781D02*
X033856Y031781D01*
X033856Y031519D01*
X033594Y031519D01*
X033594Y031606D02*
X033856Y031606D01*
X033856Y031693D02*
X033594Y031693D01*
X033594Y031780D02*
X033856Y031780D01*
X033594Y031181D02*
X033594Y030919D01*
X033594Y031181D02*
X033856Y031181D01*
X033856Y030919D01*
X033594Y030919D01*
X033594Y031006D02*
X033856Y031006D01*
X033856Y031093D02*
X033594Y031093D01*
X033594Y031180D02*
X033856Y031180D01*
X029106Y025781D02*
X029106Y025519D01*
X028844Y025519D01*
X028844Y025781D01*
X029106Y025781D01*
X029106Y025606D02*
X028844Y025606D01*
X028844Y025693D02*
X029106Y025693D01*
X029106Y025780D02*
X028844Y025780D01*
X029106Y025181D02*
X029106Y024919D01*
X028844Y024919D01*
X028844Y025181D01*
X029106Y025181D01*
X029106Y025006D02*
X028844Y025006D01*
X028844Y025093D02*
X029106Y025093D01*
X029106Y025180D02*
X028844Y025180D01*
X033419Y023981D02*
X033681Y023981D01*
X033681Y023719D01*
X033419Y023719D01*
X033419Y023981D01*
X033419Y023806D02*
X033681Y023806D01*
X033681Y023893D02*
X033419Y023893D01*
X033419Y023980D02*
X033681Y023980D01*
X034019Y023981D02*
X034281Y023981D01*
X034281Y023719D01*
X034019Y023719D01*
X034019Y023981D01*
X034019Y023806D02*
X034281Y023806D01*
X034281Y023893D02*
X034019Y023893D01*
X034019Y023980D02*
X034281Y023980D01*
X040981Y022906D02*
X040981Y022644D01*
X040719Y022644D01*
X040719Y022906D01*
X040981Y022906D01*
X040981Y022731D02*
X040719Y022731D01*
X040719Y022818D02*
X040981Y022818D01*
X040981Y022905D02*
X040719Y022905D01*
X040981Y022306D02*
X040981Y022044D01*
X040719Y022044D01*
X040719Y022306D01*
X040981Y022306D01*
X040981Y022131D02*
X040719Y022131D01*
X040719Y022218D02*
X040981Y022218D01*
X040981Y022305D02*
X040719Y022305D01*
X048044Y027469D02*
X048306Y027469D01*
X048044Y027469D02*
X048044Y027731D01*
X048306Y027731D01*
X048306Y027469D01*
X048306Y027556D02*
X048044Y027556D01*
X048044Y027643D02*
X048306Y027643D01*
X048306Y027730D02*
X048044Y027730D01*
X048644Y027469D02*
X048906Y027469D01*
X048644Y027469D02*
X048644Y027731D01*
X048906Y027731D01*
X048906Y027469D01*
X048906Y027556D02*
X048644Y027556D01*
X048644Y027643D02*
X048906Y027643D01*
X048906Y027730D02*
X048644Y027730D01*
X054732Y025481D02*
X054994Y025481D01*
X054994Y025219D01*
X054732Y025219D01*
X054732Y025481D01*
X054732Y025306D02*
X054994Y025306D01*
X054994Y025393D02*
X054732Y025393D01*
X054732Y025480D02*
X054994Y025480D01*
X055332Y025481D02*
X055594Y025481D01*
X055594Y025219D01*
X055332Y025219D01*
X055332Y025481D01*
X055332Y025306D02*
X055594Y025306D01*
X055594Y025393D02*
X055332Y025393D01*
X055332Y025480D02*
X055594Y025480D01*
X055594Y024481D02*
X055332Y024481D01*
X055594Y024481D02*
X055594Y024219D01*
X055332Y024219D01*
X055332Y024481D01*
X055332Y024306D02*
X055594Y024306D01*
X055594Y024393D02*
X055332Y024393D01*
X055332Y024480D02*
X055594Y024480D01*
X054994Y024481D02*
X054732Y024481D01*
X054994Y024481D02*
X054994Y024219D01*
X054732Y024219D01*
X054732Y024481D01*
X054732Y024306D02*
X054994Y024306D01*
X054994Y024393D02*
X054732Y024393D01*
X054732Y024480D02*
X054994Y024480D01*
X061969Y017031D02*
X061969Y016769D01*
X061969Y017031D02*
X062231Y017031D01*
X062231Y016769D01*
X061969Y016769D01*
X061969Y016856D02*
X062231Y016856D01*
X062231Y016943D02*
X061969Y016943D01*
X061969Y017030D02*
X062231Y017030D01*
X061969Y016431D02*
X061969Y016169D01*
X061969Y016431D02*
X062231Y016431D01*
X062231Y016169D01*
X061969Y016169D01*
X061969Y016256D02*
X062231Y016256D01*
X062231Y016343D02*
X061969Y016343D01*
X061969Y016430D02*
X062231Y016430D01*
X061481Y011219D02*
X061481Y010957D01*
X061219Y010957D01*
X061219Y011219D01*
X061481Y011219D01*
X061481Y011044D02*
X061219Y011044D01*
X061219Y011131D02*
X061481Y011131D01*
X061481Y011218D02*
X061219Y011218D01*
X061481Y010619D02*
X061481Y010357D01*
X061219Y010357D01*
X061219Y010619D01*
X061481Y010619D01*
X061481Y010444D02*
X061219Y010444D01*
X061219Y010531D02*
X061481Y010531D01*
X061481Y010618D02*
X061219Y010618D01*
X051156Y011719D02*
X050894Y011719D01*
X050894Y011981D01*
X051156Y011981D01*
X051156Y011719D01*
X051156Y011806D02*
X050894Y011806D01*
X050894Y011893D02*
X051156Y011893D01*
X051156Y011980D02*
X050894Y011980D01*
X050556Y011719D02*
X050294Y011719D01*
X050294Y011981D01*
X050556Y011981D01*
X050556Y011719D01*
X050556Y011806D02*
X050294Y011806D01*
X050294Y011893D02*
X050556Y011893D01*
X050556Y011980D02*
X050294Y011980D01*
X050294Y012344D02*
X050556Y012344D01*
X050294Y012344D02*
X050294Y012606D01*
X050556Y012606D01*
X050556Y012344D01*
X050556Y012431D02*
X050294Y012431D01*
X050294Y012518D02*
X050556Y012518D01*
X050556Y012605D02*
X050294Y012605D01*
X050894Y012344D02*
X051156Y012344D01*
X050894Y012344D02*
X050894Y012606D01*
X051156Y012606D01*
X051156Y012344D01*
X051156Y012431D02*
X050894Y012431D01*
X050894Y012518D02*
X051156Y012518D01*
X051156Y012605D02*
X050894Y012605D01*
X049031Y013469D02*
X048769Y013469D01*
X048769Y013731D01*
X049031Y013731D01*
X049031Y013469D01*
X049031Y013556D02*
X048769Y013556D01*
X048769Y013643D02*
X049031Y013643D01*
X049031Y013730D02*
X048769Y013730D01*
X048431Y013469D02*
X048169Y013469D01*
X048169Y013731D01*
X048431Y013731D01*
X048431Y013469D01*
X048431Y013556D02*
X048169Y013556D01*
X048169Y013643D02*
X048431Y013643D01*
X048431Y013730D02*
X048169Y013730D01*
X040356Y009406D02*
X040356Y009144D01*
X040094Y009144D01*
X040094Y009406D01*
X040356Y009406D01*
X040356Y009231D02*
X040094Y009231D01*
X040094Y009318D02*
X040356Y009318D01*
X040356Y009405D02*
X040094Y009405D01*
X040356Y008806D02*
X040356Y008544D01*
X040094Y008544D01*
X040094Y008806D01*
X040356Y008806D01*
X040356Y008631D02*
X040094Y008631D01*
X040094Y008718D02*
X040356Y008718D01*
X040356Y008805D02*
X040094Y008805D01*
X040856Y007406D02*
X040856Y007144D01*
X040594Y007144D01*
X040594Y007406D01*
X040856Y007406D01*
X040856Y007231D02*
X040594Y007231D01*
X040594Y007318D02*
X040856Y007318D01*
X040856Y007405D02*
X040594Y007405D01*
X040856Y006806D02*
X040856Y006544D01*
X040594Y006544D01*
X040594Y006806D01*
X040856Y006806D01*
X040856Y006631D02*
X040594Y006631D01*
X040594Y006718D02*
X040856Y006718D01*
X040856Y006805D02*
X040594Y006805D01*
X042044Y004356D02*
X042306Y004356D01*
X042306Y004094D01*
X042044Y004094D01*
X042044Y004356D01*
X042044Y004181D02*
X042306Y004181D01*
X042306Y004268D02*
X042044Y004268D01*
X042044Y004355D02*
X042306Y004355D01*
X042644Y004356D02*
X042906Y004356D01*
X042906Y004094D01*
X042644Y004094D01*
X042644Y004356D01*
X042644Y004181D02*
X042906Y004181D01*
X042906Y004268D02*
X042644Y004268D01*
X042644Y004355D02*
X042906Y004355D01*
X038406Y004356D02*
X038144Y004356D01*
X038406Y004356D02*
X038406Y004094D01*
X038144Y004094D01*
X038144Y004356D01*
X038144Y004181D02*
X038406Y004181D01*
X038406Y004268D02*
X038144Y004268D01*
X038144Y004355D02*
X038406Y004355D01*
X037806Y004356D02*
X037544Y004356D01*
X037806Y004356D02*
X037806Y004094D01*
X037544Y004094D01*
X037544Y004356D01*
X037544Y004181D02*
X037806Y004181D01*
X037806Y004268D02*
X037544Y004268D01*
X037544Y004355D02*
X037806Y004355D01*
X029344Y016544D02*
X029344Y016806D01*
X029606Y016806D01*
X029606Y016544D01*
X029344Y016544D01*
X029344Y016631D02*
X029606Y016631D01*
X029606Y016718D02*
X029344Y016718D01*
X029344Y016805D02*
X029606Y016805D01*
X029344Y017144D02*
X029344Y017406D01*
X029606Y017406D01*
X029606Y017144D01*
X029344Y017144D01*
X029344Y017231D02*
X029606Y017231D01*
X029606Y017318D02*
X029344Y017318D01*
X029344Y017405D02*
X029606Y017405D01*
X018531Y017219D02*
X018269Y017219D01*
X018269Y017481D01*
X018531Y017481D01*
X018531Y017219D01*
X018531Y017306D02*
X018269Y017306D01*
X018269Y017393D02*
X018531Y017393D01*
X018531Y017480D02*
X018269Y017480D01*
X017931Y017219D02*
X017669Y017219D01*
X017669Y017481D01*
X017931Y017481D01*
X017931Y017219D01*
X017931Y017306D02*
X017669Y017306D01*
X017669Y017393D02*
X017931Y017393D01*
X017931Y017480D02*
X017669Y017480D01*
X013281Y023981D02*
X013019Y023981D01*
X013281Y023981D02*
X013281Y023719D01*
X013019Y023719D01*
X013019Y023981D01*
X013019Y023806D02*
X013281Y023806D01*
X013281Y023893D02*
X013019Y023893D01*
X013019Y023980D02*
X013281Y023980D01*
X012681Y023981D02*
X012419Y023981D01*
X012681Y023981D02*
X012681Y023719D01*
X012419Y023719D01*
X012419Y023981D01*
X012419Y023806D02*
X012681Y023806D01*
X012681Y023893D02*
X012419Y023893D01*
X012419Y023980D02*
X012681Y023980D01*
X006656Y016981D02*
X006394Y016981D01*
X006656Y016981D02*
X006656Y016719D01*
X006394Y016719D01*
X006394Y016981D01*
X006394Y016806D02*
X006656Y016806D01*
X006656Y016893D02*
X006394Y016893D01*
X006394Y016980D02*
X006656Y016980D01*
X006056Y016981D02*
X005794Y016981D01*
X006056Y016981D02*
X006056Y016719D01*
X005794Y016719D01*
X005794Y016981D01*
X005794Y016806D02*
X006056Y016806D01*
X006056Y016893D02*
X005794Y016893D01*
X005794Y016980D02*
X006056Y016980D01*
X001219Y027794D02*
X001219Y028056D01*
X001481Y028056D01*
X001481Y027794D01*
X001219Y027794D01*
X001219Y027881D02*
X001481Y027881D01*
X001481Y027968D02*
X001219Y027968D01*
X001219Y028055D02*
X001481Y028055D01*
X001219Y028394D02*
X001219Y028656D01*
X001481Y028656D01*
X001481Y028394D01*
X001219Y028394D01*
X001219Y028481D02*
X001481Y028481D01*
X001481Y028568D02*
X001219Y028568D01*
X001219Y028655D02*
X001481Y028655D01*
X006669Y033219D02*
X006931Y033219D01*
X006669Y033219D02*
X006669Y033481D01*
X006931Y033481D01*
X006931Y033219D01*
X006931Y033306D02*
X006669Y033306D01*
X006669Y033393D02*
X006931Y033393D01*
X006931Y033480D02*
X006669Y033480D01*
X007269Y033219D02*
X007531Y033219D01*
X007269Y033219D02*
X007269Y033481D01*
X007531Y033481D01*
X007531Y033219D01*
X007531Y033306D02*
X007269Y033306D01*
X007269Y033393D02*
X007531Y033393D01*
X007531Y033480D02*
X007269Y033480D01*
X007269Y034219D02*
X007531Y034219D01*
X007269Y034219D02*
X007269Y034481D01*
X007531Y034481D01*
X007531Y034219D01*
X007531Y034306D02*
X007269Y034306D01*
X007269Y034393D02*
X007531Y034393D01*
X007531Y034480D02*
X007269Y034480D01*
X006931Y034219D02*
X006669Y034219D01*
X006669Y034481D01*
X006931Y034481D01*
X006931Y034219D01*
X006931Y034306D02*
X006669Y034306D01*
X006669Y034393D02*
X006931Y034393D01*
X006931Y034480D02*
X006669Y034480D01*
X006669Y035219D02*
X006931Y035219D01*
X006669Y035219D02*
X006669Y035481D01*
X006931Y035481D01*
X006931Y035219D01*
X006931Y035306D02*
X006669Y035306D01*
X006669Y035393D02*
X006931Y035393D01*
X006931Y035480D02*
X006669Y035480D01*
X007269Y035219D02*
X007531Y035219D01*
X007269Y035219D02*
X007269Y035481D01*
X007531Y035481D01*
X007531Y035219D01*
X007531Y035306D02*
X007269Y035306D01*
X007269Y035393D02*
X007531Y035393D01*
X007531Y035480D02*
X007269Y035480D01*
X007269Y036219D02*
X007531Y036219D01*
X007269Y036219D02*
X007269Y036481D01*
X007531Y036481D01*
X007531Y036219D01*
X007531Y036306D02*
X007269Y036306D01*
X007269Y036393D02*
X007531Y036393D01*
X007531Y036480D02*
X007269Y036480D01*
X006931Y036219D02*
X006669Y036219D01*
X006669Y036481D01*
X006931Y036481D01*
X006931Y036219D01*
X006931Y036306D02*
X006669Y036306D01*
X006669Y036393D02*
X006931Y036393D01*
X006931Y036480D02*
X006669Y036480D01*
X006669Y037219D02*
X006931Y037219D01*
X006669Y037219D02*
X006669Y037481D01*
X006931Y037481D01*
X006931Y037219D01*
X006931Y037306D02*
X006669Y037306D01*
X006669Y037393D02*
X006931Y037393D01*
X006931Y037480D02*
X006669Y037480D01*
X007269Y037219D02*
X007531Y037219D01*
X007269Y037219D02*
X007269Y037481D01*
X007531Y037481D01*
X007531Y037219D01*
X007531Y037306D02*
X007269Y037306D01*
X007269Y037393D02*
X007531Y037393D01*
X007531Y037480D02*
X007269Y037480D01*
X005344Y037431D02*
X005344Y037169D01*
X005344Y037431D02*
X005606Y037431D01*
X005606Y037169D01*
X005344Y037169D01*
X005344Y037256D02*
X005606Y037256D01*
X005606Y037343D02*
X005344Y037343D01*
X005344Y037430D02*
X005606Y037430D01*
X005344Y037769D02*
X005344Y038031D01*
X005606Y038031D01*
X005606Y037769D01*
X005344Y037769D01*
X005344Y037856D02*
X005606Y037856D01*
X005606Y037943D02*
X005344Y037943D01*
X005344Y038030D02*
X005606Y038030D01*
X004356Y038031D02*
X004356Y037769D01*
X004094Y037769D01*
X004094Y038031D01*
X004356Y038031D01*
X004356Y037856D02*
X004094Y037856D01*
X004094Y037943D02*
X004356Y037943D01*
X004356Y038030D02*
X004094Y038030D01*
X004356Y037431D02*
X004356Y037169D01*
X004094Y037169D01*
X004094Y037431D01*
X004356Y037431D01*
X004356Y037256D02*
X004094Y037256D01*
X004094Y037343D02*
X004356Y037343D01*
X004356Y037430D02*
X004094Y037430D01*
X009719Y037306D02*
X009719Y037044D01*
X009719Y037306D02*
X009981Y037306D01*
X009981Y037044D01*
X009719Y037044D01*
X009719Y037131D02*
X009981Y037131D01*
X009981Y037218D02*
X009719Y037218D01*
X009719Y037305D02*
X009981Y037305D01*
X009719Y037644D02*
X009719Y037906D01*
X009981Y037906D01*
X009981Y037644D01*
X009719Y037644D01*
X009719Y037731D02*
X009981Y037731D01*
X009981Y037818D02*
X009719Y037818D01*
X009719Y037905D02*
X009981Y037905D01*
X015219Y037906D02*
X015219Y037644D01*
X015219Y037906D02*
X015481Y037906D01*
X015481Y037644D01*
X015219Y037644D01*
X015219Y037731D02*
X015481Y037731D01*
X015481Y037818D02*
X015219Y037818D01*
X015219Y037905D02*
X015481Y037905D01*
X015219Y037306D02*
X015219Y037044D01*
X015219Y037306D02*
X015481Y037306D01*
X015481Y037044D01*
X015219Y037044D01*
X015219Y037131D02*
X015481Y037131D01*
X015481Y037218D02*
X015219Y037218D01*
X015219Y037305D02*
X015481Y037305D01*
X020594Y035531D02*
X020594Y035269D01*
X020594Y035531D02*
X020856Y035531D01*
X020856Y035269D01*
X020594Y035269D01*
X020594Y035356D02*
X020856Y035356D01*
X020856Y035443D02*
X020594Y035443D01*
X020594Y035530D02*
X020856Y035530D01*
X020594Y034931D02*
X020594Y034669D01*
X020594Y034931D02*
X020856Y034931D01*
X020856Y034669D01*
X020594Y034669D01*
X020594Y034756D02*
X020856Y034756D01*
X020856Y034843D02*
X020594Y034843D01*
X020594Y034930D02*
X020856Y034930D01*
X021231Y033656D02*
X021231Y033394D01*
X020969Y033394D01*
X020969Y033656D01*
X021231Y033656D01*
X021231Y033481D02*
X020969Y033481D01*
X020969Y033568D02*
X021231Y033568D01*
X021231Y033655D02*
X020969Y033655D01*
X021231Y033056D02*
X021231Y032794D01*
X020969Y032794D01*
X020969Y033056D01*
X021231Y033056D01*
X021231Y032881D02*
X020969Y032881D01*
X020969Y032968D02*
X021231Y032968D01*
X021231Y033055D02*
X020969Y033055D01*
X056782Y003156D02*
X056782Y002894D01*
X056782Y003156D02*
X057044Y003156D01*
X057044Y002894D01*
X056782Y002894D01*
X056782Y002981D02*
X057044Y002981D01*
X057044Y003068D02*
X056782Y003068D01*
X056782Y003155D02*
X057044Y003155D01*
X057457Y003206D02*
X057457Y002944D01*
X057457Y003206D02*
X057869Y003206D01*
X057869Y002944D01*
X057457Y002944D01*
X057457Y003031D02*
X057869Y003031D01*
X057869Y003118D02*
X057457Y003118D01*
X057457Y003205D02*
X057869Y003205D01*
X057457Y002506D02*
X057457Y002244D01*
X057457Y002506D02*
X057869Y002506D01*
X057869Y002244D01*
X057457Y002244D01*
X057457Y002331D02*
X057869Y002331D01*
X057869Y002418D02*
X057457Y002418D01*
X057457Y002505D02*
X057869Y002505D01*
X056782Y002556D02*
X056782Y002294D01*
X056782Y002556D02*
X057044Y002556D01*
X057044Y002294D01*
X056782Y002294D01*
X056782Y002381D02*
X057044Y002381D01*
X057044Y002468D02*
X056782Y002468D01*
X056782Y002555D02*
X057044Y002555D01*
D16*
X045195Y002122D03*
X045195Y003578D03*
X042755Y003578D03*
X042755Y002122D03*
X040695Y002122D03*
X040695Y003578D03*
X038255Y003578D03*
X038255Y002122D03*
D17*
X059515Y012225D03*
X059515Y012725D03*
X059515Y013225D03*
X059515Y013725D03*
X059515Y014225D03*
X059515Y014725D03*
X059515Y015225D03*
X061935Y015225D03*
X061935Y014725D03*
X061935Y014225D03*
X061935Y013725D03*
X061935Y013225D03*
X061935Y012725D03*
X061935Y012225D03*
X037435Y024850D03*
X037435Y025350D03*
X037435Y025850D03*
X037435Y026350D03*
X037435Y026850D03*
X037435Y027350D03*
X037435Y027850D03*
X035015Y027850D03*
X035015Y027350D03*
X035015Y026850D03*
X035015Y026350D03*
X035015Y025850D03*
X035015Y025350D03*
X035015Y024850D03*
X032685Y024850D03*
X032685Y025350D03*
X032685Y025850D03*
X032685Y026350D03*
X032685Y026850D03*
X032685Y027350D03*
X032685Y027850D03*
X030265Y027850D03*
X030265Y027350D03*
X030265Y026850D03*
X030265Y026350D03*
X030265Y025850D03*
X030265Y025350D03*
X030265Y024850D03*
X030265Y030100D03*
X030265Y030600D03*
X030265Y031100D03*
X030265Y031600D03*
X030265Y032100D03*
X030265Y032600D03*
X030265Y033100D03*
X032685Y033100D03*
X032685Y032600D03*
X032685Y032100D03*
X032685Y031600D03*
X032685Y031100D03*
X032685Y030600D03*
X032685Y030100D03*
D18*
X058625Y032725D03*
X061325Y032725D03*
D19*
X054225Y035250D03*
X054225Y037950D03*
D20*
X050600Y028913D03*
X048100Y028913D03*
D21*
X047850Y031975D03*
X047850Y034475D03*
D22*
X049619Y037475D03*
X051331Y037475D03*
D23*
X003350Y005750D03*
X003350Y007950D03*
D24*
X052468Y033970D02*
X052468Y034286D01*
X052468Y033970D02*
X052232Y033970D01*
X052232Y034286D01*
X052468Y034286D01*
X052468Y034048D02*
X052232Y034048D01*
X052232Y034126D02*
X052468Y034126D01*
X052468Y034204D02*
X052232Y034204D01*
X052232Y034282D02*
X052468Y034282D01*
X052468Y034914D02*
X052468Y035230D01*
X052468Y034914D02*
X052232Y034914D01*
X052232Y035230D01*
X052468Y035230D01*
X052468Y034992D02*
X052232Y034992D01*
X052232Y035070D02*
X052468Y035070D01*
X052468Y035148D02*
X052232Y035148D01*
X052232Y035226D02*
X052468Y035226D01*
X055095Y034218D02*
X055411Y034218D01*
X055411Y033982D01*
X055095Y033982D01*
X055095Y034218D01*
X055095Y034060D02*
X055411Y034060D01*
X055411Y034138D02*
X055095Y034138D01*
X055095Y034216D02*
X055411Y034216D01*
X056039Y034218D02*
X056355Y034218D01*
X056355Y033982D01*
X056039Y033982D01*
X056039Y034218D01*
X056039Y034060D02*
X056355Y034060D01*
X056355Y034138D02*
X056039Y034138D01*
X056039Y034216D02*
X056355Y034216D01*
X057107Y033855D02*
X057107Y033539D01*
X057107Y033855D02*
X057343Y033855D01*
X057343Y033539D01*
X057107Y033539D01*
X057107Y033617D02*
X057343Y033617D01*
X057343Y033695D02*
X057107Y033695D01*
X057107Y033773D02*
X057343Y033773D01*
X057343Y033851D02*
X057107Y033851D01*
X057107Y032911D02*
X057107Y032595D01*
X057107Y032911D02*
X057343Y032911D01*
X057343Y032595D01*
X057107Y032595D01*
X057107Y032673D02*
X057343Y032673D01*
X057343Y032751D02*
X057107Y032751D01*
X057107Y032829D02*
X057343Y032829D01*
X057343Y032907D02*
X057107Y032907D01*
X055607Y032730D02*
X055607Y032414D01*
X055607Y032730D02*
X055843Y032730D01*
X055843Y032414D01*
X055607Y032414D01*
X055607Y032492D02*
X055843Y032492D01*
X055843Y032570D02*
X055607Y032570D01*
X055607Y032648D02*
X055843Y032648D01*
X055843Y032726D02*
X055607Y032726D01*
X055607Y031786D02*
X055607Y031470D01*
X055607Y031786D02*
X055843Y031786D01*
X055843Y031470D01*
X055607Y031470D01*
X055607Y031548D02*
X055843Y031548D01*
X055843Y031626D02*
X055607Y031626D01*
X055607Y031704D02*
X055843Y031704D01*
X055843Y031782D02*
X055607Y031782D01*
D25*
X017100Y021690D03*
X016600Y021690D03*
X016100Y021690D03*
X015600Y021690D03*
X015100Y021690D03*
X014600Y021690D03*
X014100Y021690D03*
X013600Y021690D03*
X013100Y021690D03*
X012600Y021690D03*
X012600Y018010D03*
X013100Y018010D03*
X013600Y018010D03*
X014100Y018010D03*
X014600Y018010D03*
X015100Y018010D03*
X015600Y018010D03*
X016100Y018010D03*
X016600Y018010D03*
X017100Y018010D03*
X006725Y026510D03*
X006225Y026510D03*
X005725Y026510D03*
X005225Y026510D03*
X004725Y026510D03*
X004225Y026510D03*
X003725Y026510D03*
X003225Y026510D03*
X002725Y026510D03*
X002225Y026510D03*
X002225Y030190D03*
X002725Y030190D03*
X003225Y030190D03*
X003725Y030190D03*
X004225Y030190D03*
X004725Y030190D03*
X005225Y030190D03*
X005725Y030190D03*
X006225Y030190D03*
X006725Y030190D03*
D26*
X035097Y037414D03*
X036071Y037414D03*
X036879Y037414D03*
X037873Y037414D03*
X043347Y037414D03*
X044321Y037414D03*
X045129Y037414D03*
X046123Y037414D03*
D27*
X049451Y035100D03*
X049451Y034600D03*
X049451Y034100D03*
X049451Y033600D03*
X051499Y033600D03*
X051499Y034100D03*
X051499Y034600D03*
X051499Y035100D03*
D28*
X060475Y028225D03*
D29*
X057195Y028225D03*
X057195Y027555D03*
X057195Y026885D03*
X057195Y028895D03*
X057195Y029565D03*
D30*
X050575Y031100D03*
X049975Y031070D03*
X049375Y031100D03*
D31*
X049875Y031802D02*
X050075Y031802D01*
X049875Y031802D02*
X049875Y032638D01*
X050075Y032638D01*
X050075Y031802D01*
X050075Y032401D02*
X049875Y032401D01*
D32*
X052450Y032425D02*
X052450Y032725D01*
X052450Y032425D02*
X052000Y032425D01*
X052000Y032725D01*
X052450Y032725D01*
X052450Y032524D02*
X052000Y032524D01*
X052000Y032623D02*
X052450Y032623D01*
X052450Y032722D02*
X052000Y032722D01*
X052450Y032025D02*
X052450Y031725D01*
X052000Y031725D01*
X052000Y032025D01*
X052450Y032025D01*
X052450Y031824D02*
X052000Y031824D01*
X052000Y031923D02*
X052450Y031923D01*
X052450Y032022D02*
X052000Y032022D01*
X048350Y031075D02*
X048050Y031075D01*
X048350Y031075D02*
X048350Y030625D01*
X048050Y030625D01*
X048050Y031075D01*
X048050Y030724D02*
X048350Y030724D01*
X048350Y030823D02*
X048050Y030823D01*
X048050Y030922D02*
X048350Y030922D01*
X048350Y031021D02*
X048050Y031021D01*
X047650Y031075D02*
X047350Y031075D01*
X047650Y031075D02*
X047650Y030625D01*
X047350Y030625D01*
X047350Y031075D01*
X047350Y030724D02*
X047650Y030724D01*
X047650Y030823D02*
X047350Y030823D01*
X047350Y030922D02*
X047650Y030922D01*
X047650Y031021D02*
X047350Y031021D01*
X020125Y032725D02*
X020125Y033025D01*
X020575Y033025D01*
X020575Y032725D01*
X020125Y032725D01*
X020125Y032824D02*
X020575Y032824D01*
X020575Y032923D02*
X020125Y032923D01*
X020125Y033022D02*
X020575Y033022D01*
X020125Y033425D02*
X020125Y033725D01*
X020575Y033725D01*
X020575Y033425D01*
X020125Y033425D01*
X020125Y033524D02*
X020575Y033524D01*
X020575Y033623D02*
X020125Y033623D01*
X020125Y033722D02*
X020575Y033722D01*
D33*
X053975Y030148D03*
X053975Y026802D03*
D34*
X020860Y030440D03*
X020600Y030440D03*
X020340Y030440D03*
X020340Y031260D03*
X020600Y031260D03*
X020860Y031260D03*
D35*
X040475Y035042D03*
X040475Y035908D03*
M02*
