G75*
%MOIN*%
%OFA0B0*%
%FSLAX24Y24*%
%IPPOS*%
%LPD*%
%AMOC8*
5,1,8,0,0,1.08239X$1,22.5*
%
%ADD10C,0.0000*%
%ADD11C,0.1182*%
%ADD12R,0.0750X0.0500*%
%ADD13R,0.0500X0.0750*%
%ADD14OC8,0.0600*%
%ADD15C,0.0297*%
%ADD16C,0.0600*%
%ADD17R,0.0860X0.0300*%
%ADD18R,0.0300X0.0600*%
%ADD19R,0.0600X0.0600*%
%ADD20C,0.0600*%
%ADD21R,0.0470X0.0200*%
%ADD22R,0.0217X0.0630*%
%ADD23C,0.0880*%
%ADD24R,0.0595X0.0595*%
%ADD25C,0.0595*%
%ADD26C,0.0107*%
%ADD27R,0.0789X0.0513*%
%ADD28C,0.0789*%
%ADD29R,0.0880X0.0340*%
%ADD30R,0.1580X0.0830*%
%ADD31R,0.0830X0.1580*%
%ADD32R,0.1080X0.1280*%
%ADD33R,0.1280X0.1080*%
%ADD34R,0.0749X0.1734*%
%ADD35R,0.1080X0.0680*%
%ADD36C,0.0099*%
%ADD37C,0.0472*%
%ADD38C,0.0710*%
%ADD39OC8,0.0710*%
%ADD40R,0.0300X0.0860*%
%ADD41R,0.0395X0.1064*%
%ADD42C,0.0780*%
%ADD43C,0.0513*%
%ADD44C,0.0395*%
%ADD45R,0.0946X0.0316*%
%ADD46R,0.4178X0.4332*%
%ADD47R,0.0930X0.0500*%
%ADD48R,0.0395X0.0631*%
%ADD49C,0.0660*%
%ADD50R,0.0394X0.0630*%
%ADD51C,0.0120*%
%ADD52R,0.0820X0.0820*%
%ADD53C,0.0820*%
%ADD54C,0.0634*%
%ADD55OC8,0.0930*%
%ADD56C,0.0080*%
%ADD57R,0.2245X0.1655*%
%ADD58R,0.0220X0.0540*%
%ADD59R,0.0730X0.0730*%
%ADD60C,0.0730*%
%ADD61R,0.0316X0.0474*%
%ADD62C,0.0476*%
%ADD63C,0.0437*%
%ADD64C,0.0611*%
D10*
X000350Y001350D02*
X000350Y038720D01*
X000352Y038780D01*
X000357Y038841D01*
X000366Y038900D01*
X000379Y038959D01*
X000395Y039018D01*
X000415Y039075D01*
X000438Y039130D01*
X000465Y039185D01*
X000494Y039237D01*
X000527Y039288D01*
X000563Y039337D01*
X000601Y039383D01*
X000643Y039427D01*
X000687Y039469D01*
X000733Y039507D01*
X000782Y039543D01*
X000833Y039576D01*
X000885Y039605D01*
X000940Y039632D01*
X000995Y039655D01*
X001052Y039675D01*
X001111Y039691D01*
X001170Y039704D01*
X001229Y039713D01*
X001290Y039718D01*
X001350Y039720D01*
X062342Y039720D01*
X062402Y039718D01*
X062463Y039713D01*
X062522Y039704D01*
X062581Y039691D01*
X062640Y039675D01*
X062697Y039655D01*
X062752Y039632D01*
X062807Y039605D01*
X062859Y039576D01*
X062910Y039543D01*
X062959Y039507D01*
X063005Y039469D01*
X063049Y039427D01*
X063091Y039383D01*
X063129Y039337D01*
X063165Y039288D01*
X063198Y039237D01*
X063227Y039185D01*
X063254Y039130D01*
X063277Y039075D01*
X063297Y039018D01*
X063313Y038959D01*
X063326Y038900D01*
X063335Y038841D01*
X063340Y038780D01*
X063342Y038720D01*
X063342Y001350D01*
X063340Y001290D01*
X063335Y001229D01*
X063326Y001170D01*
X063313Y001111D01*
X063297Y001052D01*
X063277Y000995D01*
X063254Y000940D01*
X063227Y000885D01*
X063198Y000833D01*
X063165Y000782D01*
X063129Y000733D01*
X063091Y000687D01*
X063049Y000643D01*
X063005Y000601D01*
X062959Y000563D01*
X062910Y000527D01*
X062859Y000494D01*
X062807Y000465D01*
X062752Y000438D01*
X062697Y000415D01*
X062640Y000395D01*
X062581Y000379D01*
X062522Y000366D01*
X062463Y000357D01*
X062402Y000352D01*
X062342Y000350D01*
X001350Y000350D01*
X001290Y000352D01*
X001229Y000357D01*
X001170Y000366D01*
X001111Y000379D01*
X001052Y000395D01*
X000995Y000415D01*
X000940Y000438D01*
X000885Y000465D01*
X000833Y000494D01*
X000782Y000527D01*
X000733Y000563D01*
X000687Y000601D01*
X000643Y000643D01*
X000601Y000687D01*
X000563Y000733D01*
X000527Y000782D01*
X000494Y000833D01*
X000465Y000885D01*
X000438Y000940D01*
X000415Y000995D01*
X000395Y001052D01*
X000379Y001111D01*
X000366Y001170D01*
X000357Y001229D01*
X000352Y001290D01*
X000350Y001350D01*
X001799Y002350D02*
X001801Y002397D01*
X001807Y002443D01*
X001817Y002489D01*
X001830Y002534D01*
X001848Y002577D01*
X001869Y002619D01*
X001893Y002659D01*
X001921Y002696D01*
X001952Y002731D01*
X001986Y002764D01*
X002022Y002793D01*
X002061Y002819D01*
X002102Y002842D01*
X002145Y002861D01*
X002189Y002877D01*
X002234Y002889D01*
X002280Y002897D01*
X002327Y002901D01*
X002373Y002901D01*
X002420Y002897D01*
X002466Y002889D01*
X002511Y002877D01*
X002555Y002861D01*
X002598Y002842D01*
X002639Y002819D01*
X002678Y002793D01*
X002714Y002764D01*
X002748Y002731D01*
X002779Y002696D01*
X002807Y002659D01*
X002831Y002619D01*
X002852Y002577D01*
X002870Y002534D01*
X002883Y002489D01*
X002893Y002443D01*
X002899Y002397D01*
X002901Y002350D01*
X002899Y002303D01*
X002893Y002257D01*
X002883Y002211D01*
X002870Y002166D01*
X002852Y002123D01*
X002831Y002081D01*
X002807Y002041D01*
X002779Y002004D01*
X002748Y001969D01*
X002714Y001936D01*
X002678Y001907D01*
X002639Y001881D01*
X002598Y001858D01*
X002555Y001839D01*
X002511Y001823D01*
X002466Y001811D01*
X002420Y001803D01*
X002373Y001799D01*
X002327Y001799D01*
X002280Y001803D01*
X002234Y001811D01*
X002189Y001823D01*
X002145Y001839D01*
X002102Y001858D01*
X002061Y001881D01*
X002022Y001907D01*
X001986Y001936D01*
X001952Y001969D01*
X001921Y002004D01*
X001893Y002041D01*
X001869Y002081D01*
X001848Y002123D01*
X001830Y002166D01*
X001817Y002211D01*
X001807Y002257D01*
X001801Y002303D01*
X001799Y002350D01*
X001799Y037850D02*
X001801Y037897D01*
X001807Y037943D01*
X001817Y037989D01*
X001830Y038034D01*
X001848Y038077D01*
X001869Y038119D01*
X001893Y038159D01*
X001921Y038196D01*
X001952Y038231D01*
X001986Y038264D01*
X002022Y038293D01*
X002061Y038319D01*
X002102Y038342D01*
X002145Y038361D01*
X002189Y038377D01*
X002234Y038389D01*
X002280Y038397D01*
X002327Y038401D01*
X002373Y038401D01*
X002420Y038397D01*
X002466Y038389D01*
X002511Y038377D01*
X002555Y038361D01*
X002598Y038342D01*
X002639Y038319D01*
X002678Y038293D01*
X002714Y038264D01*
X002748Y038231D01*
X002779Y038196D01*
X002807Y038159D01*
X002831Y038119D01*
X002852Y038077D01*
X002870Y038034D01*
X002883Y037989D01*
X002893Y037943D01*
X002899Y037897D01*
X002901Y037850D01*
X002899Y037803D01*
X002893Y037757D01*
X002883Y037711D01*
X002870Y037666D01*
X002852Y037623D01*
X002831Y037581D01*
X002807Y037541D01*
X002779Y037504D01*
X002748Y037469D01*
X002714Y037436D01*
X002678Y037407D01*
X002639Y037381D01*
X002598Y037358D01*
X002555Y037339D01*
X002511Y037323D01*
X002466Y037311D01*
X002420Y037303D01*
X002373Y037299D01*
X002327Y037299D01*
X002280Y037303D01*
X002234Y037311D01*
X002189Y037323D01*
X002145Y037339D01*
X002102Y037358D01*
X002061Y037381D01*
X002022Y037407D01*
X001986Y037436D01*
X001952Y037469D01*
X001921Y037504D01*
X001893Y037541D01*
X001869Y037581D01*
X001848Y037623D01*
X001830Y037666D01*
X001817Y037711D01*
X001807Y037757D01*
X001801Y037803D01*
X001799Y037850D01*
X034015Y038209D02*
X034017Y038234D01*
X034023Y038258D01*
X034032Y038280D01*
X034045Y038301D01*
X034061Y038320D01*
X034080Y038336D01*
X034101Y038349D01*
X034123Y038358D01*
X034147Y038364D01*
X034172Y038366D01*
X034197Y038364D01*
X034221Y038358D01*
X034243Y038349D01*
X034264Y038336D01*
X034283Y038320D01*
X034299Y038301D01*
X034312Y038280D01*
X034321Y038258D01*
X034327Y038234D01*
X034329Y038209D01*
X034327Y038184D01*
X034321Y038160D01*
X034312Y038138D01*
X034299Y038117D01*
X034283Y038098D01*
X034264Y038082D01*
X034243Y038069D01*
X034221Y038060D01*
X034197Y038054D01*
X034172Y038052D01*
X034147Y038054D01*
X034123Y038060D01*
X034101Y038069D01*
X034080Y038082D01*
X034061Y038098D01*
X034045Y038117D01*
X034032Y038138D01*
X034023Y038160D01*
X034017Y038184D01*
X034015Y038209D01*
X034015Y038367D02*
X034017Y038392D01*
X034023Y038416D01*
X034032Y038438D01*
X034045Y038459D01*
X034061Y038478D01*
X034080Y038494D01*
X034101Y038507D01*
X034123Y038516D01*
X034147Y038522D01*
X034172Y038524D01*
X034197Y038522D01*
X034221Y038516D01*
X034243Y038507D01*
X034264Y038494D01*
X034283Y038478D01*
X034299Y038459D01*
X034312Y038438D01*
X034321Y038416D01*
X034327Y038392D01*
X034329Y038367D01*
X034327Y038342D01*
X034321Y038318D01*
X034312Y038296D01*
X034299Y038275D01*
X034283Y038256D01*
X034264Y038240D01*
X034243Y038227D01*
X034221Y038218D01*
X034197Y038212D01*
X034172Y038210D01*
X034147Y038212D01*
X034123Y038218D01*
X034101Y038227D01*
X034080Y038240D01*
X034061Y038256D01*
X034045Y038275D01*
X034032Y038296D01*
X034023Y038318D01*
X034017Y038342D01*
X034015Y038367D01*
X034015Y038682D02*
X034017Y038707D01*
X034023Y038731D01*
X034032Y038753D01*
X034045Y038774D01*
X034061Y038793D01*
X034080Y038809D01*
X034101Y038822D01*
X034123Y038831D01*
X034147Y038837D01*
X034172Y038839D01*
X034197Y038837D01*
X034221Y038831D01*
X034243Y038822D01*
X034264Y038809D01*
X034283Y038793D01*
X034299Y038774D01*
X034312Y038753D01*
X034321Y038731D01*
X034327Y038707D01*
X034329Y038682D01*
X034327Y038657D01*
X034321Y038633D01*
X034312Y038611D01*
X034299Y038590D01*
X034283Y038571D01*
X034264Y038555D01*
X034243Y038542D01*
X034221Y038533D01*
X034197Y038527D01*
X034172Y038525D01*
X034147Y038527D01*
X034123Y038533D01*
X034101Y038542D01*
X034080Y038555D01*
X034061Y038571D01*
X034045Y038590D01*
X034032Y038611D01*
X034023Y038633D01*
X034017Y038657D01*
X034015Y038682D01*
X034015Y038839D02*
X034017Y038864D01*
X034023Y038888D01*
X034032Y038910D01*
X034045Y038931D01*
X034061Y038950D01*
X034080Y038966D01*
X034101Y038979D01*
X034123Y038988D01*
X034147Y038994D01*
X034172Y038996D01*
X034197Y038994D01*
X034221Y038988D01*
X034243Y038979D01*
X034264Y038966D01*
X034283Y038950D01*
X034299Y038931D01*
X034312Y038910D01*
X034321Y038888D01*
X034327Y038864D01*
X034329Y038839D01*
X034327Y038814D01*
X034321Y038790D01*
X034312Y038768D01*
X034299Y038747D01*
X034283Y038728D01*
X034264Y038712D01*
X034243Y038699D01*
X034221Y038690D01*
X034197Y038684D01*
X034172Y038682D01*
X034147Y038684D01*
X034123Y038690D01*
X034101Y038699D01*
X034080Y038712D01*
X034061Y038728D01*
X034045Y038747D01*
X034032Y038768D01*
X034023Y038790D01*
X034017Y038814D01*
X034015Y038839D01*
X035372Y038497D02*
X035374Y038526D01*
X035380Y038554D01*
X035389Y038582D01*
X035402Y038608D01*
X035419Y038631D01*
X035438Y038653D01*
X035460Y038672D01*
X035485Y038687D01*
X035511Y038700D01*
X035539Y038708D01*
X035567Y038713D01*
X035596Y038714D01*
X035625Y038711D01*
X035653Y038704D01*
X035680Y038694D01*
X035706Y038680D01*
X035729Y038663D01*
X035750Y038643D01*
X035768Y038620D01*
X035783Y038595D01*
X035794Y038568D01*
X035802Y038540D01*
X035806Y038511D01*
X035806Y038483D01*
X035802Y038454D01*
X035794Y038426D01*
X035783Y038399D01*
X035768Y038374D01*
X035750Y038351D01*
X035729Y038331D01*
X035706Y038314D01*
X035680Y038300D01*
X035653Y038290D01*
X035625Y038283D01*
X035596Y038280D01*
X035567Y038281D01*
X035539Y038286D01*
X035511Y038294D01*
X035485Y038307D01*
X035460Y038322D01*
X035438Y038341D01*
X035419Y038363D01*
X035402Y038386D01*
X035389Y038412D01*
X035380Y038440D01*
X035374Y038468D01*
X035372Y038497D01*
X037144Y038497D02*
X037146Y038526D01*
X037152Y038554D01*
X037161Y038582D01*
X037174Y038608D01*
X037191Y038631D01*
X037210Y038653D01*
X037232Y038672D01*
X037257Y038687D01*
X037283Y038700D01*
X037311Y038708D01*
X037339Y038713D01*
X037368Y038714D01*
X037397Y038711D01*
X037425Y038704D01*
X037452Y038694D01*
X037478Y038680D01*
X037501Y038663D01*
X037522Y038643D01*
X037540Y038620D01*
X037555Y038595D01*
X037566Y038568D01*
X037574Y038540D01*
X037578Y038511D01*
X037578Y038483D01*
X037574Y038454D01*
X037566Y038426D01*
X037555Y038399D01*
X037540Y038374D01*
X037522Y038351D01*
X037501Y038331D01*
X037478Y038314D01*
X037452Y038300D01*
X037425Y038290D01*
X037397Y038283D01*
X037368Y038280D01*
X037339Y038281D01*
X037311Y038286D01*
X037283Y038294D01*
X037257Y038307D01*
X037232Y038322D01*
X037210Y038341D01*
X037191Y038363D01*
X037174Y038386D01*
X037161Y038412D01*
X037152Y038440D01*
X037146Y038468D01*
X037144Y038497D01*
X038621Y038367D02*
X038623Y038392D01*
X038629Y038416D01*
X038638Y038438D01*
X038651Y038459D01*
X038667Y038478D01*
X038686Y038494D01*
X038707Y038507D01*
X038729Y038516D01*
X038753Y038522D01*
X038778Y038524D01*
X038803Y038522D01*
X038827Y038516D01*
X038849Y038507D01*
X038870Y038494D01*
X038889Y038478D01*
X038905Y038459D01*
X038918Y038438D01*
X038927Y038416D01*
X038933Y038392D01*
X038935Y038367D01*
X038933Y038342D01*
X038927Y038318D01*
X038918Y038296D01*
X038905Y038275D01*
X038889Y038256D01*
X038870Y038240D01*
X038849Y038227D01*
X038827Y038218D01*
X038803Y038212D01*
X038778Y038210D01*
X038753Y038212D01*
X038729Y038218D01*
X038707Y038227D01*
X038686Y038240D01*
X038667Y038256D01*
X038651Y038275D01*
X038638Y038296D01*
X038629Y038318D01*
X038623Y038342D01*
X038621Y038367D01*
X038621Y038209D02*
X038623Y038234D01*
X038629Y038258D01*
X038638Y038280D01*
X038651Y038301D01*
X038667Y038320D01*
X038686Y038336D01*
X038707Y038349D01*
X038729Y038358D01*
X038753Y038364D01*
X038778Y038366D01*
X038803Y038364D01*
X038827Y038358D01*
X038849Y038349D01*
X038870Y038336D01*
X038889Y038320D01*
X038905Y038301D01*
X038918Y038280D01*
X038927Y038258D01*
X038933Y038234D01*
X038935Y038209D01*
X038933Y038184D01*
X038927Y038160D01*
X038918Y038138D01*
X038905Y038117D01*
X038889Y038098D01*
X038870Y038082D01*
X038849Y038069D01*
X038827Y038060D01*
X038803Y038054D01*
X038778Y038052D01*
X038753Y038054D01*
X038729Y038060D01*
X038707Y038069D01*
X038686Y038082D01*
X038667Y038098D01*
X038651Y038117D01*
X038638Y038138D01*
X038629Y038160D01*
X038623Y038184D01*
X038621Y038209D01*
X038621Y038682D02*
X038623Y038707D01*
X038629Y038731D01*
X038638Y038753D01*
X038651Y038774D01*
X038667Y038793D01*
X038686Y038809D01*
X038707Y038822D01*
X038729Y038831D01*
X038753Y038837D01*
X038778Y038839D01*
X038803Y038837D01*
X038827Y038831D01*
X038849Y038822D01*
X038870Y038809D01*
X038889Y038793D01*
X038905Y038774D01*
X038918Y038753D01*
X038927Y038731D01*
X038933Y038707D01*
X038935Y038682D01*
X038933Y038657D01*
X038927Y038633D01*
X038918Y038611D01*
X038905Y038590D01*
X038889Y038571D01*
X038870Y038555D01*
X038849Y038542D01*
X038827Y038533D01*
X038803Y038527D01*
X038778Y038525D01*
X038753Y038527D01*
X038729Y038533D01*
X038707Y038542D01*
X038686Y038555D01*
X038667Y038571D01*
X038651Y038590D01*
X038638Y038611D01*
X038629Y038633D01*
X038623Y038657D01*
X038621Y038682D01*
X038621Y038839D02*
X038623Y038864D01*
X038629Y038888D01*
X038638Y038910D01*
X038651Y038931D01*
X038667Y038950D01*
X038686Y038966D01*
X038707Y038979D01*
X038729Y038988D01*
X038753Y038994D01*
X038778Y038996D01*
X038803Y038994D01*
X038827Y038988D01*
X038849Y038979D01*
X038870Y038966D01*
X038889Y038950D01*
X038905Y038931D01*
X038918Y038910D01*
X038927Y038888D01*
X038933Y038864D01*
X038935Y038839D01*
X038933Y038814D01*
X038927Y038790D01*
X038918Y038768D01*
X038905Y038747D01*
X038889Y038728D01*
X038870Y038712D01*
X038849Y038699D01*
X038827Y038690D01*
X038803Y038684D01*
X038778Y038682D01*
X038753Y038684D01*
X038729Y038690D01*
X038707Y038699D01*
X038686Y038712D01*
X038667Y038728D01*
X038651Y038747D01*
X038638Y038768D01*
X038629Y038790D01*
X038623Y038814D01*
X038621Y038839D01*
X042265Y038839D02*
X042267Y038864D01*
X042273Y038888D01*
X042282Y038910D01*
X042295Y038931D01*
X042311Y038950D01*
X042330Y038966D01*
X042351Y038979D01*
X042373Y038988D01*
X042397Y038994D01*
X042422Y038996D01*
X042447Y038994D01*
X042471Y038988D01*
X042493Y038979D01*
X042514Y038966D01*
X042533Y038950D01*
X042549Y038931D01*
X042562Y038910D01*
X042571Y038888D01*
X042577Y038864D01*
X042579Y038839D01*
X042577Y038814D01*
X042571Y038790D01*
X042562Y038768D01*
X042549Y038747D01*
X042533Y038728D01*
X042514Y038712D01*
X042493Y038699D01*
X042471Y038690D01*
X042447Y038684D01*
X042422Y038682D01*
X042397Y038684D01*
X042373Y038690D01*
X042351Y038699D01*
X042330Y038712D01*
X042311Y038728D01*
X042295Y038747D01*
X042282Y038768D01*
X042273Y038790D01*
X042267Y038814D01*
X042265Y038839D01*
X042265Y038682D02*
X042267Y038707D01*
X042273Y038731D01*
X042282Y038753D01*
X042295Y038774D01*
X042311Y038793D01*
X042330Y038809D01*
X042351Y038822D01*
X042373Y038831D01*
X042397Y038837D01*
X042422Y038839D01*
X042447Y038837D01*
X042471Y038831D01*
X042493Y038822D01*
X042514Y038809D01*
X042533Y038793D01*
X042549Y038774D01*
X042562Y038753D01*
X042571Y038731D01*
X042577Y038707D01*
X042579Y038682D01*
X042577Y038657D01*
X042571Y038633D01*
X042562Y038611D01*
X042549Y038590D01*
X042533Y038571D01*
X042514Y038555D01*
X042493Y038542D01*
X042471Y038533D01*
X042447Y038527D01*
X042422Y038525D01*
X042397Y038527D01*
X042373Y038533D01*
X042351Y038542D01*
X042330Y038555D01*
X042311Y038571D01*
X042295Y038590D01*
X042282Y038611D01*
X042273Y038633D01*
X042267Y038657D01*
X042265Y038682D01*
X042265Y038367D02*
X042267Y038392D01*
X042273Y038416D01*
X042282Y038438D01*
X042295Y038459D01*
X042311Y038478D01*
X042330Y038494D01*
X042351Y038507D01*
X042373Y038516D01*
X042397Y038522D01*
X042422Y038524D01*
X042447Y038522D01*
X042471Y038516D01*
X042493Y038507D01*
X042514Y038494D01*
X042533Y038478D01*
X042549Y038459D01*
X042562Y038438D01*
X042571Y038416D01*
X042577Y038392D01*
X042579Y038367D01*
X042577Y038342D01*
X042571Y038318D01*
X042562Y038296D01*
X042549Y038275D01*
X042533Y038256D01*
X042514Y038240D01*
X042493Y038227D01*
X042471Y038218D01*
X042447Y038212D01*
X042422Y038210D01*
X042397Y038212D01*
X042373Y038218D01*
X042351Y038227D01*
X042330Y038240D01*
X042311Y038256D01*
X042295Y038275D01*
X042282Y038296D01*
X042273Y038318D01*
X042267Y038342D01*
X042265Y038367D01*
X042265Y038209D02*
X042267Y038234D01*
X042273Y038258D01*
X042282Y038280D01*
X042295Y038301D01*
X042311Y038320D01*
X042330Y038336D01*
X042351Y038349D01*
X042373Y038358D01*
X042397Y038364D01*
X042422Y038366D01*
X042447Y038364D01*
X042471Y038358D01*
X042493Y038349D01*
X042514Y038336D01*
X042533Y038320D01*
X042549Y038301D01*
X042562Y038280D01*
X042571Y038258D01*
X042577Y038234D01*
X042579Y038209D01*
X042577Y038184D01*
X042571Y038160D01*
X042562Y038138D01*
X042549Y038117D01*
X042533Y038098D01*
X042514Y038082D01*
X042493Y038069D01*
X042471Y038060D01*
X042447Y038054D01*
X042422Y038052D01*
X042397Y038054D01*
X042373Y038060D01*
X042351Y038069D01*
X042330Y038082D01*
X042311Y038098D01*
X042295Y038117D01*
X042282Y038138D01*
X042273Y038160D01*
X042267Y038184D01*
X042265Y038209D01*
X043622Y038497D02*
X043624Y038526D01*
X043630Y038554D01*
X043639Y038582D01*
X043652Y038608D01*
X043669Y038631D01*
X043688Y038653D01*
X043710Y038672D01*
X043735Y038687D01*
X043761Y038700D01*
X043789Y038708D01*
X043817Y038713D01*
X043846Y038714D01*
X043875Y038711D01*
X043903Y038704D01*
X043930Y038694D01*
X043956Y038680D01*
X043979Y038663D01*
X044000Y038643D01*
X044018Y038620D01*
X044033Y038595D01*
X044044Y038568D01*
X044052Y038540D01*
X044056Y038511D01*
X044056Y038483D01*
X044052Y038454D01*
X044044Y038426D01*
X044033Y038399D01*
X044018Y038374D01*
X044000Y038351D01*
X043979Y038331D01*
X043956Y038314D01*
X043930Y038300D01*
X043903Y038290D01*
X043875Y038283D01*
X043846Y038280D01*
X043817Y038281D01*
X043789Y038286D01*
X043761Y038294D01*
X043735Y038307D01*
X043710Y038322D01*
X043688Y038341D01*
X043669Y038363D01*
X043652Y038386D01*
X043639Y038412D01*
X043630Y038440D01*
X043624Y038468D01*
X043622Y038497D01*
X045394Y038497D02*
X045396Y038526D01*
X045402Y038554D01*
X045411Y038582D01*
X045424Y038608D01*
X045441Y038631D01*
X045460Y038653D01*
X045482Y038672D01*
X045507Y038687D01*
X045533Y038700D01*
X045561Y038708D01*
X045589Y038713D01*
X045618Y038714D01*
X045647Y038711D01*
X045675Y038704D01*
X045702Y038694D01*
X045728Y038680D01*
X045751Y038663D01*
X045772Y038643D01*
X045790Y038620D01*
X045805Y038595D01*
X045816Y038568D01*
X045824Y038540D01*
X045828Y038511D01*
X045828Y038483D01*
X045824Y038454D01*
X045816Y038426D01*
X045805Y038399D01*
X045790Y038374D01*
X045772Y038351D01*
X045751Y038331D01*
X045728Y038314D01*
X045702Y038300D01*
X045675Y038290D01*
X045647Y038283D01*
X045618Y038280D01*
X045589Y038281D01*
X045561Y038286D01*
X045533Y038294D01*
X045507Y038307D01*
X045482Y038322D01*
X045460Y038341D01*
X045441Y038363D01*
X045424Y038386D01*
X045411Y038412D01*
X045402Y038440D01*
X045396Y038468D01*
X045394Y038497D01*
X046871Y038367D02*
X046873Y038392D01*
X046879Y038416D01*
X046888Y038438D01*
X046901Y038459D01*
X046917Y038478D01*
X046936Y038494D01*
X046957Y038507D01*
X046979Y038516D01*
X047003Y038522D01*
X047028Y038524D01*
X047053Y038522D01*
X047077Y038516D01*
X047099Y038507D01*
X047120Y038494D01*
X047139Y038478D01*
X047155Y038459D01*
X047168Y038438D01*
X047177Y038416D01*
X047183Y038392D01*
X047185Y038367D01*
X047183Y038342D01*
X047177Y038318D01*
X047168Y038296D01*
X047155Y038275D01*
X047139Y038256D01*
X047120Y038240D01*
X047099Y038227D01*
X047077Y038218D01*
X047053Y038212D01*
X047028Y038210D01*
X047003Y038212D01*
X046979Y038218D01*
X046957Y038227D01*
X046936Y038240D01*
X046917Y038256D01*
X046901Y038275D01*
X046888Y038296D01*
X046879Y038318D01*
X046873Y038342D01*
X046871Y038367D01*
X046871Y038209D02*
X046873Y038234D01*
X046879Y038258D01*
X046888Y038280D01*
X046901Y038301D01*
X046917Y038320D01*
X046936Y038336D01*
X046957Y038349D01*
X046979Y038358D01*
X047003Y038364D01*
X047028Y038366D01*
X047053Y038364D01*
X047077Y038358D01*
X047099Y038349D01*
X047120Y038336D01*
X047139Y038320D01*
X047155Y038301D01*
X047168Y038280D01*
X047177Y038258D01*
X047183Y038234D01*
X047185Y038209D01*
X047183Y038184D01*
X047177Y038160D01*
X047168Y038138D01*
X047155Y038117D01*
X047139Y038098D01*
X047120Y038082D01*
X047099Y038069D01*
X047077Y038060D01*
X047053Y038054D01*
X047028Y038052D01*
X047003Y038054D01*
X046979Y038060D01*
X046957Y038069D01*
X046936Y038082D01*
X046917Y038098D01*
X046901Y038117D01*
X046888Y038138D01*
X046879Y038160D01*
X046873Y038184D01*
X046871Y038209D01*
X046871Y038682D02*
X046873Y038707D01*
X046879Y038731D01*
X046888Y038753D01*
X046901Y038774D01*
X046917Y038793D01*
X046936Y038809D01*
X046957Y038822D01*
X046979Y038831D01*
X047003Y038837D01*
X047028Y038839D01*
X047053Y038837D01*
X047077Y038831D01*
X047099Y038822D01*
X047120Y038809D01*
X047139Y038793D01*
X047155Y038774D01*
X047168Y038753D01*
X047177Y038731D01*
X047183Y038707D01*
X047185Y038682D01*
X047183Y038657D01*
X047177Y038633D01*
X047168Y038611D01*
X047155Y038590D01*
X047139Y038571D01*
X047120Y038555D01*
X047099Y038542D01*
X047077Y038533D01*
X047053Y038527D01*
X047028Y038525D01*
X047003Y038527D01*
X046979Y038533D01*
X046957Y038542D01*
X046936Y038555D01*
X046917Y038571D01*
X046901Y038590D01*
X046888Y038611D01*
X046879Y038633D01*
X046873Y038657D01*
X046871Y038682D01*
X046871Y038839D02*
X046873Y038864D01*
X046879Y038888D01*
X046888Y038910D01*
X046901Y038931D01*
X046917Y038950D01*
X046936Y038966D01*
X046957Y038979D01*
X046979Y038988D01*
X047003Y038994D01*
X047028Y038996D01*
X047053Y038994D01*
X047077Y038988D01*
X047099Y038979D01*
X047120Y038966D01*
X047139Y038950D01*
X047155Y038931D01*
X047168Y038910D01*
X047177Y038888D01*
X047183Y038864D01*
X047185Y038839D01*
X047183Y038814D01*
X047177Y038790D01*
X047168Y038768D01*
X047155Y038747D01*
X047139Y038728D01*
X047120Y038712D01*
X047099Y038699D01*
X047077Y038690D01*
X047053Y038684D01*
X047028Y038682D01*
X047003Y038684D01*
X046979Y038690D01*
X046957Y038699D01*
X046936Y038712D01*
X046917Y038728D01*
X046901Y038747D01*
X046888Y038768D01*
X046879Y038790D01*
X046873Y038814D01*
X046871Y038839D01*
X052341Y030896D02*
X055609Y030896D01*
X051554Y030109D02*
X051554Y026841D01*
X052341Y026054D02*
X055609Y026054D01*
X060799Y037850D02*
X060801Y037897D01*
X060807Y037943D01*
X060817Y037989D01*
X060830Y038034D01*
X060848Y038077D01*
X060869Y038119D01*
X060893Y038159D01*
X060921Y038196D01*
X060952Y038231D01*
X060986Y038264D01*
X061022Y038293D01*
X061061Y038319D01*
X061102Y038342D01*
X061145Y038361D01*
X061189Y038377D01*
X061234Y038389D01*
X061280Y038397D01*
X061327Y038401D01*
X061373Y038401D01*
X061420Y038397D01*
X061466Y038389D01*
X061511Y038377D01*
X061555Y038361D01*
X061598Y038342D01*
X061639Y038319D01*
X061678Y038293D01*
X061714Y038264D01*
X061748Y038231D01*
X061779Y038196D01*
X061807Y038159D01*
X061831Y038119D01*
X061852Y038077D01*
X061870Y038034D01*
X061883Y037989D01*
X061893Y037943D01*
X061899Y037897D01*
X061901Y037850D01*
X061899Y037803D01*
X061893Y037757D01*
X061883Y037711D01*
X061870Y037666D01*
X061852Y037623D01*
X061831Y037581D01*
X061807Y037541D01*
X061779Y037504D01*
X061748Y037469D01*
X061714Y037436D01*
X061678Y037407D01*
X061639Y037381D01*
X061598Y037358D01*
X061555Y037339D01*
X061511Y037323D01*
X061466Y037311D01*
X061420Y037303D01*
X061373Y037299D01*
X061327Y037299D01*
X061280Y037303D01*
X061234Y037311D01*
X061189Y037323D01*
X061145Y037339D01*
X061102Y037358D01*
X061061Y037381D01*
X061022Y037407D01*
X060986Y037436D01*
X060952Y037469D01*
X060921Y037504D01*
X060893Y037541D01*
X060869Y037581D01*
X060848Y037623D01*
X060830Y037666D01*
X060817Y037711D01*
X060807Y037757D01*
X060801Y037803D01*
X060799Y037850D01*
X060799Y002350D02*
X060801Y002397D01*
X060807Y002443D01*
X060817Y002489D01*
X060830Y002534D01*
X060848Y002577D01*
X060869Y002619D01*
X060893Y002659D01*
X060921Y002696D01*
X060952Y002731D01*
X060986Y002764D01*
X061022Y002793D01*
X061061Y002819D01*
X061102Y002842D01*
X061145Y002861D01*
X061189Y002877D01*
X061234Y002889D01*
X061280Y002897D01*
X061327Y002901D01*
X061373Y002901D01*
X061420Y002897D01*
X061466Y002889D01*
X061511Y002877D01*
X061555Y002861D01*
X061598Y002842D01*
X061639Y002819D01*
X061678Y002793D01*
X061714Y002764D01*
X061748Y002731D01*
X061779Y002696D01*
X061807Y002659D01*
X061831Y002619D01*
X061852Y002577D01*
X061870Y002534D01*
X061883Y002489D01*
X061893Y002443D01*
X061899Y002397D01*
X061901Y002350D01*
X061899Y002303D01*
X061893Y002257D01*
X061883Y002211D01*
X061870Y002166D01*
X061852Y002123D01*
X061831Y002081D01*
X061807Y002041D01*
X061779Y002004D01*
X061748Y001969D01*
X061714Y001936D01*
X061678Y001907D01*
X061639Y001881D01*
X061598Y001858D01*
X061555Y001839D01*
X061511Y001823D01*
X061466Y001811D01*
X061420Y001803D01*
X061373Y001799D01*
X061327Y001799D01*
X061280Y001803D01*
X061234Y001811D01*
X061189Y001823D01*
X061145Y001839D01*
X061102Y001858D01*
X061061Y001881D01*
X061022Y001907D01*
X060986Y001936D01*
X060952Y001969D01*
X060921Y002004D01*
X060893Y002041D01*
X060869Y002081D01*
X060848Y002123D01*
X060830Y002166D01*
X060817Y002211D01*
X060807Y002257D01*
X060801Y002303D01*
X060799Y002350D01*
D11*
X061350Y002350D03*
X061350Y037850D03*
X002350Y037850D03*
X002350Y002350D03*
D12*
X055100Y034100D03*
X056350Y034100D03*
D13*
X057225Y033850D03*
X057225Y032600D03*
D14*
X027850Y018600D03*
X026850Y018600D03*
X026850Y017600D03*
X027850Y017600D03*
X027850Y016600D03*
X027850Y015600D03*
X026850Y015600D03*
X026850Y014600D03*
X025850Y014600D03*
X024850Y014600D03*
X024850Y015600D03*
X025850Y015600D03*
X023850Y015600D03*
X023850Y014600D03*
X022850Y014600D03*
X022850Y015600D03*
X021850Y015600D03*
X021850Y016600D03*
X022850Y016600D03*
X022850Y017600D03*
X021850Y017600D03*
X021850Y018600D03*
X022850Y018600D03*
X022850Y019600D03*
X023850Y019600D03*
X023850Y018600D03*
X024850Y018600D03*
X025850Y018600D03*
X025850Y019600D03*
X024850Y019600D03*
X026850Y019600D03*
X017850Y025350D03*
X017850Y026350D03*
X018850Y026350D03*
X018850Y027350D03*
X017850Y027350D03*
X016850Y026350D03*
X016850Y025350D03*
X015850Y025350D03*
X014850Y025350D03*
X014850Y026350D03*
X015850Y026350D03*
X013850Y026350D03*
X012850Y026350D03*
X012850Y025350D03*
X013850Y025350D03*
X011850Y025350D03*
X010850Y025350D03*
X010850Y026350D03*
X011850Y026350D03*
X009850Y026350D03*
X009850Y025350D03*
X008850Y026350D03*
X008850Y027350D03*
X009850Y027350D03*
X009850Y028350D03*
X009850Y029350D03*
X009850Y030350D03*
X009850Y031350D03*
X009850Y032350D03*
X008850Y032350D03*
X008850Y031350D03*
X008850Y030350D03*
X008850Y029350D03*
X008850Y028350D03*
X008850Y033350D03*
X008850Y034350D03*
X009850Y034350D03*
X009850Y033350D03*
X010850Y034350D03*
X011850Y034350D03*
X011850Y035350D03*
X010850Y035350D03*
X009850Y035350D03*
X012850Y035350D03*
X013850Y035350D03*
X013850Y034350D03*
X012850Y034350D03*
X014850Y034350D03*
X015850Y034350D03*
X015850Y035350D03*
X014850Y035350D03*
X016850Y035350D03*
X016850Y034350D03*
X017850Y034350D03*
X018850Y034350D03*
X018850Y033350D03*
X017850Y033350D03*
X017850Y032350D03*
X018850Y032350D03*
X018850Y031350D03*
X017850Y031350D03*
X017850Y030350D03*
X018850Y030350D03*
X018850Y029350D03*
X017850Y029350D03*
X017850Y028350D03*
X018850Y028350D03*
X017850Y035350D03*
D15*
X009532Y022293D02*
X009532Y022293D01*
X009532Y021879D01*
X009532Y021879D01*
X009532Y022293D01*
X009532Y022175D02*
X009532Y022175D01*
X009217Y022293D02*
X009217Y022293D01*
X009217Y021879D01*
X009217Y021879D01*
X009217Y022293D01*
X009217Y022175D02*
X009217Y022175D01*
X008902Y022293D02*
X008902Y022293D01*
X008902Y021879D01*
X008902Y021879D01*
X008902Y022293D01*
X008902Y022175D02*
X008902Y022175D01*
X008587Y022293D02*
X008587Y022293D01*
X008587Y021879D01*
X008587Y021879D01*
X008587Y022293D01*
X008587Y022175D02*
X008587Y022175D01*
X008272Y022293D02*
X008272Y022293D01*
X008272Y021879D01*
X008272Y021879D01*
X008272Y022293D01*
X008272Y022175D02*
X008272Y022175D01*
X007957Y022293D02*
X007957Y022293D01*
X007957Y021879D01*
X007957Y021879D01*
X007957Y022293D01*
X007957Y022175D02*
X007957Y022175D01*
X007642Y022293D02*
X007642Y022293D01*
X007642Y021879D01*
X007642Y021879D01*
X007642Y022293D01*
X007642Y022175D02*
X007642Y022175D01*
X007327Y022293D02*
X007327Y022293D01*
X007327Y021879D01*
X007327Y021879D01*
X007327Y022293D01*
X007327Y022175D02*
X007327Y022175D01*
X007012Y022293D02*
X007012Y022293D01*
X007012Y021879D01*
X007012Y021879D01*
X007012Y022293D01*
X007012Y022175D02*
X007012Y022175D01*
X006697Y022293D02*
X006697Y022293D01*
X006697Y021879D01*
X006697Y021879D01*
X006697Y022293D01*
X006697Y022175D02*
X006697Y022175D01*
X006382Y022293D02*
X006382Y022293D01*
X006382Y021879D01*
X006382Y021879D01*
X006382Y022293D01*
X006382Y022175D02*
X006382Y022175D01*
X006068Y022293D02*
X006068Y022293D01*
X006068Y021879D01*
X006068Y021879D01*
X006068Y022293D01*
X006068Y022175D02*
X006068Y022175D01*
X005753Y022293D02*
X005753Y022293D01*
X005753Y021879D01*
X005753Y021879D01*
X005753Y022293D01*
X005753Y022175D02*
X005753Y022175D01*
X005438Y022293D02*
X005438Y022293D01*
X005438Y021879D01*
X005438Y021879D01*
X005438Y022293D01*
X005438Y022175D02*
X005438Y022175D01*
X005123Y022293D02*
X005123Y022293D01*
X005123Y021879D01*
X005123Y021879D01*
X005123Y022293D01*
X005123Y022175D02*
X005123Y022175D01*
X004808Y022293D02*
X004808Y022293D01*
X004808Y021879D01*
X004808Y021879D01*
X004808Y022293D01*
X004808Y022175D02*
X004808Y022175D01*
X004493Y022293D02*
X004493Y022293D01*
X004493Y021879D01*
X004493Y021879D01*
X004493Y022293D01*
X004493Y022175D02*
X004493Y022175D01*
X004178Y022293D02*
X004178Y022293D01*
X004178Y021879D01*
X004178Y021879D01*
X004178Y022293D01*
X004178Y022175D02*
X004178Y022175D01*
X003863Y022293D02*
X003863Y022293D01*
X003863Y021879D01*
X003863Y021879D01*
X003863Y022293D01*
X003863Y022175D02*
X003863Y022175D01*
X003548Y022293D02*
X003548Y022293D01*
X003548Y021879D01*
X003548Y021879D01*
X003548Y022293D01*
X003548Y022175D02*
X003548Y022175D01*
X003233Y022293D02*
X003233Y022293D01*
X003233Y021879D01*
X003233Y021879D01*
X003233Y022293D01*
X003233Y022175D02*
X003233Y022175D01*
X002918Y022293D02*
X002918Y022293D01*
X002918Y021879D01*
X002918Y021879D01*
X002918Y022293D01*
X002918Y022175D02*
X002918Y022175D01*
X002918Y017407D02*
X002918Y017407D01*
X002918Y017821D01*
X002918Y017821D01*
X002918Y017407D01*
X002918Y017703D02*
X002918Y017703D01*
X003233Y017407D02*
X003233Y017407D01*
X003233Y017821D01*
X003233Y017821D01*
X003233Y017407D01*
X003233Y017703D02*
X003233Y017703D01*
X003548Y017407D02*
X003548Y017407D01*
X003548Y017821D01*
X003548Y017821D01*
X003548Y017407D01*
X003548Y017703D02*
X003548Y017703D01*
X003863Y017407D02*
X003863Y017407D01*
X003863Y017821D01*
X003863Y017821D01*
X003863Y017407D01*
X003863Y017703D02*
X003863Y017703D01*
X004178Y017407D02*
X004178Y017407D01*
X004178Y017821D01*
X004178Y017821D01*
X004178Y017407D01*
X004178Y017703D02*
X004178Y017703D01*
X004493Y017407D02*
X004493Y017407D01*
X004493Y017821D01*
X004493Y017821D01*
X004493Y017407D01*
X004493Y017703D02*
X004493Y017703D01*
X004808Y017407D02*
X004808Y017407D01*
X004808Y017821D01*
X004808Y017821D01*
X004808Y017407D01*
X004808Y017703D02*
X004808Y017703D01*
X005123Y017407D02*
X005123Y017407D01*
X005123Y017821D01*
X005123Y017821D01*
X005123Y017407D01*
X005123Y017703D02*
X005123Y017703D01*
X005438Y017407D02*
X005438Y017407D01*
X005438Y017821D01*
X005438Y017821D01*
X005438Y017407D01*
X005438Y017703D02*
X005438Y017703D01*
X005753Y017407D02*
X005753Y017407D01*
X005753Y017821D01*
X005753Y017821D01*
X005753Y017407D01*
X005753Y017703D02*
X005753Y017703D01*
X006068Y017407D02*
X006068Y017407D01*
X006068Y017821D01*
X006068Y017821D01*
X006068Y017407D01*
X006068Y017703D02*
X006068Y017703D01*
X006382Y017407D02*
X006382Y017407D01*
X006382Y017821D01*
X006382Y017821D01*
X006382Y017407D01*
X006382Y017703D02*
X006382Y017703D01*
X006697Y017407D02*
X006697Y017407D01*
X006697Y017821D01*
X006697Y017821D01*
X006697Y017407D01*
X006697Y017703D02*
X006697Y017703D01*
X007012Y017407D02*
X007012Y017407D01*
X007012Y017821D01*
X007012Y017821D01*
X007012Y017407D01*
X007012Y017703D02*
X007012Y017703D01*
X007327Y017407D02*
X007327Y017407D01*
X007327Y017821D01*
X007327Y017821D01*
X007327Y017407D01*
X007327Y017703D02*
X007327Y017703D01*
X007642Y017407D02*
X007642Y017407D01*
X007642Y017821D01*
X007642Y017821D01*
X007642Y017407D01*
X007642Y017703D02*
X007642Y017703D01*
X007957Y017407D02*
X007957Y017407D01*
X007957Y017821D01*
X007957Y017821D01*
X007957Y017407D01*
X007957Y017703D02*
X007957Y017703D01*
X008272Y017407D02*
X008272Y017407D01*
X008272Y017821D01*
X008272Y017821D01*
X008272Y017407D01*
X008272Y017703D02*
X008272Y017703D01*
X008587Y017407D02*
X008587Y017407D01*
X008587Y017821D01*
X008587Y017821D01*
X008587Y017407D01*
X008587Y017703D02*
X008587Y017703D01*
X008902Y017407D02*
X008902Y017407D01*
X008902Y017821D01*
X008902Y017821D01*
X008902Y017407D01*
X008902Y017703D02*
X008902Y017703D01*
X009217Y017407D02*
X009217Y017407D01*
X009217Y017821D01*
X009217Y017821D01*
X009217Y017407D01*
X009217Y017703D02*
X009217Y017703D01*
X009532Y017407D02*
X009532Y017407D01*
X009532Y017821D01*
X009532Y017821D01*
X009532Y017407D01*
X009532Y017703D02*
X009532Y017703D01*
D16*
X009610Y008350D02*
X009090Y008350D01*
X008110Y008350D02*
X007590Y008350D01*
X007590Y007350D02*
X008110Y007350D01*
X009090Y007350D02*
X009610Y007350D01*
X009610Y006350D02*
X009090Y006350D01*
X008110Y006350D02*
X007590Y006350D01*
X009090Y005350D02*
X009610Y005350D01*
X009610Y004350D02*
X009090Y004350D01*
X008110Y004350D02*
X007590Y004350D01*
X005110Y004350D02*
X004590Y004350D01*
X004590Y005350D02*
X005110Y005350D01*
X005110Y006350D02*
X004590Y006350D01*
X004590Y007350D02*
X005110Y007350D01*
X005110Y008350D02*
X004590Y008350D01*
X012090Y008350D02*
X012610Y008350D01*
X013590Y008350D02*
X014110Y008350D01*
X014110Y007350D02*
X013590Y007350D01*
X012610Y007350D02*
X012090Y007350D01*
X012090Y006350D02*
X012610Y006350D01*
X013590Y006350D02*
X014110Y006350D01*
X014110Y005350D02*
X013590Y005350D01*
X013590Y004350D02*
X014110Y004350D01*
X012610Y004350D02*
X012090Y004350D01*
X012090Y002350D02*
X012610Y002350D01*
X013590Y002350D02*
X014110Y002350D01*
X016590Y002350D02*
X017110Y002350D01*
X018090Y002350D02*
X018610Y002350D01*
X018610Y004350D02*
X018090Y004350D01*
X017110Y004350D02*
X016590Y004350D01*
X018090Y005350D02*
X018610Y005350D01*
X018610Y006350D02*
X018090Y006350D01*
X017110Y006350D02*
X016590Y006350D01*
X016590Y007350D02*
X017110Y007350D01*
X018090Y007350D02*
X018610Y007350D01*
X018610Y008350D02*
X018090Y008350D01*
X017110Y008350D02*
X016590Y008350D01*
X021090Y008350D02*
X021610Y008350D01*
X022590Y008350D02*
X023110Y008350D01*
X023110Y007350D02*
X022590Y007350D01*
X021610Y007350D02*
X021090Y007350D01*
X021090Y006350D02*
X021610Y006350D01*
X022590Y006350D02*
X023110Y006350D01*
X023110Y005350D02*
X022590Y005350D01*
X022590Y004350D02*
X023110Y004350D01*
X021610Y004350D02*
X021090Y004350D01*
X021090Y002350D02*
X021610Y002350D01*
X022590Y002350D02*
X023110Y002350D01*
X025590Y002350D02*
X026110Y002350D01*
X027590Y002350D02*
X028110Y002350D01*
X028110Y004350D02*
X027590Y004350D01*
X027590Y005350D02*
X028110Y005350D01*
X028110Y006350D02*
X027590Y006350D01*
X027590Y007350D02*
X028110Y007350D01*
X028110Y008350D02*
X027590Y008350D01*
X026110Y008350D02*
X025590Y008350D01*
X025590Y007350D02*
X026110Y007350D01*
X026110Y006350D02*
X025590Y006350D01*
X025590Y004350D02*
X026110Y004350D01*
X030590Y004350D02*
X031110Y004350D01*
X032090Y004350D02*
X032610Y004350D01*
X032610Y005350D02*
X032090Y005350D01*
X032090Y006350D02*
X032610Y006350D01*
X032610Y007350D02*
X032090Y007350D01*
X031110Y007350D02*
X030590Y007350D01*
X030590Y008350D02*
X031110Y008350D01*
X032090Y008350D02*
X032610Y008350D01*
X035090Y008350D02*
X035610Y008350D01*
X035610Y007350D02*
X035090Y007350D01*
X035090Y006350D02*
X035610Y006350D01*
X035610Y004350D02*
X035090Y004350D01*
X035090Y002350D02*
X035610Y002350D01*
X032610Y002350D02*
X032090Y002350D01*
X031110Y002350D02*
X030590Y002350D01*
X030590Y006350D02*
X031110Y006350D01*
X031215Y013350D02*
X031735Y013350D01*
X031735Y014350D02*
X031215Y014350D01*
X031215Y015350D02*
X031735Y015350D01*
X031735Y016350D02*
X031215Y016350D01*
X031215Y017350D02*
X031735Y017350D01*
X031735Y018350D02*
X031215Y018350D01*
X031215Y019350D02*
X031735Y019350D01*
X031735Y020350D02*
X031215Y020350D01*
X031215Y021350D02*
X031735Y021350D01*
X031735Y022350D02*
X031215Y022350D01*
X034215Y022350D02*
X034735Y022350D01*
X036090Y022350D02*
X036610Y022350D01*
X036610Y021350D02*
X036090Y021350D01*
X036090Y020350D02*
X036610Y020350D01*
X036610Y019350D02*
X036090Y019350D01*
X036090Y018350D02*
X036610Y018350D01*
X036610Y017350D02*
X036090Y017350D01*
X034735Y017350D02*
X034215Y017350D01*
X034215Y018350D02*
X034735Y018350D01*
X034735Y019350D02*
X034215Y019350D01*
X034215Y020350D02*
X034735Y020350D01*
X034735Y021350D02*
X034215Y021350D01*
X039090Y021350D02*
X039610Y021350D01*
X039610Y020350D02*
X039090Y020350D01*
X039090Y019350D02*
X039610Y019350D01*
X039610Y018350D02*
X039090Y018350D01*
X039090Y017350D02*
X039610Y017350D01*
X039610Y016350D02*
X039090Y016350D01*
X039090Y015350D02*
X039610Y015350D01*
X039610Y014350D02*
X039090Y014350D01*
X039090Y013350D02*
X039610Y013350D01*
X036610Y013350D02*
X036090Y013350D01*
X036090Y014350D02*
X036610Y014350D01*
X036610Y015350D02*
X036090Y015350D01*
X036090Y016350D02*
X036610Y016350D01*
X034735Y016350D02*
X034215Y016350D01*
X034215Y015350D02*
X034735Y015350D01*
X034735Y014350D02*
X034215Y014350D01*
X034215Y013350D02*
X034735Y013350D01*
X039090Y022350D02*
X039610Y022350D01*
X047340Y008350D02*
X047860Y008350D01*
X047860Y007350D02*
X047340Y007350D01*
X047340Y006350D02*
X047860Y006350D01*
X047860Y005350D02*
X047340Y005350D01*
X047340Y004350D02*
X047860Y004350D01*
X047860Y002350D02*
X047340Y002350D01*
X050340Y002350D02*
X050860Y002350D01*
X052090Y002350D02*
X052610Y002350D01*
X052610Y004350D02*
X052090Y004350D01*
X052090Y005350D02*
X052610Y005350D01*
X052610Y006350D02*
X052090Y006350D01*
X050860Y006350D02*
X050340Y006350D01*
X050340Y007350D02*
X050860Y007350D01*
X050860Y008350D02*
X050340Y008350D01*
X052090Y008350D02*
X052610Y008350D01*
X052610Y007350D02*
X052090Y007350D01*
X055090Y007350D02*
X055610Y007350D01*
X055610Y008350D02*
X055090Y008350D01*
X055090Y006350D02*
X055610Y006350D01*
X055610Y004350D02*
X055090Y004350D01*
X055090Y002350D02*
X055610Y002350D01*
X050860Y004350D02*
X050340Y004350D01*
X009610Y002350D02*
X009090Y002350D01*
X008110Y002350D02*
X007590Y002350D01*
X005110Y002350D02*
X004590Y002350D01*
D17*
X041005Y008725D03*
X041005Y009225D03*
X041005Y009725D03*
X041005Y010225D03*
X042945Y010225D03*
X042945Y009725D03*
X042945Y009225D03*
X042945Y008725D03*
D18*
X039970Y006600D03*
X039600Y006600D03*
X039230Y006600D03*
X039230Y005600D03*
X039600Y005600D03*
X039970Y005600D03*
D19*
X028100Y024850D03*
D20*
X028100Y025850D03*
X028100Y026850D03*
X028100Y027850D03*
X028100Y028850D03*
X028100Y029850D03*
X028100Y030850D03*
X028100Y031850D03*
X028100Y032850D03*
X028100Y033850D03*
X028100Y034850D03*
X028100Y035850D03*
X022100Y035850D03*
X022100Y034850D03*
X022100Y033850D03*
X022100Y032850D03*
X022100Y031850D03*
X022100Y030850D03*
X022100Y029850D03*
X022100Y028850D03*
X022100Y027850D03*
X022100Y026850D03*
X022100Y025850D03*
X022100Y024850D03*
X026850Y016600D03*
X013550Y037600D03*
X011650Y037600D03*
D21*
X046701Y027021D03*
X046701Y026765D03*
X046701Y026509D03*
X046701Y026254D03*
X046701Y025998D03*
X046701Y025742D03*
X046701Y025486D03*
X046701Y025230D03*
X046701Y024974D03*
X046701Y024718D03*
X048999Y024718D03*
X048999Y024974D03*
X048999Y025230D03*
X048999Y025486D03*
X048999Y025742D03*
X048999Y025998D03*
X048999Y026254D03*
X048999Y026509D03*
X048999Y026765D03*
X048999Y027021D03*
X048999Y013021D03*
X048999Y012765D03*
X048999Y012509D03*
X048999Y012254D03*
X048999Y011998D03*
X048999Y011742D03*
X048999Y011486D03*
X048999Y011230D03*
X048999Y010974D03*
X048999Y010718D03*
X046701Y010718D03*
X046701Y010974D03*
X046701Y011230D03*
X046701Y011486D03*
X046701Y011742D03*
X046701Y011998D03*
X046701Y012254D03*
X046701Y012509D03*
X046701Y012765D03*
X046701Y013021D03*
D22*
X044513Y030536D03*
X044257Y030536D03*
X044002Y030536D03*
X043746Y030536D03*
X043490Y030536D03*
X043234Y030536D03*
X042978Y030536D03*
X042722Y030536D03*
X042466Y030536D03*
X042210Y030536D03*
X041954Y030536D03*
X041698Y030536D03*
X041443Y030536D03*
X041187Y030536D03*
X039013Y030536D03*
X038757Y030536D03*
X038502Y030536D03*
X038246Y030536D03*
X037990Y030536D03*
X037734Y030536D03*
X037478Y030536D03*
X037222Y030536D03*
X036966Y030536D03*
X036710Y030536D03*
X036454Y030536D03*
X036198Y030536D03*
X035943Y030536D03*
X035687Y030536D03*
X035687Y033414D03*
X035943Y033414D03*
X036198Y033414D03*
X036454Y033414D03*
X036710Y033414D03*
X036966Y033414D03*
X037222Y033414D03*
X037478Y033414D03*
X037734Y033414D03*
X037990Y033414D03*
X038246Y033414D03*
X038502Y033414D03*
X038757Y033414D03*
X039013Y033414D03*
X041187Y033414D03*
X041443Y033414D03*
X041698Y033414D03*
X041954Y033414D03*
X042210Y033414D03*
X042466Y033414D03*
X042722Y033414D03*
X042978Y033414D03*
X043234Y033414D03*
X043490Y033414D03*
X043746Y033414D03*
X044002Y033414D03*
X044257Y033414D03*
X044513Y033414D03*
D23*
X056525Y035950D02*
X056525Y036750D01*
X058075Y037550D02*
X058875Y037550D01*
X058875Y035100D02*
X058075Y035100D01*
D24*
X059725Y022406D03*
X059725Y007281D03*
D25*
X059725Y006494D03*
X059725Y005706D03*
X059725Y004919D03*
X059725Y020044D03*
X059725Y020831D03*
X059725Y021619D03*
D26*
X055624Y024511D02*
X055302Y024511D01*
X055624Y024511D02*
X055624Y024189D01*
X055302Y024189D01*
X055302Y024511D01*
X055302Y024296D02*
X055624Y024296D01*
X055624Y024403D02*
X055302Y024403D01*
X055302Y024510D02*
X055624Y024510D01*
X055024Y024511D02*
X054702Y024511D01*
X055024Y024511D02*
X055024Y024189D01*
X054702Y024189D01*
X054702Y024511D01*
X054702Y024296D02*
X055024Y024296D01*
X055024Y024403D02*
X054702Y024403D01*
X054702Y024510D02*
X055024Y024510D01*
X055024Y025511D02*
X054702Y025511D01*
X055024Y025511D02*
X055024Y025189D01*
X054702Y025189D01*
X054702Y025511D01*
X054702Y025296D02*
X055024Y025296D01*
X055024Y025403D02*
X054702Y025403D01*
X054702Y025510D02*
X055024Y025510D01*
X055302Y025511D02*
X055624Y025511D01*
X055624Y025189D01*
X055302Y025189D01*
X055302Y025511D01*
X055302Y025296D02*
X055624Y025296D01*
X055624Y025403D02*
X055302Y025403D01*
X055302Y025510D02*
X055624Y025510D01*
X048936Y027439D02*
X048614Y027439D01*
X048614Y027761D01*
X048936Y027761D01*
X048936Y027439D01*
X048936Y027546D02*
X048614Y027546D01*
X048614Y027653D02*
X048936Y027653D01*
X048936Y027760D02*
X048614Y027760D01*
X048336Y027439D02*
X048014Y027439D01*
X048014Y027761D01*
X048336Y027761D01*
X048336Y027439D01*
X048336Y027546D02*
X048014Y027546D01*
X048014Y027653D02*
X048336Y027653D01*
X048336Y027760D02*
X048014Y027760D01*
X047961Y029939D02*
X047639Y029939D01*
X047639Y030261D01*
X047961Y030261D01*
X047961Y029939D01*
X047961Y030046D02*
X047639Y030046D01*
X047639Y030153D02*
X047961Y030153D01*
X047961Y030260D02*
X047639Y030260D01*
X048239Y029939D02*
X048561Y029939D01*
X048239Y029939D02*
X048239Y030261D01*
X048561Y030261D01*
X048561Y029939D01*
X048561Y030046D02*
X048239Y030046D01*
X048239Y030153D02*
X048561Y030153D01*
X048561Y030260D02*
X048239Y030260D01*
X045189Y030889D02*
X045189Y031211D01*
X045511Y031211D01*
X045511Y030889D01*
X045189Y030889D01*
X045189Y030996D02*
X045511Y030996D01*
X045511Y031103D02*
X045189Y031103D01*
X045189Y031210D02*
X045511Y031210D01*
X045189Y031489D02*
X045189Y031811D01*
X045511Y031811D01*
X045511Y031489D01*
X045189Y031489D01*
X045189Y031596D02*
X045511Y031596D01*
X045511Y031703D02*
X045189Y031703D01*
X045189Y031810D02*
X045511Y031810D01*
X045511Y032139D02*
X045511Y032461D01*
X045511Y032139D02*
X045189Y032139D01*
X045189Y032461D01*
X045511Y032461D01*
X045511Y032246D02*
X045189Y032246D01*
X045189Y032353D02*
X045511Y032353D01*
X045511Y032460D02*
X045189Y032460D01*
X045511Y032739D02*
X045511Y033061D01*
X045511Y032739D02*
X045189Y032739D01*
X045189Y033061D01*
X045511Y033061D01*
X045511Y032846D02*
X045189Y032846D01*
X045189Y032953D02*
X045511Y032953D01*
X045511Y033060D02*
X045189Y033060D01*
X047064Y035264D02*
X047064Y035586D01*
X047386Y035586D01*
X047386Y035264D01*
X047064Y035264D01*
X047064Y035371D02*
X047386Y035371D01*
X047386Y035478D02*
X047064Y035478D01*
X047064Y035585D02*
X047386Y035585D01*
X047064Y035864D02*
X047064Y036186D01*
X047386Y036186D01*
X047386Y035864D01*
X047064Y035864D01*
X047064Y035971D02*
X047386Y035971D01*
X047386Y036078D02*
X047064Y036078D01*
X047064Y036185D02*
X047386Y036185D01*
X050014Y035689D02*
X050336Y035689D01*
X050014Y035689D02*
X050014Y036011D01*
X050336Y036011D01*
X050336Y035689D01*
X050336Y035796D02*
X050014Y035796D01*
X050014Y035903D02*
X050336Y035903D01*
X050336Y036010D02*
X050014Y036010D01*
X050614Y035689D02*
X050936Y035689D01*
X050614Y035689D02*
X050614Y036011D01*
X050936Y036011D01*
X050936Y035689D01*
X050936Y035796D02*
X050614Y035796D01*
X050614Y035903D02*
X050936Y035903D01*
X050936Y036010D02*
X050614Y036010D01*
X051314Y032686D02*
X051314Y032364D01*
X051314Y032686D02*
X051636Y032686D01*
X051636Y032364D01*
X051314Y032364D01*
X051314Y032471D02*
X051636Y032471D01*
X051636Y032578D02*
X051314Y032578D01*
X051314Y032685D02*
X051636Y032685D01*
X051314Y032086D02*
X051314Y031764D01*
X051314Y032086D02*
X051636Y032086D01*
X051636Y031764D01*
X051314Y031764D01*
X051314Y031871D02*
X051636Y031871D01*
X051636Y031978D02*
X051314Y031978D01*
X051314Y032085D02*
X051636Y032085D01*
X042636Y035014D02*
X042636Y035336D01*
X042636Y035014D02*
X042314Y035014D01*
X042314Y035336D01*
X042636Y035336D01*
X042636Y035121D02*
X042314Y035121D01*
X042314Y035228D02*
X042636Y035228D01*
X042636Y035335D02*
X042314Y035335D01*
X042636Y035614D02*
X042636Y035936D01*
X042636Y035614D02*
X042314Y035614D01*
X042314Y035936D01*
X042636Y035936D01*
X042636Y035721D02*
X042314Y035721D01*
X042314Y035828D02*
X042636Y035828D01*
X042636Y035935D02*
X042314Y035935D01*
X041564Y035936D02*
X041564Y035614D01*
X041564Y035936D02*
X041886Y035936D01*
X041886Y035614D01*
X041564Y035614D01*
X041564Y035721D02*
X041886Y035721D01*
X041886Y035828D02*
X041564Y035828D01*
X041564Y035935D02*
X041886Y035935D01*
X041564Y035336D02*
X041564Y035014D01*
X041564Y035336D02*
X041886Y035336D01*
X041886Y035014D01*
X041564Y035014D01*
X041564Y035121D02*
X041886Y035121D01*
X041886Y035228D02*
X041564Y035228D01*
X041564Y035335D02*
X041886Y035335D01*
X040011Y031811D02*
X040011Y031489D01*
X039689Y031489D01*
X039689Y031811D01*
X040011Y031811D01*
X040011Y031596D02*
X039689Y031596D01*
X039689Y031703D02*
X040011Y031703D01*
X040011Y031810D02*
X039689Y031810D01*
X040011Y031211D02*
X040011Y030889D01*
X039689Y030889D01*
X039689Y031211D01*
X040011Y031211D01*
X040011Y030996D02*
X039689Y030996D01*
X039689Y031103D02*
X040011Y031103D01*
X040011Y031210D02*
X039689Y031210D01*
X035511Y035014D02*
X035511Y035336D01*
X035511Y035014D02*
X035189Y035014D01*
X035189Y035336D01*
X035511Y035336D01*
X035511Y035121D02*
X035189Y035121D01*
X035189Y035228D02*
X035511Y035228D01*
X035511Y035335D02*
X035189Y035335D01*
X035511Y035614D02*
X035511Y035936D01*
X035511Y035614D02*
X035189Y035614D01*
X035189Y035936D01*
X035511Y035936D01*
X035511Y035721D02*
X035189Y035721D01*
X035189Y035828D02*
X035511Y035828D01*
X035511Y035935D02*
X035189Y035935D01*
X034439Y035936D02*
X034439Y035614D01*
X034439Y035936D02*
X034761Y035936D01*
X034761Y035614D01*
X034439Y035614D01*
X034439Y035721D02*
X034761Y035721D01*
X034761Y035828D02*
X034439Y035828D01*
X034439Y035935D02*
X034761Y035935D01*
X034439Y035336D02*
X034439Y035014D01*
X034439Y035336D02*
X034761Y035336D01*
X034761Y035014D01*
X034439Y035014D01*
X034439Y035121D02*
X034761Y035121D01*
X034761Y035228D02*
X034439Y035228D01*
X034439Y035335D02*
X034761Y035335D01*
X033136Y035514D02*
X033136Y035836D01*
X033136Y035514D02*
X032814Y035514D01*
X032814Y035836D01*
X033136Y035836D01*
X033136Y035621D02*
X032814Y035621D01*
X032814Y035728D02*
X033136Y035728D01*
X033136Y035835D02*
X032814Y035835D01*
X033136Y036114D02*
X033136Y036436D01*
X033136Y036114D02*
X032814Y036114D01*
X032814Y036436D01*
X033136Y036436D01*
X033136Y036221D02*
X032814Y036221D01*
X032814Y036328D02*
X033136Y036328D01*
X033136Y036435D02*
X032814Y036435D01*
X032011Y036436D02*
X032011Y036114D01*
X031689Y036114D01*
X031689Y036436D01*
X032011Y036436D01*
X032011Y036221D02*
X031689Y036221D01*
X031689Y036328D02*
X032011Y036328D01*
X032011Y036435D02*
X031689Y036435D01*
X032011Y035836D02*
X032011Y035514D01*
X031689Y035514D01*
X031689Y035836D01*
X032011Y035836D01*
X032011Y035621D02*
X031689Y035621D01*
X031689Y035728D02*
X032011Y035728D01*
X032011Y035835D02*
X031689Y035835D01*
X030261Y035836D02*
X030261Y035514D01*
X029939Y035514D01*
X029939Y035836D01*
X030261Y035836D01*
X030261Y035621D02*
X029939Y035621D01*
X029939Y035728D02*
X030261Y035728D01*
X030261Y035835D02*
X029939Y035835D01*
X030261Y036114D02*
X030261Y036436D01*
X030261Y036114D02*
X029939Y036114D01*
X029939Y036436D01*
X030261Y036436D01*
X030261Y036221D02*
X029939Y036221D01*
X029939Y036328D02*
X030261Y036328D01*
X030261Y036435D02*
X029939Y036435D01*
X029864Y037214D02*
X029864Y037536D01*
X030336Y037536D01*
X030336Y037214D01*
X029864Y037214D01*
X029864Y037321D02*
X030336Y037321D01*
X030336Y037428D02*
X029864Y037428D01*
X029864Y037535D02*
X030336Y037535D01*
X029864Y037914D02*
X029864Y038236D01*
X030336Y038236D01*
X030336Y037914D01*
X029864Y037914D01*
X029864Y038021D02*
X030336Y038021D01*
X030336Y038128D02*
X029864Y038128D01*
X029864Y038235D02*
X030336Y038235D01*
X031614Y038236D02*
X031614Y037914D01*
X031614Y038236D02*
X032086Y038236D01*
X032086Y037914D01*
X031614Y037914D01*
X031614Y038021D02*
X032086Y038021D01*
X032086Y038128D02*
X031614Y038128D01*
X031614Y038235D02*
X032086Y038235D01*
X032739Y038236D02*
X032739Y037914D01*
X032739Y038236D02*
X033211Y038236D01*
X033211Y037914D01*
X032739Y037914D01*
X032739Y038021D02*
X033211Y038021D01*
X033211Y038128D02*
X032739Y038128D01*
X032739Y038235D02*
X033211Y038235D01*
X032739Y037536D02*
X032739Y037214D01*
X032739Y037536D02*
X033211Y037536D01*
X033211Y037214D01*
X032739Y037214D01*
X032739Y037321D02*
X033211Y037321D01*
X033211Y037428D02*
X032739Y037428D01*
X032739Y037535D02*
X033211Y037535D01*
X031614Y037536D02*
X031614Y037214D01*
X031614Y037536D02*
X032086Y037536D01*
X032086Y037214D01*
X031614Y037214D01*
X031614Y037321D02*
X032086Y037321D01*
X032086Y037428D02*
X031614Y037428D01*
X031614Y037535D02*
X032086Y037535D01*
X033886Y033811D02*
X033886Y033489D01*
X033564Y033489D01*
X033564Y033811D01*
X033886Y033811D01*
X033886Y033596D02*
X033564Y033596D01*
X033564Y033703D02*
X033886Y033703D01*
X033886Y033810D02*
X033564Y033810D01*
X033886Y033211D02*
X033886Y032889D01*
X033564Y032889D01*
X033564Y033211D01*
X033886Y033211D01*
X033886Y032996D02*
X033564Y032996D01*
X033564Y033103D02*
X033886Y033103D01*
X033886Y033210D02*
X033564Y033210D01*
X033564Y031811D02*
X033564Y031489D01*
X033564Y031811D02*
X033886Y031811D01*
X033886Y031489D01*
X033564Y031489D01*
X033564Y031596D02*
X033886Y031596D01*
X033886Y031703D02*
X033564Y031703D01*
X033564Y031810D02*
X033886Y031810D01*
X033564Y031211D02*
X033564Y030889D01*
X033564Y031211D02*
X033886Y031211D01*
X033886Y030889D01*
X033564Y030889D01*
X033564Y030996D02*
X033886Y030996D01*
X033886Y031103D02*
X033564Y031103D01*
X033564Y031210D02*
X033886Y031210D01*
X029136Y025811D02*
X029136Y025489D01*
X028814Y025489D01*
X028814Y025811D01*
X029136Y025811D01*
X029136Y025596D02*
X028814Y025596D01*
X028814Y025703D02*
X029136Y025703D01*
X029136Y025810D02*
X028814Y025810D01*
X029136Y025211D02*
X029136Y024889D01*
X028814Y024889D01*
X028814Y025211D01*
X029136Y025211D01*
X029136Y024996D02*
X028814Y024996D01*
X028814Y025103D02*
X029136Y025103D01*
X029136Y025210D02*
X028814Y025210D01*
X033389Y024011D02*
X033711Y024011D01*
X033711Y023689D01*
X033389Y023689D01*
X033389Y024011D01*
X033389Y023796D02*
X033711Y023796D01*
X033711Y023903D02*
X033389Y023903D01*
X033389Y024010D02*
X033711Y024010D01*
X033989Y024011D02*
X034311Y024011D01*
X034311Y023689D01*
X033989Y023689D01*
X033989Y024011D01*
X033989Y023796D02*
X034311Y023796D01*
X034311Y023903D02*
X033989Y023903D01*
X033989Y024010D02*
X034311Y024010D01*
X041011Y022936D02*
X041011Y022614D01*
X040689Y022614D01*
X040689Y022936D01*
X041011Y022936D01*
X041011Y022721D02*
X040689Y022721D01*
X040689Y022828D02*
X041011Y022828D01*
X041011Y022935D02*
X040689Y022935D01*
X041011Y022336D02*
X041011Y022014D01*
X040689Y022014D01*
X040689Y022336D01*
X041011Y022336D01*
X041011Y022121D02*
X040689Y022121D01*
X040689Y022228D02*
X041011Y022228D01*
X041011Y022335D02*
X040689Y022335D01*
X029314Y017436D02*
X029314Y017114D01*
X029314Y017436D02*
X029636Y017436D01*
X029636Y017114D01*
X029314Y017114D01*
X029314Y017221D02*
X029636Y017221D01*
X029636Y017328D02*
X029314Y017328D01*
X029314Y017435D02*
X029636Y017435D01*
X029314Y016836D02*
X029314Y016514D01*
X029314Y016836D02*
X029636Y016836D01*
X029636Y016514D01*
X029314Y016514D01*
X029314Y016621D02*
X029636Y016621D01*
X029636Y016728D02*
X029314Y016728D01*
X029314Y016835D02*
X029636Y016835D01*
X040386Y009436D02*
X040386Y009114D01*
X040064Y009114D01*
X040064Y009436D01*
X040386Y009436D01*
X040386Y009221D02*
X040064Y009221D01*
X040064Y009328D02*
X040386Y009328D01*
X040386Y009435D02*
X040064Y009435D01*
X040386Y008836D02*
X040386Y008514D01*
X040064Y008514D01*
X040064Y008836D01*
X040386Y008836D01*
X040386Y008621D02*
X040064Y008621D01*
X040064Y008728D02*
X040386Y008728D01*
X040386Y008835D02*
X040064Y008835D01*
X040886Y007436D02*
X040886Y007114D01*
X040564Y007114D01*
X040564Y007436D01*
X040886Y007436D01*
X040886Y007221D02*
X040564Y007221D01*
X040564Y007328D02*
X040886Y007328D01*
X040886Y007435D02*
X040564Y007435D01*
X040886Y006836D02*
X040886Y006514D01*
X040564Y006514D01*
X040564Y006836D01*
X040886Y006836D01*
X040886Y006621D02*
X040564Y006621D01*
X040564Y006728D02*
X040886Y006728D01*
X040886Y006835D02*
X040564Y006835D01*
X042014Y004386D02*
X042336Y004386D01*
X042336Y004064D01*
X042014Y004064D01*
X042014Y004386D01*
X042014Y004171D02*
X042336Y004171D01*
X042336Y004278D02*
X042014Y004278D01*
X042014Y004385D02*
X042336Y004385D01*
X042614Y004386D02*
X042936Y004386D01*
X042936Y004064D01*
X042614Y004064D01*
X042614Y004386D01*
X042614Y004171D02*
X042936Y004171D01*
X042936Y004278D02*
X042614Y004278D01*
X042614Y004385D02*
X042936Y004385D01*
X038436Y004386D02*
X038114Y004386D01*
X038436Y004386D02*
X038436Y004064D01*
X038114Y004064D01*
X038114Y004386D01*
X038114Y004171D02*
X038436Y004171D01*
X038436Y004278D02*
X038114Y004278D01*
X038114Y004385D02*
X038436Y004385D01*
X037836Y004386D02*
X037514Y004386D01*
X037836Y004386D02*
X037836Y004064D01*
X037514Y004064D01*
X037514Y004386D01*
X037514Y004171D02*
X037836Y004171D01*
X037836Y004278D02*
X037514Y004278D01*
X037514Y004385D02*
X037836Y004385D01*
X048139Y013439D02*
X048461Y013439D01*
X048139Y013439D02*
X048139Y013761D01*
X048461Y013761D01*
X048461Y013439D01*
X048461Y013546D02*
X048139Y013546D01*
X048139Y013653D02*
X048461Y013653D01*
X048461Y013760D02*
X048139Y013760D01*
X048739Y013439D02*
X049061Y013439D01*
X048739Y013439D02*
X048739Y013761D01*
X049061Y013761D01*
X049061Y013439D01*
X049061Y013546D02*
X048739Y013546D01*
X048739Y013653D02*
X049061Y013653D01*
X049061Y013760D02*
X048739Y013760D01*
X050264Y012314D02*
X050586Y012314D01*
X050264Y012314D02*
X050264Y012636D01*
X050586Y012636D01*
X050586Y012314D01*
X050586Y012421D02*
X050264Y012421D01*
X050264Y012528D02*
X050586Y012528D01*
X050586Y012635D02*
X050264Y012635D01*
X050864Y012314D02*
X051186Y012314D01*
X050864Y012314D02*
X050864Y012636D01*
X051186Y012636D01*
X051186Y012314D01*
X051186Y012421D02*
X050864Y012421D01*
X050864Y012528D02*
X051186Y012528D01*
X051186Y012635D02*
X050864Y012635D01*
X050864Y011689D02*
X051186Y011689D01*
X050864Y011689D02*
X050864Y012011D01*
X051186Y012011D01*
X051186Y011689D01*
X051186Y011796D02*
X050864Y011796D01*
X050864Y011903D02*
X051186Y011903D01*
X051186Y012010D02*
X050864Y012010D01*
X050586Y011689D02*
X050264Y011689D01*
X050264Y012011D01*
X050586Y012011D01*
X050586Y011689D01*
X050586Y011796D02*
X050264Y011796D01*
X050264Y011903D02*
X050586Y011903D01*
X050586Y012010D02*
X050264Y012010D01*
X061511Y011249D02*
X061511Y010927D01*
X061189Y010927D01*
X061189Y011249D01*
X061511Y011249D01*
X061511Y011034D02*
X061189Y011034D01*
X061189Y011141D02*
X061511Y011141D01*
X061511Y011248D02*
X061189Y011248D01*
X061511Y010649D02*
X061511Y010327D01*
X061189Y010327D01*
X061189Y010649D01*
X061511Y010649D01*
X061511Y010434D02*
X061189Y010434D01*
X061189Y010541D02*
X061511Y010541D01*
X061511Y010648D02*
X061189Y010648D01*
X061939Y016139D02*
X061939Y016461D01*
X062261Y016461D01*
X062261Y016139D01*
X061939Y016139D01*
X061939Y016246D02*
X062261Y016246D01*
X062261Y016353D02*
X061939Y016353D01*
X061939Y016460D02*
X062261Y016460D01*
X061939Y016739D02*
X061939Y017061D01*
X062261Y017061D01*
X062261Y016739D01*
X061939Y016739D01*
X061939Y016846D02*
X062261Y016846D01*
X062261Y016953D02*
X061939Y016953D01*
X061939Y017060D02*
X062261Y017060D01*
X057427Y003236D02*
X057427Y002914D01*
X057427Y003236D02*
X057899Y003236D01*
X057899Y002914D01*
X057427Y002914D01*
X057427Y003021D02*
X057899Y003021D01*
X057899Y003128D02*
X057427Y003128D01*
X057427Y003235D02*
X057899Y003235D01*
X056627Y003186D02*
X056627Y002864D01*
X056627Y003186D02*
X056949Y003186D01*
X056949Y002864D01*
X056627Y002864D01*
X056627Y002971D02*
X056949Y002971D01*
X056949Y003078D02*
X056627Y003078D01*
X056627Y003185D02*
X056949Y003185D01*
X056627Y002586D02*
X056627Y002264D01*
X056627Y002586D02*
X056949Y002586D01*
X056949Y002264D01*
X056627Y002264D01*
X056627Y002371D02*
X056949Y002371D01*
X056949Y002478D02*
X056627Y002478D01*
X056627Y002585D02*
X056949Y002585D01*
X057427Y002536D02*
X057427Y002214D01*
X057427Y002536D02*
X057899Y002536D01*
X057899Y002214D01*
X057427Y002214D01*
X057427Y002321D02*
X057899Y002321D01*
X057899Y002428D02*
X057427Y002428D01*
X057427Y002535D02*
X057899Y002535D01*
X018561Y017189D02*
X018239Y017189D01*
X018239Y017511D01*
X018561Y017511D01*
X018561Y017189D01*
X018561Y017296D02*
X018239Y017296D01*
X018239Y017403D02*
X018561Y017403D01*
X018561Y017510D02*
X018239Y017510D01*
X017961Y017189D02*
X017639Y017189D01*
X017639Y017511D01*
X017961Y017511D01*
X017961Y017189D01*
X017961Y017296D02*
X017639Y017296D01*
X017639Y017403D02*
X017961Y017403D01*
X017961Y017510D02*
X017639Y017510D01*
X013311Y024011D02*
X012989Y024011D01*
X013311Y024011D02*
X013311Y023689D01*
X012989Y023689D01*
X012989Y024011D01*
X012989Y023796D02*
X013311Y023796D01*
X013311Y023903D02*
X012989Y023903D01*
X012989Y024010D02*
X013311Y024010D01*
X012711Y024011D02*
X012389Y024011D01*
X012711Y024011D02*
X012711Y023689D01*
X012389Y023689D01*
X012389Y024011D01*
X012389Y023796D02*
X012711Y023796D01*
X012711Y023903D02*
X012389Y023903D01*
X012389Y024010D02*
X012711Y024010D01*
X006686Y017011D02*
X006364Y017011D01*
X006686Y017011D02*
X006686Y016689D01*
X006364Y016689D01*
X006364Y017011D01*
X006364Y016796D02*
X006686Y016796D01*
X006686Y016903D02*
X006364Y016903D01*
X006364Y017010D02*
X006686Y017010D01*
X006086Y017011D02*
X005764Y017011D01*
X006086Y017011D02*
X006086Y016689D01*
X005764Y016689D01*
X005764Y017011D01*
X005764Y016796D02*
X006086Y016796D01*
X006086Y016903D02*
X005764Y016903D01*
X005764Y017010D02*
X006086Y017010D01*
X001189Y027764D02*
X001189Y028086D01*
X001511Y028086D01*
X001511Y027764D01*
X001189Y027764D01*
X001189Y027871D02*
X001511Y027871D01*
X001511Y027978D02*
X001189Y027978D01*
X001189Y028085D02*
X001511Y028085D01*
X001189Y028364D02*
X001189Y028686D01*
X001511Y028686D01*
X001511Y028364D01*
X001189Y028364D01*
X001189Y028471D02*
X001511Y028471D01*
X001511Y028578D02*
X001189Y028578D01*
X001189Y028685D02*
X001511Y028685D01*
X006639Y033189D02*
X006961Y033189D01*
X006639Y033189D02*
X006639Y033511D01*
X006961Y033511D01*
X006961Y033189D01*
X006961Y033296D02*
X006639Y033296D01*
X006639Y033403D02*
X006961Y033403D01*
X006961Y033510D02*
X006639Y033510D01*
X007239Y033189D02*
X007561Y033189D01*
X007239Y033189D02*
X007239Y033511D01*
X007561Y033511D01*
X007561Y033189D01*
X007561Y033296D02*
X007239Y033296D01*
X007239Y033403D02*
X007561Y033403D01*
X007561Y033510D02*
X007239Y033510D01*
X007239Y034189D02*
X007561Y034189D01*
X007239Y034189D02*
X007239Y034511D01*
X007561Y034511D01*
X007561Y034189D01*
X007561Y034296D02*
X007239Y034296D01*
X007239Y034403D02*
X007561Y034403D01*
X007561Y034510D02*
X007239Y034510D01*
X006961Y034189D02*
X006639Y034189D01*
X006639Y034511D01*
X006961Y034511D01*
X006961Y034189D01*
X006961Y034296D02*
X006639Y034296D01*
X006639Y034403D02*
X006961Y034403D01*
X006961Y034510D02*
X006639Y034510D01*
X006639Y035189D02*
X006961Y035189D01*
X006639Y035189D02*
X006639Y035511D01*
X006961Y035511D01*
X006961Y035189D01*
X006961Y035296D02*
X006639Y035296D01*
X006639Y035403D02*
X006961Y035403D01*
X006961Y035510D02*
X006639Y035510D01*
X007239Y035189D02*
X007561Y035189D01*
X007239Y035189D02*
X007239Y035511D01*
X007561Y035511D01*
X007561Y035189D01*
X007561Y035296D02*
X007239Y035296D01*
X007239Y035403D02*
X007561Y035403D01*
X007561Y035510D02*
X007239Y035510D01*
X007239Y036189D02*
X007561Y036189D01*
X007239Y036189D02*
X007239Y036511D01*
X007561Y036511D01*
X007561Y036189D01*
X007561Y036296D02*
X007239Y036296D01*
X007239Y036403D02*
X007561Y036403D01*
X007561Y036510D02*
X007239Y036510D01*
X006961Y036189D02*
X006639Y036189D01*
X006639Y036511D01*
X006961Y036511D01*
X006961Y036189D01*
X006961Y036296D02*
X006639Y036296D01*
X006639Y036403D02*
X006961Y036403D01*
X006961Y036510D02*
X006639Y036510D01*
X006639Y037189D02*
X006961Y037189D01*
X006639Y037189D02*
X006639Y037511D01*
X006961Y037511D01*
X006961Y037189D01*
X006961Y037296D02*
X006639Y037296D01*
X006639Y037403D02*
X006961Y037403D01*
X006961Y037510D02*
X006639Y037510D01*
X007239Y037189D02*
X007561Y037189D01*
X007239Y037189D02*
X007239Y037511D01*
X007561Y037511D01*
X007561Y037189D01*
X007561Y037296D02*
X007239Y037296D01*
X007239Y037403D02*
X007561Y037403D01*
X007561Y037510D02*
X007239Y037510D01*
X005314Y037461D02*
X005314Y037139D01*
X005314Y037461D02*
X005636Y037461D01*
X005636Y037139D01*
X005314Y037139D01*
X005314Y037246D02*
X005636Y037246D01*
X005636Y037353D02*
X005314Y037353D01*
X005314Y037460D02*
X005636Y037460D01*
X005314Y037739D02*
X005314Y038061D01*
X005636Y038061D01*
X005636Y037739D01*
X005314Y037739D01*
X005314Y037846D02*
X005636Y037846D01*
X005636Y037953D02*
X005314Y037953D01*
X005314Y038060D02*
X005636Y038060D01*
X004386Y038061D02*
X004386Y037739D01*
X004064Y037739D01*
X004064Y038061D01*
X004386Y038061D01*
X004386Y037846D02*
X004064Y037846D01*
X004064Y037953D02*
X004386Y037953D01*
X004386Y038060D02*
X004064Y038060D01*
X004386Y037461D02*
X004386Y037139D01*
X004064Y037139D01*
X004064Y037461D01*
X004386Y037461D01*
X004386Y037246D02*
X004064Y037246D01*
X004064Y037353D02*
X004386Y037353D01*
X004386Y037460D02*
X004064Y037460D01*
X009689Y037336D02*
X009689Y037014D01*
X009689Y037336D02*
X010011Y037336D01*
X010011Y037014D01*
X009689Y037014D01*
X009689Y037121D02*
X010011Y037121D01*
X010011Y037228D02*
X009689Y037228D01*
X009689Y037335D02*
X010011Y037335D01*
X009689Y037614D02*
X009689Y037936D01*
X010011Y037936D01*
X010011Y037614D01*
X009689Y037614D01*
X009689Y037721D02*
X010011Y037721D01*
X010011Y037828D02*
X009689Y037828D01*
X009689Y037935D02*
X010011Y037935D01*
X015189Y037936D02*
X015189Y037614D01*
X015189Y037936D02*
X015511Y037936D01*
X015511Y037614D01*
X015189Y037614D01*
X015189Y037721D02*
X015511Y037721D01*
X015511Y037828D02*
X015189Y037828D01*
X015189Y037935D02*
X015511Y037935D01*
X015189Y037336D02*
X015189Y037014D01*
X015189Y037336D02*
X015511Y037336D01*
X015511Y037014D01*
X015189Y037014D01*
X015189Y037121D02*
X015511Y037121D01*
X015511Y037228D02*
X015189Y037228D01*
X015189Y037335D02*
X015511Y037335D01*
X020564Y035561D02*
X020564Y035239D01*
X020564Y035561D02*
X020886Y035561D01*
X020886Y035239D01*
X020564Y035239D01*
X020564Y035346D02*
X020886Y035346D01*
X020886Y035453D02*
X020564Y035453D01*
X020564Y035560D02*
X020886Y035560D01*
X020564Y034961D02*
X020564Y034639D01*
X020564Y034961D02*
X020886Y034961D01*
X020886Y034639D01*
X020564Y034639D01*
X020564Y034746D02*
X020886Y034746D01*
X020886Y034853D02*
X020564Y034853D01*
X020564Y034960D02*
X020886Y034960D01*
X021261Y033686D02*
X021261Y033364D01*
X020939Y033364D01*
X020939Y033686D01*
X021261Y033686D01*
X021261Y033471D02*
X020939Y033471D01*
X020939Y033578D02*
X021261Y033578D01*
X021261Y033685D02*
X020939Y033685D01*
X021261Y033086D02*
X021261Y032764D01*
X020939Y032764D01*
X020939Y033086D01*
X021261Y033086D01*
X021261Y032871D02*
X020939Y032871D01*
X020939Y032978D02*
X021261Y032978D01*
X021261Y033085D02*
X020939Y033085D01*
D27*
X038255Y003578D03*
X038255Y002122D03*
X040695Y002122D03*
X040695Y003578D03*
X042755Y003578D03*
X042755Y002122D03*
X045195Y002122D03*
X045195Y003578D03*
D28*
X044459Y006850D03*
X043475Y006850D03*
X042491Y006850D03*
D29*
X059515Y012225D03*
X059515Y012725D03*
X059515Y013225D03*
X059515Y013725D03*
X059515Y014225D03*
X059515Y014725D03*
X059515Y015225D03*
X061935Y015225D03*
X061935Y014725D03*
X061935Y014225D03*
X061935Y013725D03*
X061935Y013225D03*
X061935Y012725D03*
X061935Y012225D03*
X037435Y024850D03*
X037435Y025350D03*
X037435Y025850D03*
X037435Y026350D03*
X037435Y026850D03*
X037435Y027350D03*
X037435Y027850D03*
X035015Y027850D03*
X035015Y027350D03*
X035015Y026850D03*
X035015Y026350D03*
X035015Y025850D03*
X035015Y025350D03*
X035015Y024850D03*
X032685Y024850D03*
X032685Y025350D03*
X032685Y025850D03*
X032685Y026350D03*
X032685Y026850D03*
X032685Y027350D03*
X032685Y027850D03*
X030265Y027850D03*
X030265Y027350D03*
X030265Y026850D03*
X030265Y026350D03*
X030265Y025850D03*
X030265Y025350D03*
X030265Y024850D03*
X030265Y030100D03*
X030265Y030600D03*
X030265Y031100D03*
X030265Y031600D03*
X030265Y032100D03*
X030265Y032600D03*
X030265Y033100D03*
X032685Y033100D03*
X032685Y032600D03*
X032685Y032100D03*
X032685Y031600D03*
X032685Y031100D03*
X032685Y030600D03*
X032685Y030100D03*
D30*
X058625Y032725D03*
X061325Y032725D03*
D31*
X054225Y035250D03*
X054225Y037950D03*
D32*
X050600Y028913D03*
X048100Y028913D03*
D33*
X047850Y031975D03*
X047850Y034475D03*
D34*
X049619Y037475D03*
X051331Y037475D03*
D35*
X003350Y007950D03*
X003350Y005750D03*
D36*
X052498Y033940D02*
X052498Y034316D01*
X052498Y033940D02*
X052202Y033940D01*
X052202Y034316D01*
X052498Y034316D01*
X052498Y034038D02*
X052202Y034038D01*
X052202Y034136D02*
X052498Y034136D01*
X052498Y034234D02*
X052202Y034234D01*
X052498Y034884D02*
X052498Y035260D01*
X052498Y034884D02*
X052202Y034884D01*
X052202Y035260D01*
X052498Y035260D01*
X052498Y034982D02*
X052202Y034982D01*
X052202Y035080D02*
X052498Y035080D01*
X052498Y035178D02*
X052202Y035178D01*
X055065Y034248D02*
X055441Y034248D01*
X055441Y033952D01*
X055065Y033952D01*
X055065Y034248D01*
X055065Y034050D02*
X055441Y034050D01*
X055441Y034148D02*
X055065Y034148D01*
X055065Y034246D02*
X055441Y034246D01*
X056009Y034248D02*
X056385Y034248D01*
X056385Y033952D01*
X056009Y033952D01*
X056009Y034248D01*
X056009Y034050D02*
X056385Y034050D01*
X056385Y034148D02*
X056009Y034148D01*
X056009Y034246D02*
X056385Y034246D01*
X057077Y033885D02*
X057077Y033509D01*
X057077Y033885D02*
X057373Y033885D01*
X057373Y033509D01*
X057077Y033509D01*
X057077Y033607D02*
X057373Y033607D01*
X057373Y033705D02*
X057077Y033705D01*
X057077Y033803D02*
X057373Y033803D01*
X057077Y032941D02*
X057077Y032565D01*
X057077Y032941D02*
X057373Y032941D01*
X057373Y032565D01*
X057077Y032565D01*
X057077Y032663D02*
X057373Y032663D01*
X057373Y032761D02*
X057077Y032761D01*
X057077Y032859D02*
X057373Y032859D01*
X055577Y032635D02*
X055577Y032259D01*
X055577Y032635D02*
X055873Y032635D01*
X055873Y032259D01*
X055577Y032259D01*
X055577Y032357D02*
X055873Y032357D01*
X055873Y032455D02*
X055577Y032455D01*
X055577Y032553D02*
X055873Y032553D01*
X055577Y031691D02*
X055577Y031315D01*
X055577Y031691D02*
X055873Y031691D01*
X055873Y031315D01*
X055577Y031315D01*
X055577Y031413D02*
X055873Y031413D01*
X055873Y031511D02*
X055577Y031511D01*
X055577Y031609D02*
X055873Y031609D01*
D37*
X062350Y038850D03*
X062350Y001350D03*
X001350Y001350D03*
X001350Y038850D03*
D38*
X050600Y016350D03*
D39*
X050600Y015350D03*
X049600Y015350D03*
X048600Y015350D03*
X048600Y016350D03*
X049600Y016350D03*
X048600Y017350D03*
X048600Y018350D03*
X048600Y019350D03*
X048600Y020350D03*
X048600Y021350D03*
X049600Y021350D03*
X050600Y021350D03*
X051600Y021350D03*
X052600Y021350D03*
X053600Y021350D03*
X054600Y021350D03*
X054600Y020350D03*
X053600Y020350D03*
X053600Y019350D03*
X054600Y019350D03*
X054600Y018350D03*
X053600Y018350D03*
X053600Y017350D03*
X054600Y017350D03*
X054600Y016350D03*
X053600Y016350D03*
X053600Y015350D03*
X052600Y015350D03*
X051600Y015350D03*
X051600Y016350D03*
X052600Y016350D03*
X047600Y016350D03*
X047600Y017350D03*
X047600Y018350D03*
X047600Y019350D03*
X047600Y020350D03*
X047600Y021350D03*
X048600Y022350D03*
X049600Y022350D03*
X050600Y022350D03*
X051600Y022350D03*
X052600Y022350D03*
X053600Y022350D03*
D40*
X017100Y021690D03*
X016600Y021690D03*
X016100Y021690D03*
X015600Y021690D03*
X015100Y021690D03*
X014600Y021690D03*
X014100Y021690D03*
X013600Y021690D03*
X013100Y021690D03*
X012600Y021690D03*
X012600Y018010D03*
X013100Y018010D03*
X013600Y018010D03*
X014100Y018010D03*
X014600Y018010D03*
X015100Y018010D03*
X015600Y018010D03*
X016100Y018010D03*
X016600Y018010D03*
X017100Y018010D03*
X006725Y026510D03*
X006225Y026510D03*
X005725Y026510D03*
X005225Y026510D03*
X004725Y026510D03*
X004225Y026510D03*
X003725Y026510D03*
X003225Y026510D03*
X002725Y026510D03*
X002225Y026510D03*
X002225Y030190D03*
X002725Y030190D03*
X003225Y030190D03*
X003725Y030190D03*
X004225Y030190D03*
X004725Y030190D03*
X005225Y030190D03*
X005725Y030190D03*
X006225Y030190D03*
X006725Y030190D03*
D41*
X035097Y037414D03*
X036071Y037414D03*
X036879Y037414D03*
X037873Y037414D03*
X043347Y037414D03*
X044321Y037414D03*
X045129Y037414D03*
X046123Y037414D03*
D42*
X047028Y038174D02*
X047028Y038874D01*
X042422Y038874D02*
X042422Y038174D01*
X038778Y038174D02*
X038778Y038874D01*
X034172Y038874D02*
X034172Y038174D01*
D43*
X035589Y038497D03*
X037361Y038497D03*
X043839Y038497D03*
X045611Y038497D03*
D44*
X047028Y038367D03*
X047028Y038209D03*
X047028Y038682D03*
X047028Y038839D03*
X042422Y038839D03*
X042422Y038682D03*
X042422Y038367D03*
X042422Y038209D03*
X038778Y038209D03*
X038778Y038367D03*
X038778Y038682D03*
X038778Y038839D03*
X034172Y038839D03*
X034172Y038682D03*
X034172Y038367D03*
X034172Y038209D03*
D45*
X049451Y035100D03*
X049451Y034600D03*
X049451Y034100D03*
X049451Y033600D03*
X051499Y033600D03*
X051499Y034100D03*
X051499Y034600D03*
X051499Y035100D03*
D46*
X060475Y028225D03*
D47*
X057195Y028225D03*
X057195Y027555D03*
X057195Y026885D03*
X057195Y028895D03*
X057195Y029565D03*
D48*
X050575Y031100D03*
X049375Y031100D03*
D49*
X049865Y031792D02*
X050085Y031792D01*
X049865Y031792D02*
X049865Y032648D01*
X050085Y032648D01*
X050085Y031792D01*
X050085Y032451D02*
X049865Y032451D01*
D50*
X049975Y031070D03*
D51*
X048380Y031105D02*
X048020Y031105D01*
X048380Y031105D02*
X048380Y030595D01*
X048020Y030595D01*
X048020Y031105D01*
X048020Y030714D02*
X048380Y030714D01*
X048380Y030833D02*
X048020Y030833D01*
X048020Y030952D02*
X048380Y030952D01*
X048380Y031071D02*
X048020Y031071D01*
X047680Y031105D02*
X047320Y031105D01*
X047680Y031105D02*
X047680Y030595D01*
X047320Y030595D01*
X047320Y031105D01*
X047320Y030714D02*
X047680Y030714D01*
X047680Y030833D02*
X047320Y030833D01*
X047320Y030952D02*
X047680Y030952D01*
X047680Y031071D02*
X047320Y031071D01*
X052480Y031695D02*
X052480Y032055D01*
X052480Y031695D02*
X051970Y031695D01*
X051970Y032055D01*
X052480Y032055D01*
X052480Y031814D02*
X051970Y031814D01*
X051970Y031933D02*
X052480Y031933D01*
X052480Y032052D02*
X051970Y032052D01*
X052480Y032395D02*
X052480Y032755D01*
X052480Y032395D02*
X051970Y032395D01*
X051970Y032755D01*
X052480Y032755D01*
X052480Y032514D02*
X051970Y032514D01*
X051970Y032633D02*
X052480Y032633D01*
X052480Y032752D02*
X051970Y032752D01*
X020095Y032695D02*
X020095Y033055D01*
X020605Y033055D01*
X020605Y032695D01*
X020095Y032695D01*
X020095Y032814D02*
X020605Y032814D01*
X020605Y032933D02*
X020095Y032933D01*
X020095Y033052D02*
X020605Y033052D01*
X020095Y033395D02*
X020095Y033755D01*
X020605Y033755D01*
X020605Y033395D01*
X020095Y033395D01*
X020095Y033514D02*
X020605Y033514D01*
X020605Y033633D02*
X020095Y033633D01*
X020095Y033752D02*
X020605Y033752D01*
D52*
X062475Y024225D03*
X062475Y009100D03*
D53*
X061475Y009100D03*
X060475Y009100D03*
X059475Y009100D03*
X059475Y024225D03*
X060475Y024225D03*
X061475Y024225D03*
D54*
X057744Y021993D03*
X056956Y021993D03*
X056956Y021205D03*
X057744Y021205D03*
X057744Y020418D03*
X057744Y019631D03*
X056956Y019631D03*
X056956Y020418D03*
X056956Y018843D03*
X057744Y018843D03*
X057744Y018056D03*
X056956Y018056D03*
X056956Y017268D03*
X056956Y016481D03*
X057744Y016481D03*
X057744Y017268D03*
X057744Y015694D03*
X056956Y015694D03*
X056956Y014906D03*
X057744Y014906D03*
X057744Y014119D03*
X057744Y013331D03*
X056956Y013331D03*
X056956Y014119D03*
X056956Y012544D03*
X057744Y012544D03*
X057744Y011756D03*
X057744Y010969D03*
X056956Y010969D03*
X056956Y011756D03*
X056956Y010182D03*
X057744Y010182D03*
X057744Y009394D03*
X056956Y009394D03*
X056956Y008607D03*
X056956Y007819D03*
X057744Y007819D03*
X057744Y008607D03*
X057744Y007032D03*
X056956Y007032D03*
X056956Y006245D03*
X057744Y006245D03*
X057744Y005457D03*
X056956Y005457D03*
D55*
X062225Y011100D03*
D56*
X056396Y026841D02*
X056396Y030109D01*
D57*
X053975Y030148D03*
X053975Y026802D03*
D58*
X020860Y030440D03*
X020600Y030440D03*
X020340Y030440D03*
X020340Y031260D03*
X020600Y031260D03*
X020860Y031260D03*
D59*
X004350Y036350D03*
D60*
X004350Y035350D03*
X004350Y034350D03*
X004350Y033350D03*
X005350Y033350D03*
X005350Y034350D03*
X005350Y035350D03*
X005350Y036350D03*
D61*
X040475Y035908D03*
X040475Y035042D03*
D62*
X041100Y034600D03*
X042100Y034100D03*
X042975Y034725D03*
X040600Y033475D03*
X039725Y033475D03*
X037475Y034725D03*
X034538Y033663D03*
X034350Y032350D03*
X034850Y031225D03*
X035225Y030350D03*
X038225Y029975D03*
X039600Y030350D03*
X040600Y030350D03*
X042600Y028475D03*
X042475Y027725D03*
X043600Y028100D03*
X045350Y030475D03*
X046350Y030600D03*
X046350Y031100D03*
X046350Y031600D03*
X048975Y030600D03*
X046975Y028725D03*
X046725Y027788D03*
X048100Y026225D03*
X049663Y026100D03*
X049725Y024350D03*
X049100Y024350D03*
X050350Y024350D03*
X050975Y024350D03*
X051600Y024350D03*
X054100Y024350D03*
X054100Y025350D03*
X057350Y024288D03*
X059350Y025725D03*
X059850Y025725D03*
X060350Y025725D03*
X060850Y025725D03*
X061350Y025725D03*
X061350Y030725D03*
X060850Y030725D03*
X060350Y030725D03*
X059850Y030725D03*
X059350Y030725D03*
X054475Y033350D03*
X053975Y033350D03*
X053475Y033350D03*
X048350Y037100D03*
X048350Y037725D03*
X048350Y038350D03*
X041350Y038100D03*
X039725Y038100D03*
X034225Y037350D03*
X030975Y034850D03*
X030975Y034225D03*
X028850Y035350D03*
X026225Y037600D03*
X025350Y037600D03*
X024850Y035850D03*
X024475Y034850D03*
X024475Y033850D03*
X022850Y036350D03*
X021700Y038075D03*
X020725Y038100D03*
X019975Y035350D03*
X019975Y034350D03*
X019975Y032100D03*
X020600Y032100D03*
X023350Y030350D03*
X024475Y027850D03*
X026975Y029350D03*
X027350Y030350D03*
X027100Y031350D03*
X028725Y030475D03*
X029475Y031100D03*
X030975Y028475D03*
X031350Y026475D03*
X033475Y026850D03*
X034225Y026600D03*
X035975Y026975D03*
X036600Y024350D03*
X035975Y023850D03*
X034975Y023850D03*
X032725Y023850D03*
X030350Y023975D03*
X029975Y022350D03*
X027600Y022725D03*
X026350Y021850D03*
X025850Y020850D03*
X029975Y017850D03*
X030725Y015850D03*
X037475Y012475D03*
X038225Y013350D03*
X040975Y012725D03*
X041475Y012475D03*
X041975Y012225D03*
X042475Y011975D03*
X042975Y011725D03*
X043725Y011350D03*
X044225Y011100D03*
X044725Y010850D03*
X045225Y010600D03*
X045725Y010350D03*
X044475Y009225D03*
X043850Y008725D03*
X042225Y008100D03*
X041350Y008100D03*
X039600Y007225D03*
X039100Y008100D03*
X039225Y009100D03*
X038225Y009475D03*
X037725Y009100D03*
X037350Y009975D03*
X036725Y008725D03*
X035225Y010600D03*
X032475Y010600D03*
X029100Y008975D03*
X026975Y009225D03*
X026100Y009350D03*
X025225Y009350D03*
X024850Y008850D03*
X019350Y013100D03*
X018100Y013600D03*
X018496Y014704D03*
X017725Y014725D03*
X016975Y014725D03*
X016225Y014725D03*
X015850Y014100D03*
X013850Y014725D03*
X012600Y014725D03*
X011225Y014100D03*
X012600Y013600D03*
X013850Y013100D03*
X011225Y012600D03*
X010350Y012600D03*
X009725Y012600D03*
X009100Y012600D03*
X008100Y012600D03*
X009100Y014600D03*
X009725Y014975D03*
X010350Y015350D03*
X008100Y015100D03*
X007100Y015725D03*
X006725Y015100D03*
X006350Y016225D03*
X005350Y015225D03*
X004975Y014600D03*
X004600Y013975D03*
X002600Y011850D03*
X003350Y011350D03*
X002975Y010850D03*
X010600Y009725D03*
X011225Y010100D03*
X012350Y010475D03*
X013100Y010100D03*
X014850Y009350D03*
X015850Y008850D03*
X018643Y015975D03*
X016600Y017225D03*
X017725Y018100D03*
X019350Y020850D03*
X018850Y021225D03*
X018350Y021600D03*
X019350Y021975D03*
X020100Y022475D03*
X019350Y022975D03*
X018350Y023600D03*
X013100Y023350D03*
X011850Y021975D03*
X011350Y022350D03*
X007600Y021100D03*
X006225Y021350D03*
X005725Y019850D03*
X006225Y018475D03*
X008100Y016725D03*
X006100Y022975D03*
X004100Y023475D03*
X003725Y024100D03*
X003350Y023475D03*
X002975Y022850D03*
X002600Y023850D03*
X001350Y027350D03*
X001350Y029100D03*
X002725Y029475D03*
X003225Y031100D03*
X003725Y031600D03*
X006225Y033350D03*
X006975Y034850D03*
X009225Y037600D03*
X005975Y038475D03*
X005100Y038475D03*
X004225Y038475D03*
X001350Y036475D03*
X006850Y028975D03*
X007475Y024975D03*
X012725Y029350D03*
X012725Y031350D03*
X014975Y031350D03*
X014975Y029350D03*
X015975Y037600D03*
X037725Y023350D03*
X038350Y022725D03*
X040475Y023475D03*
X040475Y024350D03*
X039600Y024850D03*
X040725Y025225D03*
X040225Y025600D03*
X041225Y025975D03*
X040100Y027350D03*
X042975Y024225D03*
X042475Y023850D03*
X041975Y023475D03*
X043725Y024600D03*
X044225Y024975D03*
X044725Y024725D03*
X045225Y024975D03*
X046100Y024850D03*
X045725Y021350D03*
X045225Y020850D03*
X044725Y020350D03*
X044225Y019850D03*
X043725Y019350D03*
X042975Y018350D03*
X042475Y017850D03*
X041975Y017350D03*
X041475Y016850D03*
X040975Y016350D03*
X046225Y015850D03*
X048600Y014100D03*
X048100Y012350D03*
X047475Y011600D03*
X049600Y011475D03*
X051600Y012225D03*
X053600Y010975D03*
X054631Y010256D03*
X054631Y012350D03*
X054100Y012944D03*
X054600Y013850D03*
X055850Y013756D03*
X055850Y014475D03*
X055850Y015506D03*
X054600Y015725D03*
X052600Y014163D03*
X059350Y015788D03*
X062100Y015788D03*
X062100Y017413D03*
X061350Y011663D03*
X059288Y011663D03*
X049600Y007850D03*
X048350Y009100D03*
X045725Y008600D03*
X041600Y004725D03*
X039600Y004350D03*
X037475Y004850D03*
X037100Y001975D03*
X033225Y003850D03*
X041725Y001975D03*
X040600Y020725D03*
X040600Y021600D03*
X061975Y034850D03*
X061975Y035475D03*
X061975Y036100D03*
X003850Y004850D03*
X002850Y004850D03*
D63*
X058850Y026975D03*
X058850Y027475D03*
X058850Y027975D03*
X058850Y028475D03*
X058850Y028975D03*
X058850Y029475D03*
X059350Y029475D03*
X059850Y029475D03*
X059850Y028975D03*
X059350Y028975D03*
X059350Y028475D03*
X059850Y028475D03*
X059850Y027975D03*
X059350Y027975D03*
X059350Y027475D03*
X059850Y027475D03*
X059850Y026975D03*
X059350Y026975D03*
X060350Y026975D03*
X060350Y027475D03*
X060350Y027975D03*
X060350Y028475D03*
X060350Y028975D03*
X060350Y029475D03*
X060850Y029475D03*
X060850Y028975D03*
X060850Y028475D03*
X060850Y027975D03*
X060850Y027475D03*
X060850Y026975D03*
X061350Y026975D03*
X061350Y027475D03*
X061350Y027975D03*
X061350Y028475D03*
X061350Y028975D03*
X061350Y029475D03*
X061850Y029475D03*
X061850Y028975D03*
X061850Y028475D03*
X061850Y027975D03*
X061850Y027475D03*
X061850Y026975D03*
D64*
X054350Y031725D03*
X053600Y031725D03*
X053600Y032475D03*
X054350Y032475D03*
X049881Y027350D03*
X046475Y034600D03*
X046475Y035475D03*
X049600Y013475D03*
M02*
