G75*
%MOIN*%
%OFA0B0*%
%FSLAX24Y24*%
%IPPOS*%
%LPD*%
%AMOC8*
5,1,8,0,0,1.08239X$1,22.5*
%
%ADD10C,0.0000*%
%ADD11C,0.0050*%
%ADD12C,0.0020*%
%ADD13C,0.0001*%
%ADD14C,0.0080*%
D10*
X000350Y001350D02*
X000350Y038720D01*
X000352Y038780D01*
X000357Y038841D01*
X000366Y038900D01*
X000379Y038959D01*
X000395Y039018D01*
X000415Y039075D01*
X000438Y039130D01*
X000465Y039185D01*
X000494Y039237D01*
X000527Y039288D01*
X000563Y039337D01*
X000601Y039383D01*
X000643Y039427D01*
X000687Y039469D01*
X000733Y039507D01*
X000782Y039543D01*
X000833Y039576D01*
X000885Y039605D01*
X000940Y039632D01*
X000995Y039655D01*
X001052Y039675D01*
X001111Y039691D01*
X001170Y039704D01*
X001229Y039713D01*
X001290Y039718D01*
X001350Y039720D01*
X062342Y039720D01*
X062402Y039718D01*
X062463Y039713D01*
X062522Y039704D01*
X062581Y039691D01*
X062640Y039675D01*
X062697Y039655D01*
X062752Y039632D01*
X062807Y039605D01*
X062859Y039576D01*
X062910Y039543D01*
X062959Y039507D01*
X063005Y039469D01*
X063049Y039427D01*
X063091Y039383D01*
X063129Y039337D01*
X063165Y039288D01*
X063198Y039237D01*
X063227Y039185D01*
X063254Y039130D01*
X063277Y039075D01*
X063297Y039018D01*
X063313Y038959D01*
X063326Y038900D01*
X063335Y038841D01*
X063340Y038780D01*
X063342Y038720D01*
X063342Y001350D01*
X063340Y001290D01*
X063335Y001229D01*
X063326Y001170D01*
X063313Y001111D01*
X063297Y001052D01*
X063277Y000995D01*
X063254Y000940D01*
X063227Y000885D01*
X063198Y000833D01*
X063165Y000782D01*
X063129Y000733D01*
X063091Y000687D01*
X063049Y000643D01*
X063005Y000601D01*
X062959Y000563D01*
X062910Y000527D01*
X062859Y000494D01*
X062807Y000465D01*
X062752Y000438D01*
X062697Y000415D01*
X062640Y000395D01*
X062581Y000379D01*
X062522Y000366D01*
X062463Y000357D01*
X062402Y000352D01*
X062342Y000350D01*
X001350Y000350D01*
X001290Y000352D01*
X001229Y000357D01*
X001170Y000366D01*
X001111Y000379D01*
X001052Y000395D01*
X000995Y000415D01*
X000940Y000438D01*
X000885Y000465D01*
X000833Y000494D01*
X000782Y000527D01*
X000733Y000563D01*
X000687Y000601D01*
X000643Y000643D01*
X000601Y000687D01*
X000563Y000733D01*
X000527Y000782D01*
X000494Y000833D01*
X000465Y000885D01*
X000438Y000940D01*
X000415Y000995D01*
X000395Y001052D01*
X000379Y001111D01*
X000366Y001170D01*
X000357Y001229D01*
X000352Y001290D01*
X000350Y001350D01*
X001799Y002350D02*
X001801Y002397D01*
X001807Y002443D01*
X001817Y002489D01*
X001830Y002534D01*
X001848Y002577D01*
X001869Y002619D01*
X001893Y002659D01*
X001921Y002696D01*
X001952Y002731D01*
X001986Y002764D01*
X002022Y002793D01*
X002061Y002819D01*
X002102Y002842D01*
X002145Y002861D01*
X002189Y002877D01*
X002234Y002889D01*
X002280Y002897D01*
X002327Y002901D01*
X002373Y002901D01*
X002420Y002897D01*
X002466Y002889D01*
X002511Y002877D01*
X002555Y002861D01*
X002598Y002842D01*
X002639Y002819D01*
X002678Y002793D01*
X002714Y002764D01*
X002748Y002731D01*
X002779Y002696D01*
X002807Y002659D01*
X002831Y002619D01*
X002852Y002577D01*
X002870Y002534D01*
X002883Y002489D01*
X002893Y002443D01*
X002899Y002397D01*
X002901Y002350D01*
X002899Y002303D01*
X002893Y002257D01*
X002883Y002211D01*
X002870Y002166D01*
X002852Y002123D01*
X002831Y002081D01*
X002807Y002041D01*
X002779Y002004D01*
X002748Y001969D01*
X002714Y001936D01*
X002678Y001907D01*
X002639Y001881D01*
X002598Y001858D01*
X002555Y001839D01*
X002511Y001823D01*
X002466Y001811D01*
X002420Y001803D01*
X002373Y001799D01*
X002327Y001799D01*
X002280Y001803D01*
X002234Y001811D01*
X002189Y001823D01*
X002145Y001839D01*
X002102Y001858D01*
X002061Y001881D01*
X002022Y001907D01*
X001986Y001936D01*
X001952Y001969D01*
X001921Y002004D01*
X001893Y002041D01*
X001869Y002081D01*
X001848Y002123D01*
X001830Y002166D01*
X001817Y002211D01*
X001807Y002257D01*
X001801Y002303D01*
X001799Y002350D01*
X001799Y037850D02*
X001801Y037897D01*
X001807Y037943D01*
X001817Y037989D01*
X001830Y038034D01*
X001848Y038077D01*
X001869Y038119D01*
X001893Y038159D01*
X001921Y038196D01*
X001952Y038231D01*
X001986Y038264D01*
X002022Y038293D01*
X002061Y038319D01*
X002102Y038342D01*
X002145Y038361D01*
X002189Y038377D01*
X002234Y038389D01*
X002280Y038397D01*
X002327Y038401D01*
X002373Y038401D01*
X002420Y038397D01*
X002466Y038389D01*
X002511Y038377D01*
X002555Y038361D01*
X002598Y038342D01*
X002639Y038319D01*
X002678Y038293D01*
X002714Y038264D01*
X002748Y038231D01*
X002779Y038196D01*
X002807Y038159D01*
X002831Y038119D01*
X002852Y038077D01*
X002870Y038034D01*
X002883Y037989D01*
X002893Y037943D01*
X002899Y037897D01*
X002901Y037850D01*
X002899Y037803D01*
X002893Y037757D01*
X002883Y037711D01*
X002870Y037666D01*
X002852Y037623D01*
X002831Y037581D01*
X002807Y037541D01*
X002779Y037504D01*
X002748Y037469D01*
X002714Y037436D01*
X002678Y037407D01*
X002639Y037381D01*
X002598Y037358D01*
X002555Y037339D01*
X002511Y037323D01*
X002466Y037311D01*
X002420Y037303D01*
X002373Y037299D01*
X002327Y037299D01*
X002280Y037303D01*
X002234Y037311D01*
X002189Y037323D01*
X002145Y037339D01*
X002102Y037358D01*
X002061Y037381D01*
X002022Y037407D01*
X001986Y037436D01*
X001952Y037469D01*
X001921Y037504D01*
X001893Y037541D01*
X001869Y037581D01*
X001848Y037623D01*
X001830Y037666D01*
X001817Y037711D01*
X001807Y037757D01*
X001801Y037803D01*
X001799Y037850D01*
X034015Y038209D02*
X034017Y038234D01*
X034023Y038258D01*
X034032Y038280D01*
X034045Y038301D01*
X034061Y038320D01*
X034080Y038336D01*
X034101Y038349D01*
X034123Y038358D01*
X034147Y038364D01*
X034172Y038366D01*
X034197Y038364D01*
X034221Y038358D01*
X034243Y038349D01*
X034264Y038336D01*
X034283Y038320D01*
X034299Y038301D01*
X034312Y038280D01*
X034321Y038258D01*
X034327Y038234D01*
X034329Y038209D01*
X034327Y038184D01*
X034321Y038160D01*
X034312Y038138D01*
X034299Y038117D01*
X034283Y038098D01*
X034264Y038082D01*
X034243Y038069D01*
X034221Y038060D01*
X034197Y038054D01*
X034172Y038052D01*
X034147Y038054D01*
X034123Y038060D01*
X034101Y038069D01*
X034080Y038082D01*
X034061Y038098D01*
X034045Y038117D01*
X034032Y038138D01*
X034023Y038160D01*
X034017Y038184D01*
X034015Y038209D01*
X034015Y038367D02*
X034017Y038392D01*
X034023Y038416D01*
X034032Y038438D01*
X034045Y038459D01*
X034061Y038478D01*
X034080Y038494D01*
X034101Y038507D01*
X034123Y038516D01*
X034147Y038522D01*
X034172Y038524D01*
X034197Y038522D01*
X034221Y038516D01*
X034243Y038507D01*
X034264Y038494D01*
X034283Y038478D01*
X034299Y038459D01*
X034312Y038438D01*
X034321Y038416D01*
X034327Y038392D01*
X034329Y038367D01*
X034327Y038342D01*
X034321Y038318D01*
X034312Y038296D01*
X034299Y038275D01*
X034283Y038256D01*
X034264Y038240D01*
X034243Y038227D01*
X034221Y038218D01*
X034197Y038212D01*
X034172Y038210D01*
X034147Y038212D01*
X034123Y038218D01*
X034101Y038227D01*
X034080Y038240D01*
X034061Y038256D01*
X034045Y038275D01*
X034032Y038296D01*
X034023Y038318D01*
X034017Y038342D01*
X034015Y038367D01*
X034015Y038682D02*
X034017Y038707D01*
X034023Y038731D01*
X034032Y038753D01*
X034045Y038774D01*
X034061Y038793D01*
X034080Y038809D01*
X034101Y038822D01*
X034123Y038831D01*
X034147Y038837D01*
X034172Y038839D01*
X034197Y038837D01*
X034221Y038831D01*
X034243Y038822D01*
X034264Y038809D01*
X034283Y038793D01*
X034299Y038774D01*
X034312Y038753D01*
X034321Y038731D01*
X034327Y038707D01*
X034329Y038682D01*
X034327Y038657D01*
X034321Y038633D01*
X034312Y038611D01*
X034299Y038590D01*
X034283Y038571D01*
X034264Y038555D01*
X034243Y038542D01*
X034221Y038533D01*
X034197Y038527D01*
X034172Y038525D01*
X034147Y038527D01*
X034123Y038533D01*
X034101Y038542D01*
X034080Y038555D01*
X034061Y038571D01*
X034045Y038590D01*
X034032Y038611D01*
X034023Y038633D01*
X034017Y038657D01*
X034015Y038682D01*
X034015Y038839D02*
X034017Y038864D01*
X034023Y038888D01*
X034032Y038910D01*
X034045Y038931D01*
X034061Y038950D01*
X034080Y038966D01*
X034101Y038979D01*
X034123Y038988D01*
X034147Y038994D01*
X034172Y038996D01*
X034197Y038994D01*
X034221Y038988D01*
X034243Y038979D01*
X034264Y038966D01*
X034283Y038950D01*
X034299Y038931D01*
X034312Y038910D01*
X034321Y038888D01*
X034327Y038864D01*
X034329Y038839D01*
X034327Y038814D01*
X034321Y038790D01*
X034312Y038768D01*
X034299Y038747D01*
X034283Y038728D01*
X034264Y038712D01*
X034243Y038699D01*
X034221Y038690D01*
X034197Y038684D01*
X034172Y038682D01*
X034147Y038684D01*
X034123Y038690D01*
X034101Y038699D01*
X034080Y038712D01*
X034061Y038728D01*
X034045Y038747D01*
X034032Y038768D01*
X034023Y038790D01*
X034017Y038814D01*
X034015Y038839D01*
X035372Y038497D02*
X035374Y038526D01*
X035380Y038554D01*
X035389Y038582D01*
X035402Y038608D01*
X035419Y038631D01*
X035438Y038653D01*
X035460Y038672D01*
X035485Y038687D01*
X035511Y038700D01*
X035539Y038708D01*
X035567Y038713D01*
X035596Y038714D01*
X035625Y038711D01*
X035653Y038704D01*
X035680Y038694D01*
X035706Y038680D01*
X035729Y038663D01*
X035750Y038643D01*
X035768Y038620D01*
X035783Y038595D01*
X035794Y038568D01*
X035802Y038540D01*
X035806Y038511D01*
X035806Y038483D01*
X035802Y038454D01*
X035794Y038426D01*
X035783Y038399D01*
X035768Y038374D01*
X035750Y038351D01*
X035729Y038331D01*
X035706Y038314D01*
X035680Y038300D01*
X035653Y038290D01*
X035625Y038283D01*
X035596Y038280D01*
X035567Y038281D01*
X035539Y038286D01*
X035511Y038294D01*
X035485Y038307D01*
X035460Y038322D01*
X035438Y038341D01*
X035419Y038363D01*
X035402Y038386D01*
X035389Y038412D01*
X035380Y038440D01*
X035374Y038468D01*
X035372Y038497D01*
X037144Y038497D02*
X037146Y038526D01*
X037152Y038554D01*
X037161Y038582D01*
X037174Y038608D01*
X037191Y038631D01*
X037210Y038653D01*
X037232Y038672D01*
X037257Y038687D01*
X037283Y038700D01*
X037311Y038708D01*
X037339Y038713D01*
X037368Y038714D01*
X037397Y038711D01*
X037425Y038704D01*
X037452Y038694D01*
X037478Y038680D01*
X037501Y038663D01*
X037522Y038643D01*
X037540Y038620D01*
X037555Y038595D01*
X037566Y038568D01*
X037574Y038540D01*
X037578Y038511D01*
X037578Y038483D01*
X037574Y038454D01*
X037566Y038426D01*
X037555Y038399D01*
X037540Y038374D01*
X037522Y038351D01*
X037501Y038331D01*
X037478Y038314D01*
X037452Y038300D01*
X037425Y038290D01*
X037397Y038283D01*
X037368Y038280D01*
X037339Y038281D01*
X037311Y038286D01*
X037283Y038294D01*
X037257Y038307D01*
X037232Y038322D01*
X037210Y038341D01*
X037191Y038363D01*
X037174Y038386D01*
X037161Y038412D01*
X037152Y038440D01*
X037146Y038468D01*
X037144Y038497D01*
X038621Y038367D02*
X038623Y038392D01*
X038629Y038416D01*
X038638Y038438D01*
X038651Y038459D01*
X038667Y038478D01*
X038686Y038494D01*
X038707Y038507D01*
X038729Y038516D01*
X038753Y038522D01*
X038778Y038524D01*
X038803Y038522D01*
X038827Y038516D01*
X038849Y038507D01*
X038870Y038494D01*
X038889Y038478D01*
X038905Y038459D01*
X038918Y038438D01*
X038927Y038416D01*
X038933Y038392D01*
X038935Y038367D01*
X038933Y038342D01*
X038927Y038318D01*
X038918Y038296D01*
X038905Y038275D01*
X038889Y038256D01*
X038870Y038240D01*
X038849Y038227D01*
X038827Y038218D01*
X038803Y038212D01*
X038778Y038210D01*
X038753Y038212D01*
X038729Y038218D01*
X038707Y038227D01*
X038686Y038240D01*
X038667Y038256D01*
X038651Y038275D01*
X038638Y038296D01*
X038629Y038318D01*
X038623Y038342D01*
X038621Y038367D01*
X038621Y038209D02*
X038623Y038234D01*
X038629Y038258D01*
X038638Y038280D01*
X038651Y038301D01*
X038667Y038320D01*
X038686Y038336D01*
X038707Y038349D01*
X038729Y038358D01*
X038753Y038364D01*
X038778Y038366D01*
X038803Y038364D01*
X038827Y038358D01*
X038849Y038349D01*
X038870Y038336D01*
X038889Y038320D01*
X038905Y038301D01*
X038918Y038280D01*
X038927Y038258D01*
X038933Y038234D01*
X038935Y038209D01*
X038933Y038184D01*
X038927Y038160D01*
X038918Y038138D01*
X038905Y038117D01*
X038889Y038098D01*
X038870Y038082D01*
X038849Y038069D01*
X038827Y038060D01*
X038803Y038054D01*
X038778Y038052D01*
X038753Y038054D01*
X038729Y038060D01*
X038707Y038069D01*
X038686Y038082D01*
X038667Y038098D01*
X038651Y038117D01*
X038638Y038138D01*
X038629Y038160D01*
X038623Y038184D01*
X038621Y038209D01*
X038621Y038682D02*
X038623Y038707D01*
X038629Y038731D01*
X038638Y038753D01*
X038651Y038774D01*
X038667Y038793D01*
X038686Y038809D01*
X038707Y038822D01*
X038729Y038831D01*
X038753Y038837D01*
X038778Y038839D01*
X038803Y038837D01*
X038827Y038831D01*
X038849Y038822D01*
X038870Y038809D01*
X038889Y038793D01*
X038905Y038774D01*
X038918Y038753D01*
X038927Y038731D01*
X038933Y038707D01*
X038935Y038682D01*
X038933Y038657D01*
X038927Y038633D01*
X038918Y038611D01*
X038905Y038590D01*
X038889Y038571D01*
X038870Y038555D01*
X038849Y038542D01*
X038827Y038533D01*
X038803Y038527D01*
X038778Y038525D01*
X038753Y038527D01*
X038729Y038533D01*
X038707Y038542D01*
X038686Y038555D01*
X038667Y038571D01*
X038651Y038590D01*
X038638Y038611D01*
X038629Y038633D01*
X038623Y038657D01*
X038621Y038682D01*
X038621Y038839D02*
X038623Y038864D01*
X038629Y038888D01*
X038638Y038910D01*
X038651Y038931D01*
X038667Y038950D01*
X038686Y038966D01*
X038707Y038979D01*
X038729Y038988D01*
X038753Y038994D01*
X038778Y038996D01*
X038803Y038994D01*
X038827Y038988D01*
X038849Y038979D01*
X038870Y038966D01*
X038889Y038950D01*
X038905Y038931D01*
X038918Y038910D01*
X038927Y038888D01*
X038933Y038864D01*
X038935Y038839D01*
X038933Y038814D01*
X038927Y038790D01*
X038918Y038768D01*
X038905Y038747D01*
X038889Y038728D01*
X038870Y038712D01*
X038849Y038699D01*
X038827Y038690D01*
X038803Y038684D01*
X038778Y038682D01*
X038753Y038684D01*
X038729Y038690D01*
X038707Y038699D01*
X038686Y038712D01*
X038667Y038728D01*
X038651Y038747D01*
X038638Y038768D01*
X038629Y038790D01*
X038623Y038814D01*
X038621Y038839D01*
X042265Y038839D02*
X042267Y038864D01*
X042273Y038888D01*
X042282Y038910D01*
X042295Y038931D01*
X042311Y038950D01*
X042330Y038966D01*
X042351Y038979D01*
X042373Y038988D01*
X042397Y038994D01*
X042422Y038996D01*
X042447Y038994D01*
X042471Y038988D01*
X042493Y038979D01*
X042514Y038966D01*
X042533Y038950D01*
X042549Y038931D01*
X042562Y038910D01*
X042571Y038888D01*
X042577Y038864D01*
X042579Y038839D01*
X042577Y038814D01*
X042571Y038790D01*
X042562Y038768D01*
X042549Y038747D01*
X042533Y038728D01*
X042514Y038712D01*
X042493Y038699D01*
X042471Y038690D01*
X042447Y038684D01*
X042422Y038682D01*
X042397Y038684D01*
X042373Y038690D01*
X042351Y038699D01*
X042330Y038712D01*
X042311Y038728D01*
X042295Y038747D01*
X042282Y038768D01*
X042273Y038790D01*
X042267Y038814D01*
X042265Y038839D01*
X042265Y038682D02*
X042267Y038707D01*
X042273Y038731D01*
X042282Y038753D01*
X042295Y038774D01*
X042311Y038793D01*
X042330Y038809D01*
X042351Y038822D01*
X042373Y038831D01*
X042397Y038837D01*
X042422Y038839D01*
X042447Y038837D01*
X042471Y038831D01*
X042493Y038822D01*
X042514Y038809D01*
X042533Y038793D01*
X042549Y038774D01*
X042562Y038753D01*
X042571Y038731D01*
X042577Y038707D01*
X042579Y038682D01*
X042577Y038657D01*
X042571Y038633D01*
X042562Y038611D01*
X042549Y038590D01*
X042533Y038571D01*
X042514Y038555D01*
X042493Y038542D01*
X042471Y038533D01*
X042447Y038527D01*
X042422Y038525D01*
X042397Y038527D01*
X042373Y038533D01*
X042351Y038542D01*
X042330Y038555D01*
X042311Y038571D01*
X042295Y038590D01*
X042282Y038611D01*
X042273Y038633D01*
X042267Y038657D01*
X042265Y038682D01*
X042265Y038367D02*
X042267Y038392D01*
X042273Y038416D01*
X042282Y038438D01*
X042295Y038459D01*
X042311Y038478D01*
X042330Y038494D01*
X042351Y038507D01*
X042373Y038516D01*
X042397Y038522D01*
X042422Y038524D01*
X042447Y038522D01*
X042471Y038516D01*
X042493Y038507D01*
X042514Y038494D01*
X042533Y038478D01*
X042549Y038459D01*
X042562Y038438D01*
X042571Y038416D01*
X042577Y038392D01*
X042579Y038367D01*
X042577Y038342D01*
X042571Y038318D01*
X042562Y038296D01*
X042549Y038275D01*
X042533Y038256D01*
X042514Y038240D01*
X042493Y038227D01*
X042471Y038218D01*
X042447Y038212D01*
X042422Y038210D01*
X042397Y038212D01*
X042373Y038218D01*
X042351Y038227D01*
X042330Y038240D01*
X042311Y038256D01*
X042295Y038275D01*
X042282Y038296D01*
X042273Y038318D01*
X042267Y038342D01*
X042265Y038367D01*
X042265Y038209D02*
X042267Y038234D01*
X042273Y038258D01*
X042282Y038280D01*
X042295Y038301D01*
X042311Y038320D01*
X042330Y038336D01*
X042351Y038349D01*
X042373Y038358D01*
X042397Y038364D01*
X042422Y038366D01*
X042447Y038364D01*
X042471Y038358D01*
X042493Y038349D01*
X042514Y038336D01*
X042533Y038320D01*
X042549Y038301D01*
X042562Y038280D01*
X042571Y038258D01*
X042577Y038234D01*
X042579Y038209D01*
X042577Y038184D01*
X042571Y038160D01*
X042562Y038138D01*
X042549Y038117D01*
X042533Y038098D01*
X042514Y038082D01*
X042493Y038069D01*
X042471Y038060D01*
X042447Y038054D01*
X042422Y038052D01*
X042397Y038054D01*
X042373Y038060D01*
X042351Y038069D01*
X042330Y038082D01*
X042311Y038098D01*
X042295Y038117D01*
X042282Y038138D01*
X042273Y038160D01*
X042267Y038184D01*
X042265Y038209D01*
X043622Y038497D02*
X043624Y038526D01*
X043630Y038554D01*
X043639Y038582D01*
X043652Y038608D01*
X043669Y038631D01*
X043688Y038653D01*
X043710Y038672D01*
X043735Y038687D01*
X043761Y038700D01*
X043789Y038708D01*
X043817Y038713D01*
X043846Y038714D01*
X043875Y038711D01*
X043903Y038704D01*
X043930Y038694D01*
X043956Y038680D01*
X043979Y038663D01*
X044000Y038643D01*
X044018Y038620D01*
X044033Y038595D01*
X044044Y038568D01*
X044052Y038540D01*
X044056Y038511D01*
X044056Y038483D01*
X044052Y038454D01*
X044044Y038426D01*
X044033Y038399D01*
X044018Y038374D01*
X044000Y038351D01*
X043979Y038331D01*
X043956Y038314D01*
X043930Y038300D01*
X043903Y038290D01*
X043875Y038283D01*
X043846Y038280D01*
X043817Y038281D01*
X043789Y038286D01*
X043761Y038294D01*
X043735Y038307D01*
X043710Y038322D01*
X043688Y038341D01*
X043669Y038363D01*
X043652Y038386D01*
X043639Y038412D01*
X043630Y038440D01*
X043624Y038468D01*
X043622Y038497D01*
X045394Y038497D02*
X045396Y038526D01*
X045402Y038554D01*
X045411Y038582D01*
X045424Y038608D01*
X045441Y038631D01*
X045460Y038653D01*
X045482Y038672D01*
X045507Y038687D01*
X045533Y038700D01*
X045561Y038708D01*
X045589Y038713D01*
X045618Y038714D01*
X045647Y038711D01*
X045675Y038704D01*
X045702Y038694D01*
X045728Y038680D01*
X045751Y038663D01*
X045772Y038643D01*
X045790Y038620D01*
X045805Y038595D01*
X045816Y038568D01*
X045824Y038540D01*
X045828Y038511D01*
X045828Y038483D01*
X045824Y038454D01*
X045816Y038426D01*
X045805Y038399D01*
X045790Y038374D01*
X045772Y038351D01*
X045751Y038331D01*
X045728Y038314D01*
X045702Y038300D01*
X045675Y038290D01*
X045647Y038283D01*
X045618Y038280D01*
X045589Y038281D01*
X045561Y038286D01*
X045533Y038294D01*
X045507Y038307D01*
X045482Y038322D01*
X045460Y038341D01*
X045441Y038363D01*
X045424Y038386D01*
X045411Y038412D01*
X045402Y038440D01*
X045396Y038468D01*
X045394Y038497D01*
X046871Y038367D02*
X046873Y038392D01*
X046879Y038416D01*
X046888Y038438D01*
X046901Y038459D01*
X046917Y038478D01*
X046936Y038494D01*
X046957Y038507D01*
X046979Y038516D01*
X047003Y038522D01*
X047028Y038524D01*
X047053Y038522D01*
X047077Y038516D01*
X047099Y038507D01*
X047120Y038494D01*
X047139Y038478D01*
X047155Y038459D01*
X047168Y038438D01*
X047177Y038416D01*
X047183Y038392D01*
X047185Y038367D01*
X047183Y038342D01*
X047177Y038318D01*
X047168Y038296D01*
X047155Y038275D01*
X047139Y038256D01*
X047120Y038240D01*
X047099Y038227D01*
X047077Y038218D01*
X047053Y038212D01*
X047028Y038210D01*
X047003Y038212D01*
X046979Y038218D01*
X046957Y038227D01*
X046936Y038240D01*
X046917Y038256D01*
X046901Y038275D01*
X046888Y038296D01*
X046879Y038318D01*
X046873Y038342D01*
X046871Y038367D01*
X046871Y038209D02*
X046873Y038234D01*
X046879Y038258D01*
X046888Y038280D01*
X046901Y038301D01*
X046917Y038320D01*
X046936Y038336D01*
X046957Y038349D01*
X046979Y038358D01*
X047003Y038364D01*
X047028Y038366D01*
X047053Y038364D01*
X047077Y038358D01*
X047099Y038349D01*
X047120Y038336D01*
X047139Y038320D01*
X047155Y038301D01*
X047168Y038280D01*
X047177Y038258D01*
X047183Y038234D01*
X047185Y038209D01*
X047183Y038184D01*
X047177Y038160D01*
X047168Y038138D01*
X047155Y038117D01*
X047139Y038098D01*
X047120Y038082D01*
X047099Y038069D01*
X047077Y038060D01*
X047053Y038054D01*
X047028Y038052D01*
X047003Y038054D01*
X046979Y038060D01*
X046957Y038069D01*
X046936Y038082D01*
X046917Y038098D01*
X046901Y038117D01*
X046888Y038138D01*
X046879Y038160D01*
X046873Y038184D01*
X046871Y038209D01*
X046871Y038682D02*
X046873Y038707D01*
X046879Y038731D01*
X046888Y038753D01*
X046901Y038774D01*
X046917Y038793D01*
X046936Y038809D01*
X046957Y038822D01*
X046979Y038831D01*
X047003Y038837D01*
X047028Y038839D01*
X047053Y038837D01*
X047077Y038831D01*
X047099Y038822D01*
X047120Y038809D01*
X047139Y038793D01*
X047155Y038774D01*
X047168Y038753D01*
X047177Y038731D01*
X047183Y038707D01*
X047185Y038682D01*
X047183Y038657D01*
X047177Y038633D01*
X047168Y038611D01*
X047155Y038590D01*
X047139Y038571D01*
X047120Y038555D01*
X047099Y038542D01*
X047077Y038533D01*
X047053Y038527D01*
X047028Y038525D01*
X047003Y038527D01*
X046979Y038533D01*
X046957Y038542D01*
X046936Y038555D01*
X046917Y038571D01*
X046901Y038590D01*
X046888Y038611D01*
X046879Y038633D01*
X046873Y038657D01*
X046871Y038682D01*
X046871Y038839D02*
X046873Y038864D01*
X046879Y038888D01*
X046888Y038910D01*
X046901Y038931D01*
X046917Y038950D01*
X046936Y038966D01*
X046957Y038979D01*
X046979Y038988D01*
X047003Y038994D01*
X047028Y038996D01*
X047053Y038994D01*
X047077Y038988D01*
X047099Y038979D01*
X047120Y038966D01*
X047139Y038950D01*
X047155Y038931D01*
X047168Y038910D01*
X047177Y038888D01*
X047183Y038864D01*
X047185Y038839D01*
X047183Y038814D01*
X047177Y038790D01*
X047168Y038768D01*
X047155Y038747D01*
X047139Y038728D01*
X047120Y038712D01*
X047099Y038699D01*
X047077Y038690D01*
X047053Y038684D01*
X047028Y038682D01*
X047003Y038684D01*
X046979Y038690D01*
X046957Y038699D01*
X046936Y038712D01*
X046917Y038728D01*
X046901Y038747D01*
X046888Y038768D01*
X046879Y038790D01*
X046873Y038814D01*
X046871Y038839D01*
X056369Y036776D02*
X056381Y036809D01*
X056400Y036840D01*
X056425Y036865D01*
X056456Y036884D01*
X056489Y036896D01*
X056525Y036900D01*
X056561Y036896D01*
X056594Y036884D01*
X056625Y036865D01*
X056650Y036840D01*
X056669Y036809D01*
X056681Y036776D01*
X056685Y036740D01*
X056685Y035960D01*
X056681Y035924D01*
X056669Y035891D01*
X056650Y035860D01*
X056625Y035835D01*
X056594Y035816D01*
X056561Y035804D01*
X056525Y035800D01*
X056489Y035804D01*
X056456Y035816D01*
X056425Y035835D01*
X056400Y035860D01*
X056381Y035891D01*
X056369Y035924D01*
X056365Y035960D01*
X056365Y036740D01*
X056369Y036776D01*
X057941Y037481D02*
X057929Y037514D01*
X057925Y037550D01*
X057929Y037586D01*
X057941Y037619D01*
X057960Y037650D01*
X057985Y037675D01*
X058016Y037694D01*
X058049Y037706D01*
X058085Y037710D01*
X058865Y037710D01*
X058901Y037706D01*
X058934Y037694D01*
X058965Y037675D01*
X058990Y037650D01*
X059009Y037619D01*
X059021Y037586D01*
X059025Y037550D01*
X059021Y037514D01*
X059009Y037481D01*
X058990Y037450D01*
X058965Y037425D01*
X058934Y037406D01*
X058901Y037394D01*
X058865Y037390D01*
X058085Y037390D01*
X058049Y037394D01*
X058016Y037406D01*
X057985Y037425D01*
X057960Y037450D01*
X057941Y037481D01*
X058085Y035260D02*
X058865Y035260D01*
X058901Y035256D01*
X058934Y035244D01*
X058965Y035225D01*
X058990Y035200D01*
X059009Y035169D01*
X059021Y035136D01*
X059025Y035100D01*
X059021Y035064D01*
X059009Y035031D01*
X058990Y035000D01*
X058965Y034975D01*
X058934Y034956D01*
X058901Y034944D01*
X058865Y034940D01*
X058085Y034940D01*
X058049Y034944D01*
X058016Y034956D01*
X057985Y034975D01*
X057960Y035000D01*
X057941Y035031D01*
X057929Y035064D01*
X057925Y035100D01*
X057929Y035136D01*
X057941Y035169D01*
X057960Y035200D01*
X057985Y035225D01*
X058016Y035244D01*
X058049Y035256D01*
X058085Y035260D01*
X060799Y037850D02*
X060801Y037897D01*
X060807Y037943D01*
X060817Y037989D01*
X060830Y038034D01*
X060848Y038077D01*
X060869Y038119D01*
X060893Y038159D01*
X060921Y038196D01*
X060952Y038231D01*
X060986Y038264D01*
X061022Y038293D01*
X061061Y038319D01*
X061102Y038342D01*
X061145Y038361D01*
X061189Y038377D01*
X061234Y038389D01*
X061280Y038397D01*
X061327Y038401D01*
X061373Y038401D01*
X061420Y038397D01*
X061466Y038389D01*
X061511Y038377D01*
X061555Y038361D01*
X061598Y038342D01*
X061639Y038319D01*
X061678Y038293D01*
X061714Y038264D01*
X061748Y038231D01*
X061779Y038196D01*
X061807Y038159D01*
X061831Y038119D01*
X061852Y038077D01*
X061870Y038034D01*
X061883Y037989D01*
X061893Y037943D01*
X061899Y037897D01*
X061901Y037850D01*
X061899Y037803D01*
X061893Y037757D01*
X061883Y037711D01*
X061870Y037666D01*
X061852Y037623D01*
X061831Y037581D01*
X061807Y037541D01*
X061779Y037504D01*
X061748Y037469D01*
X061714Y037436D01*
X061678Y037407D01*
X061639Y037381D01*
X061598Y037358D01*
X061555Y037339D01*
X061511Y037323D01*
X061466Y037311D01*
X061420Y037303D01*
X061373Y037299D01*
X061327Y037299D01*
X061280Y037303D01*
X061234Y037311D01*
X061189Y037323D01*
X061145Y037339D01*
X061102Y037358D01*
X061061Y037381D01*
X061022Y037407D01*
X060986Y037436D01*
X060952Y037469D01*
X060921Y037504D01*
X060893Y037541D01*
X060869Y037581D01*
X060848Y037623D01*
X060830Y037666D01*
X060817Y037711D01*
X060807Y037757D01*
X060801Y037803D01*
X060799Y037850D01*
X055609Y030896D02*
X052341Y030896D01*
X051554Y030109D02*
X051554Y026841D01*
X052341Y026054D02*
X055609Y026054D01*
X060799Y002350D02*
X060801Y002397D01*
X060807Y002443D01*
X060817Y002489D01*
X060830Y002534D01*
X060848Y002577D01*
X060869Y002619D01*
X060893Y002659D01*
X060921Y002696D01*
X060952Y002731D01*
X060986Y002764D01*
X061022Y002793D01*
X061061Y002819D01*
X061102Y002842D01*
X061145Y002861D01*
X061189Y002877D01*
X061234Y002889D01*
X061280Y002897D01*
X061327Y002901D01*
X061373Y002901D01*
X061420Y002897D01*
X061466Y002889D01*
X061511Y002877D01*
X061555Y002861D01*
X061598Y002842D01*
X061639Y002819D01*
X061678Y002793D01*
X061714Y002764D01*
X061748Y002731D01*
X061779Y002696D01*
X061807Y002659D01*
X061831Y002619D01*
X061852Y002577D01*
X061870Y002534D01*
X061883Y002489D01*
X061893Y002443D01*
X061899Y002397D01*
X061901Y002350D01*
X061899Y002303D01*
X061893Y002257D01*
X061883Y002211D01*
X061870Y002166D01*
X061852Y002123D01*
X061831Y002081D01*
X061807Y002041D01*
X061779Y002004D01*
X061748Y001969D01*
X061714Y001936D01*
X061678Y001907D01*
X061639Y001881D01*
X061598Y001858D01*
X061555Y001839D01*
X061511Y001823D01*
X061466Y001811D01*
X061420Y001803D01*
X061373Y001799D01*
X061327Y001799D01*
X061280Y001803D01*
X061234Y001811D01*
X061189Y001823D01*
X061145Y001839D01*
X061102Y001858D01*
X061061Y001881D01*
X061022Y001907D01*
X060986Y001936D01*
X060952Y001969D01*
X060921Y002004D01*
X060893Y002041D01*
X060869Y002081D01*
X060848Y002123D01*
X060830Y002166D01*
X060817Y002211D01*
X060807Y002257D01*
X060801Y002303D01*
X060799Y002350D01*
D11*
X058475Y035600D02*
X058375Y035800D01*
X058575Y035800D02*
X058475Y035600D01*
X058475Y036350D01*
X058475Y037050D01*
X058375Y036850D01*
X058575Y036850D02*
X058475Y037050D01*
X058475Y036350D02*
X057725Y036350D01*
X057425Y036350D02*
X057025Y036350D01*
X057225Y036250D01*
X057225Y036450D02*
X057025Y036350D01*
D12*
X057522Y036243D02*
X057668Y036243D01*
X057705Y036279D01*
X057558Y036279D02*
X057558Y036206D01*
X057595Y036132D02*
X057558Y036095D01*
X057558Y036022D01*
X057595Y035985D01*
X057668Y035985D01*
X057705Y036022D01*
X057705Y036095D01*
X057668Y036132D01*
X057595Y036132D01*
X057705Y035911D02*
X057705Y035838D01*
X057705Y035874D02*
X057485Y035874D01*
X057485Y035838D01*
X057522Y035763D02*
X057485Y035727D01*
X057485Y035653D01*
X057522Y035617D01*
X057558Y035617D01*
X057595Y035653D01*
X057595Y035727D01*
X057632Y035763D01*
X057668Y035763D01*
X057705Y035727D01*
X057705Y035653D01*
X057668Y035617D01*
X057668Y035321D02*
X057705Y035285D01*
X057705Y035211D01*
X057668Y035175D01*
X057595Y035248D02*
X057595Y035285D01*
X057632Y035321D01*
X057668Y035321D01*
X057595Y035285D02*
X057558Y035321D01*
X057522Y035321D01*
X057485Y035285D01*
X057485Y035211D01*
X057522Y035175D01*
X057485Y036574D02*
X057485Y036684D01*
X057522Y036721D01*
X057668Y036721D01*
X057705Y036684D01*
X057705Y036574D01*
X057485Y036574D01*
X057558Y036795D02*
X057705Y036795D01*
X057632Y036795D02*
X057558Y036869D01*
X057558Y036905D01*
X057558Y036979D02*
X057558Y037016D01*
X057705Y037016D01*
X057705Y036979D02*
X057705Y037053D01*
X057705Y037127D02*
X057705Y037200D01*
X057705Y037163D02*
X057485Y037163D01*
X057485Y037127D01*
X057485Y037016D02*
X057448Y037016D01*
X057485Y037274D02*
X057485Y037311D01*
X057705Y037311D01*
X057705Y037347D02*
X057705Y037274D01*
X057705Y037421D02*
X057705Y037531D01*
X057668Y037568D01*
X057632Y037531D01*
X057632Y037458D01*
X057595Y037421D01*
X057558Y037458D01*
X057558Y037568D01*
X057558Y037863D02*
X057668Y037863D01*
X057705Y037900D01*
X057668Y037937D01*
X057705Y037973D01*
X057668Y038010D01*
X057558Y038010D01*
X057558Y038084D02*
X057558Y038121D01*
X057705Y038121D01*
X057705Y038084D02*
X057705Y038158D01*
X057668Y038268D02*
X057705Y038305D01*
X057668Y038268D02*
X057522Y038268D01*
X057558Y038232D02*
X057558Y038305D01*
X057595Y038379D02*
X057558Y038416D01*
X057558Y038489D01*
X057595Y038526D01*
X057705Y038526D01*
X057705Y038379D02*
X057485Y038379D01*
X057485Y038121D02*
X057448Y038121D01*
X057595Y038821D02*
X057668Y038821D01*
X057705Y038858D01*
X057705Y038968D01*
X057668Y039042D02*
X057705Y039079D01*
X057705Y039152D01*
X057668Y039189D01*
X057595Y039189D01*
X057558Y039152D01*
X057558Y039079D01*
X057595Y039042D01*
X057668Y039042D01*
X057558Y038968D02*
X057558Y038858D01*
X057595Y038821D01*
X057558Y039263D02*
X057558Y039373D01*
X057595Y039410D01*
X057668Y039410D01*
X057705Y039373D01*
X057705Y039263D01*
X057778Y039263D02*
X057558Y039263D01*
X057558Y039484D02*
X057558Y039594D01*
X057595Y039631D01*
X057668Y039631D01*
X057705Y039594D01*
X057705Y039484D01*
X057778Y039484D02*
X057558Y039484D01*
X057595Y039705D02*
X057558Y039742D01*
X057558Y039815D01*
X057595Y039852D01*
X057632Y039852D01*
X057632Y039705D01*
X057668Y039705D02*
X057595Y039705D01*
X057668Y039705D02*
X057705Y039742D01*
X057705Y039815D01*
X057705Y039926D02*
X057558Y039926D01*
X057558Y039999D02*
X057558Y040036D01*
X057558Y039999D02*
X057632Y039926D01*
D13*
X058051Y037706D02*
X058899Y037706D01*
X058903Y037705D02*
X058047Y037705D01*
X058044Y037704D02*
X058906Y037704D01*
X058909Y037703D02*
X058041Y037703D01*
X058039Y037702D02*
X058911Y037702D01*
X058914Y037701D02*
X058036Y037701D01*
X058033Y037700D02*
X058917Y037700D01*
X058920Y037699D02*
X058030Y037699D01*
X058027Y037698D02*
X058923Y037698D01*
X058926Y037697D02*
X058024Y037697D01*
X058021Y037696D02*
X058929Y037696D01*
X058931Y037695D02*
X058019Y037695D01*
X058016Y037694D02*
X058934Y037694D01*
X058936Y037693D02*
X058014Y037693D01*
X058012Y037692D02*
X058938Y037692D01*
X058939Y037691D02*
X058011Y037691D01*
X058009Y037690D02*
X058941Y037690D01*
X058942Y037689D02*
X058008Y037689D01*
X058006Y037688D02*
X058944Y037688D01*
X058945Y037687D02*
X058005Y037687D01*
X058003Y037686D02*
X058947Y037686D01*
X058949Y037685D02*
X058001Y037685D01*
X058000Y037684D02*
X058950Y037684D01*
X058952Y037683D02*
X057998Y037683D01*
X057997Y037682D02*
X058953Y037682D01*
X058955Y037681D02*
X057995Y037681D01*
X057993Y037680D02*
X058957Y037680D01*
X058958Y037679D02*
X057992Y037679D01*
X057990Y037678D02*
X058960Y037678D01*
X058961Y037677D02*
X057989Y037677D01*
X057987Y037676D02*
X058963Y037676D01*
X058965Y037675D02*
X057985Y037675D01*
X057984Y037674D02*
X058966Y037674D01*
X058967Y037673D02*
X057983Y037673D01*
X057982Y037672D02*
X058968Y037672D01*
X058969Y037671D02*
X057981Y037671D01*
X057980Y037670D02*
X058970Y037670D01*
X058971Y037669D02*
X057979Y037669D01*
X057978Y037668D02*
X058972Y037668D01*
X058973Y037667D02*
X057977Y037667D01*
X057976Y037666D02*
X058974Y037666D01*
X058975Y037665D02*
X057975Y037665D01*
X057974Y037664D02*
X058976Y037664D01*
X058977Y037663D02*
X057973Y037663D01*
X057972Y037662D02*
X058978Y037662D01*
X058979Y037661D02*
X057971Y037661D01*
X057970Y037660D02*
X058980Y037660D01*
X058981Y037659D02*
X057969Y037659D01*
X057968Y037658D02*
X058982Y037658D01*
X058983Y037657D02*
X057967Y037657D01*
X057966Y037656D02*
X058984Y037656D01*
X058985Y037655D02*
X057965Y037655D01*
X057964Y037654D02*
X058986Y037654D01*
X058987Y037653D02*
X057963Y037653D01*
X057962Y037652D02*
X058988Y037652D01*
X058989Y037651D02*
X057961Y037651D01*
X057960Y037650D02*
X058990Y037650D01*
X058990Y037649D02*
X057960Y037649D01*
X057959Y037648D02*
X058991Y037648D01*
X058992Y037647D02*
X057958Y037647D01*
X057958Y037646D02*
X058992Y037646D01*
X058993Y037645D02*
X057957Y037645D01*
X057956Y037644D02*
X058994Y037644D01*
X058994Y037643D02*
X057956Y037643D01*
X057955Y037642D02*
X058995Y037642D01*
X058995Y037641D02*
X057955Y037641D01*
X057954Y037640D02*
X058996Y037640D01*
X058997Y037639D02*
X057953Y037639D01*
X057953Y037638D02*
X058997Y037638D01*
X058998Y037637D02*
X057952Y037637D01*
X057951Y037636D02*
X058999Y037636D01*
X058999Y037635D02*
X057951Y037635D01*
X057950Y037634D02*
X059000Y037634D01*
X059000Y037633D02*
X057950Y037633D01*
X057949Y037632D02*
X059001Y037632D01*
X059002Y037631D02*
X057948Y037631D01*
X057948Y037630D02*
X059002Y037630D01*
X059003Y037629D02*
X057947Y037629D01*
X057946Y037628D02*
X059004Y037628D01*
X059004Y037627D02*
X057946Y037627D01*
X057945Y037626D02*
X059005Y037626D01*
X059005Y037625D02*
X057945Y037625D01*
X057944Y037624D02*
X059006Y037624D01*
X059007Y037623D02*
X057943Y037623D01*
X057943Y037622D02*
X059007Y037622D01*
X059008Y037621D02*
X057942Y037621D01*
X057941Y037620D02*
X059009Y037620D01*
X059009Y037619D02*
X057941Y037619D01*
X057940Y037618D02*
X059010Y037618D01*
X059010Y037617D02*
X057940Y037617D01*
X057940Y037616D02*
X059010Y037616D01*
X059011Y037615D02*
X057939Y037615D01*
X057939Y037614D02*
X059011Y037614D01*
X059011Y037613D02*
X057939Y037613D01*
X057938Y037612D02*
X059012Y037612D01*
X059012Y037611D02*
X057938Y037611D01*
X057938Y037610D02*
X059012Y037610D01*
X059013Y037609D02*
X057937Y037609D01*
X057937Y037608D02*
X059013Y037608D01*
X059013Y037607D02*
X057937Y037607D01*
X057936Y037606D02*
X059014Y037606D01*
X059014Y037605D02*
X057936Y037605D01*
X057936Y037604D02*
X059014Y037604D01*
X059015Y037603D02*
X057935Y037603D01*
X057935Y037602D02*
X059015Y037602D01*
X059015Y037601D02*
X057935Y037601D01*
X057934Y037600D02*
X059016Y037600D01*
X059016Y037599D02*
X057934Y037599D01*
X057933Y037598D02*
X059017Y037598D01*
X059017Y037597D02*
X057933Y037597D01*
X057933Y037596D02*
X059017Y037596D01*
X059018Y037595D02*
X057932Y037595D01*
X057932Y037594D02*
X059018Y037594D01*
X059018Y037593D02*
X057932Y037593D01*
X057931Y037592D02*
X059019Y037592D01*
X059019Y037591D02*
X057931Y037591D01*
X057931Y037590D02*
X059019Y037590D01*
X059020Y037589D02*
X057930Y037589D01*
X057930Y037588D02*
X059020Y037588D01*
X059020Y037587D02*
X057930Y037587D01*
X057929Y037586D02*
X059021Y037586D01*
X059021Y037585D02*
X057929Y037585D01*
X057929Y037584D02*
X059021Y037584D01*
X059021Y037583D02*
X057929Y037583D01*
X057929Y037582D02*
X059021Y037582D01*
X059021Y037581D02*
X057929Y037581D01*
X057928Y037580D02*
X059022Y037580D01*
X059022Y037579D02*
X057928Y037579D01*
X057928Y037578D02*
X059022Y037578D01*
X059022Y037577D02*
X057928Y037577D01*
X057928Y037576D02*
X059022Y037576D01*
X059022Y037575D02*
X057928Y037575D01*
X057928Y037574D02*
X059022Y037574D01*
X059022Y037573D02*
X057928Y037573D01*
X057928Y037572D02*
X059022Y037572D01*
X059023Y037571D02*
X057927Y037571D01*
X057927Y037570D02*
X059023Y037570D01*
X059023Y037569D02*
X057927Y037569D01*
X057927Y037568D02*
X059023Y037568D01*
X059023Y037567D02*
X057927Y037567D01*
X057927Y037566D02*
X059023Y037566D01*
X059023Y037565D02*
X057927Y037565D01*
X057927Y037564D02*
X059023Y037564D01*
X059023Y037563D02*
X057927Y037563D01*
X057926Y037562D02*
X059024Y037562D01*
X059024Y037561D02*
X057926Y037561D01*
X057926Y037560D02*
X059024Y037560D01*
X059024Y037559D02*
X057926Y037559D01*
X057926Y037558D02*
X059024Y037558D01*
X059024Y037557D02*
X057926Y037557D01*
X057926Y037556D02*
X059024Y037556D01*
X059024Y037555D02*
X057926Y037555D01*
X057925Y037554D02*
X059025Y037554D01*
X059025Y037553D02*
X057925Y037553D01*
X057925Y037552D02*
X059025Y037552D01*
X059025Y037551D02*
X057925Y037551D01*
X057925Y037550D02*
X059025Y037550D01*
X059025Y037549D02*
X057925Y037549D01*
X057925Y037548D02*
X059025Y037548D01*
X059025Y037547D02*
X057925Y037547D01*
X057925Y037546D02*
X059025Y037546D01*
X059024Y037545D02*
X057926Y037545D01*
X057926Y037544D02*
X059024Y037544D01*
X059024Y037543D02*
X057926Y037543D01*
X057926Y037542D02*
X059024Y037542D01*
X059024Y037541D02*
X057926Y037541D01*
X057926Y037540D02*
X059024Y037540D01*
X059024Y037539D02*
X057926Y037539D01*
X057926Y037538D02*
X059024Y037538D01*
X059024Y037537D02*
X057926Y037537D01*
X057927Y037536D02*
X059023Y037536D01*
X059023Y037535D02*
X057927Y037535D01*
X057927Y037534D02*
X059023Y037534D01*
X059023Y037533D02*
X057927Y037533D01*
X057927Y037532D02*
X059023Y037532D01*
X059023Y037531D02*
X057927Y037531D01*
X057927Y037530D02*
X059023Y037530D01*
X059023Y037529D02*
X057927Y037529D01*
X057927Y037528D02*
X059023Y037528D01*
X059022Y037527D02*
X057928Y037527D01*
X057928Y037526D02*
X059022Y037526D01*
X059022Y037525D02*
X057928Y037525D01*
X057928Y037524D02*
X059022Y037524D01*
X059022Y037523D02*
X057928Y037523D01*
X057928Y037522D02*
X059022Y037522D01*
X059022Y037521D02*
X057928Y037521D01*
X057928Y037520D02*
X059022Y037520D01*
X059022Y037519D02*
X057928Y037519D01*
X057929Y037518D02*
X059021Y037518D01*
X059021Y037517D02*
X057929Y037517D01*
X057929Y037516D02*
X059021Y037516D01*
X059021Y037515D02*
X057929Y037515D01*
X057929Y037514D02*
X059021Y037514D01*
X059021Y037513D02*
X057929Y037513D01*
X057930Y037512D02*
X059020Y037512D01*
X059020Y037511D02*
X057930Y037511D01*
X057930Y037510D02*
X059020Y037510D01*
X059019Y037509D02*
X057931Y037509D01*
X057931Y037508D02*
X059019Y037508D01*
X059019Y037507D02*
X057931Y037507D01*
X057932Y037506D02*
X059018Y037506D01*
X059018Y037505D02*
X057932Y037505D01*
X057933Y037504D02*
X059017Y037504D01*
X059017Y037503D02*
X057933Y037503D01*
X057933Y037502D02*
X059017Y037502D01*
X059016Y037501D02*
X057934Y037501D01*
X057934Y037500D02*
X059016Y037500D01*
X059016Y037499D02*
X057934Y037499D01*
X057935Y037498D02*
X059015Y037498D01*
X059015Y037497D02*
X057935Y037497D01*
X057935Y037496D02*
X059015Y037496D01*
X059014Y037495D02*
X057936Y037495D01*
X057936Y037494D02*
X059014Y037494D01*
X059014Y037493D02*
X057936Y037493D01*
X057937Y037492D02*
X059013Y037492D01*
X059013Y037491D02*
X057937Y037491D01*
X057937Y037490D02*
X059013Y037490D01*
X059012Y037489D02*
X057938Y037489D01*
X057938Y037488D02*
X059012Y037488D01*
X059012Y037487D02*
X057938Y037487D01*
X057939Y037486D02*
X059011Y037486D01*
X059011Y037485D02*
X057939Y037485D01*
X057940Y037484D02*
X059010Y037484D01*
X059010Y037483D02*
X057940Y037483D01*
X057940Y037482D02*
X059010Y037482D01*
X059009Y037481D02*
X057941Y037481D01*
X057941Y037480D02*
X059009Y037480D01*
X059008Y037479D02*
X057942Y037479D01*
X057942Y037478D02*
X059008Y037478D01*
X059007Y037477D02*
X057943Y037477D01*
X057943Y037476D02*
X059007Y037476D01*
X059006Y037475D02*
X057944Y037475D01*
X057945Y037474D02*
X059005Y037474D01*
X059005Y037473D02*
X057945Y037473D01*
X057946Y037472D02*
X059004Y037472D01*
X059003Y037471D02*
X057947Y037471D01*
X057947Y037470D02*
X059003Y037470D01*
X059002Y037469D02*
X057948Y037469D01*
X057948Y037468D02*
X059002Y037468D01*
X059001Y037467D02*
X057949Y037467D01*
X057950Y037466D02*
X059000Y037466D01*
X059000Y037465D02*
X057950Y037465D01*
X057951Y037464D02*
X058999Y037464D01*
X058998Y037463D02*
X057952Y037463D01*
X057952Y037462D02*
X058998Y037462D01*
X058997Y037461D02*
X057953Y037461D01*
X057954Y037460D02*
X058997Y037460D01*
X058996Y037459D02*
X057954Y037459D01*
X057955Y037458D02*
X058995Y037458D01*
X058995Y037457D02*
X057955Y037457D01*
X057956Y037456D02*
X058994Y037456D01*
X058993Y037455D02*
X057957Y037455D01*
X057957Y037454D02*
X058993Y037454D01*
X058992Y037453D02*
X057958Y037453D01*
X057959Y037452D02*
X058991Y037452D01*
X058991Y037451D02*
X057959Y037451D01*
X057960Y037450D02*
X058990Y037450D01*
X058989Y037449D02*
X057961Y037449D01*
X057962Y037448D02*
X058988Y037448D01*
X058987Y037447D02*
X057963Y037447D01*
X057964Y037446D02*
X058986Y037446D01*
X058985Y037445D02*
X057965Y037445D01*
X057966Y037444D02*
X058984Y037444D01*
X058983Y037443D02*
X057967Y037443D01*
X057968Y037442D02*
X058982Y037442D01*
X058981Y037441D02*
X057969Y037441D01*
X057970Y037440D02*
X058980Y037440D01*
X058979Y037439D02*
X057971Y037439D01*
X057972Y037438D02*
X058978Y037438D01*
X058977Y037437D02*
X057973Y037437D01*
X057974Y037436D02*
X058976Y037436D01*
X058975Y037435D02*
X057975Y037435D01*
X057976Y037434D02*
X058974Y037434D01*
X058973Y037433D02*
X057977Y037433D01*
X057978Y037432D02*
X058972Y037432D01*
X058971Y037431D02*
X057979Y037431D01*
X057980Y037430D02*
X058970Y037430D01*
X058969Y037429D02*
X057981Y037429D01*
X057982Y037428D02*
X058968Y037428D01*
X058967Y037427D02*
X057983Y037427D01*
X057984Y037426D02*
X058966Y037426D01*
X058965Y037425D02*
X057985Y037425D01*
X057986Y037424D02*
X058964Y037424D01*
X058962Y037423D02*
X057988Y037423D01*
X057989Y037422D02*
X058961Y037422D01*
X058959Y037421D02*
X057991Y037421D01*
X057992Y037420D02*
X058958Y037420D01*
X058956Y037419D02*
X057994Y037419D01*
X057995Y037418D02*
X058955Y037418D01*
X058953Y037417D02*
X057997Y037417D01*
X057999Y037416D02*
X058951Y037416D01*
X058950Y037415D02*
X058000Y037415D01*
X058002Y037414D02*
X058948Y037414D01*
X058947Y037413D02*
X058003Y037413D01*
X058005Y037412D02*
X058945Y037412D01*
X058943Y037411D02*
X058007Y037411D01*
X058008Y037410D02*
X058942Y037410D01*
X058940Y037409D02*
X058010Y037409D01*
X058011Y037408D02*
X058939Y037408D01*
X058937Y037407D02*
X058013Y037407D01*
X058015Y037406D02*
X058935Y037406D01*
X058933Y037405D02*
X058017Y037405D01*
X058019Y037404D02*
X058931Y037404D01*
X058928Y037403D02*
X058022Y037403D01*
X058025Y037402D02*
X058925Y037402D01*
X058922Y037401D02*
X058028Y037401D01*
X058031Y037400D02*
X058919Y037400D01*
X058916Y037399D02*
X058034Y037399D01*
X058037Y037398D02*
X058913Y037398D01*
X058911Y037398D02*
X058039Y037398D01*
X058042Y037397D02*
X058908Y037397D01*
X058905Y037396D02*
X058045Y037396D01*
X058048Y037395D02*
X058902Y037395D01*
X058896Y037394D02*
X058054Y037394D01*
X058063Y037393D02*
X058887Y037393D01*
X058878Y037392D02*
X058072Y037392D01*
X058081Y037391D02*
X058869Y037391D01*
X058890Y037707D02*
X058060Y037707D01*
X058069Y037708D02*
X058881Y037708D01*
X058872Y037709D02*
X058078Y037709D01*
X056662Y036821D02*
X056388Y036821D01*
X056388Y036820D02*
X056662Y036820D01*
X056663Y036819D02*
X056387Y036819D01*
X056386Y036818D02*
X056664Y036818D01*
X056664Y036817D02*
X056386Y036817D01*
X056385Y036816D02*
X056665Y036816D01*
X056666Y036815D02*
X056384Y036815D01*
X056384Y036814D02*
X056666Y036814D01*
X056667Y036813D02*
X056383Y036813D01*
X056383Y036812D02*
X056667Y036812D01*
X056668Y036811D02*
X056382Y036811D01*
X056381Y036810D02*
X056669Y036810D01*
X056669Y036809D02*
X056381Y036809D01*
X056380Y036808D02*
X056670Y036808D01*
X056670Y036807D02*
X056380Y036807D01*
X056380Y036806D02*
X056670Y036806D01*
X056671Y036805D02*
X056379Y036805D01*
X056379Y036804D02*
X056671Y036804D01*
X056671Y036803D02*
X056379Y036803D01*
X056378Y036802D02*
X056672Y036802D01*
X056672Y036801D02*
X056378Y036801D01*
X056378Y036800D02*
X056672Y036800D01*
X056673Y036799D02*
X056377Y036799D01*
X056377Y036798D02*
X056673Y036798D01*
X056673Y036797D02*
X056377Y036797D01*
X056376Y036796D02*
X056674Y036796D01*
X056674Y036795D02*
X056376Y036795D01*
X056375Y036794D02*
X056675Y036794D01*
X056675Y036793D02*
X056375Y036793D01*
X056375Y036792D02*
X056675Y036792D01*
X056676Y036791D02*
X056374Y036791D01*
X056374Y036790D02*
X056676Y036790D01*
X056676Y036789D02*
X056374Y036789D01*
X056373Y036788D02*
X056677Y036788D01*
X056677Y036787D02*
X056373Y036787D01*
X056373Y036786D02*
X056677Y036786D01*
X056678Y036785D02*
X056372Y036785D01*
X056372Y036784D02*
X056678Y036784D01*
X056678Y036783D02*
X056372Y036783D01*
X056371Y036782D02*
X056679Y036782D01*
X056679Y036781D02*
X056371Y036781D01*
X056371Y036780D02*
X056679Y036780D01*
X056680Y036779D02*
X056370Y036779D01*
X056370Y036778D02*
X056680Y036778D01*
X056680Y036777D02*
X056370Y036777D01*
X056369Y036776D02*
X056681Y036776D01*
X056681Y036775D02*
X056369Y036775D01*
X056369Y036774D02*
X056681Y036774D01*
X056681Y036773D02*
X056369Y036773D01*
X056369Y036772D02*
X056681Y036772D01*
X056681Y036771D02*
X056369Y036771D01*
X056368Y036770D02*
X056682Y036770D01*
X056682Y036769D02*
X056368Y036769D01*
X056368Y036768D02*
X056682Y036768D01*
X056682Y036767D02*
X056368Y036767D01*
X056368Y036766D02*
X056682Y036766D01*
X056682Y036765D02*
X056368Y036765D01*
X056368Y036764D02*
X056682Y036764D01*
X056682Y036763D02*
X056368Y036763D01*
X056367Y036762D02*
X056683Y036762D01*
X056683Y036761D02*
X056367Y036761D01*
X056367Y036760D02*
X056683Y036760D01*
X056683Y036759D02*
X056367Y036759D01*
X056367Y036758D02*
X056683Y036758D01*
X056683Y036757D02*
X056367Y036757D01*
X056367Y036756D02*
X056683Y036756D01*
X056683Y036755D02*
X056367Y036755D01*
X056367Y036754D02*
X056683Y036754D01*
X056684Y036753D02*
X056366Y036753D01*
X056366Y036752D02*
X056684Y036752D01*
X056684Y036751D02*
X056366Y036751D01*
X056366Y036750D02*
X056684Y036750D01*
X056684Y036749D02*
X056366Y036749D01*
X056366Y036748D02*
X056684Y036748D01*
X056684Y036747D02*
X056366Y036747D01*
X056366Y036746D02*
X056684Y036746D01*
X056684Y036745D02*
X056366Y036745D01*
X056365Y036744D02*
X056685Y036744D01*
X056685Y036743D02*
X056365Y036743D01*
X056365Y036742D02*
X056685Y036742D01*
X056685Y036741D02*
X056365Y036741D01*
X056365Y036740D02*
X056685Y036740D01*
X056685Y036739D02*
X056365Y036739D01*
X056365Y036738D02*
X056685Y036738D01*
X056685Y036737D02*
X056365Y036737D01*
X056365Y036736D02*
X056685Y036736D01*
X056685Y036735D02*
X056365Y036735D01*
X056365Y036734D02*
X056685Y036734D01*
X056685Y036733D02*
X056365Y036733D01*
X056365Y036732D02*
X056685Y036732D01*
X056685Y036731D02*
X056365Y036731D01*
X056365Y036730D02*
X056685Y036730D01*
X056685Y036729D02*
X056365Y036729D01*
X056365Y036728D02*
X056685Y036728D01*
X056685Y036727D02*
X056365Y036727D01*
X056365Y036726D02*
X056685Y036726D01*
X056685Y036725D02*
X056365Y036725D01*
X056365Y036724D02*
X056685Y036724D01*
X056685Y036723D02*
X056365Y036723D01*
X056365Y036722D02*
X056685Y036722D01*
X056685Y036721D02*
X056365Y036721D01*
X056365Y036720D02*
X056685Y036720D01*
X056685Y036719D02*
X056365Y036719D01*
X056365Y036718D02*
X056685Y036718D01*
X056685Y036717D02*
X056365Y036717D01*
X056365Y036716D02*
X056685Y036716D01*
X056685Y036715D02*
X056365Y036715D01*
X056365Y036714D02*
X056685Y036714D01*
X056685Y036713D02*
X056365Y036713D01*
X056365Y036712D02*
X056685Y036712D01*
X056685Y036711D02*
X056365Y036711D01*
X056365Y036710D02*
X056685Y036710D01*
X056685Y036709D02*
X056365Y036709D01*
X056365Y036708D02*
X056685Y036708D01*
X056685Y036707D02*
X056365Y036707D01*
X056365Y036706D02*
X056685Y036706D01*
X056685Y036705D02*
X056365Y036705D01*
X056365Y036704D02*
X056685Y036704D01*
X056685Y036703D02*
X056365Y036703D01*
X056365Y036702D02*
X056685Y036702D01*
X056685Y036701D02*
X056365Y036701D01*
X056365Y036700D02*
X056685Y036700D01*
X056685Y036699D02*
X056365Y036699D01*
X056365Y036698D02*
X056685Y036698D01*
X056685Y036697D02*
X056365Y036697D01*
X056365Y036696D02*
X056685Y036696D01*
X056685Y036695D02*
X056365Y036695D01*
X056365Y036694D02*
X056685Y036694D01*
X056685Y036693D02*
X056365Y036693D01*
X056365Y036692D02*
X056685Y036692D01*
X056685Y036691D02*
X056365Y036691D01*
X056365Y036690D02*
X056685Y036690D01*
X056685Y036689D02*
X056365Y036689D01*
X056365Y036688D02*
X056685Y036688D01*
X056685Y036687D02*
X056365Y036687D01*
X056365Y036686D02*
X056685Y036686D01*
X056685Y036685D02*
X056365Y036685D01*
X056365Y036684D02*
X056685Y036684D01*
X056685Y036683D02*
X056365Y036683D01*
X056365Y036682D02*
X056685Y036682D01*
X056685Y036681D02*
X056365Y036681D01*
X056365Y036680D02*
X056685Y036680D01*
X056685Y036679D02*
X056365Y036679D01*
X056365Y036678D02*
X056685Y036678D01*
X056685Y036677D02*
X056365Y036677D01*
X056365Y036676D02*
X056685Y036676D01*
X056685Y036675D02*
X056365Y036675D01*
X056365Y036674D02*
X056685Y036674D01*
X056685Y036673D02*
X056365Y036673D01*
X056365Y036672D02*
X056685Y036672D01*
X056685Y036671D02*
X056365Y036671D01*
X056365Y036670D02*
X056685Y036670D01*
X056685Y036669D02*
X056365Y036669D01*
X056365Y036668D02*
X056685Y036668D01*
X056685Y036667D02*
X056365Y036667D01*
X056365Y036666D02*
X056685Y036666D01*
X056685Y036665D02*
X056365Y036665D01*
X056365Y036664D02*
X056685Y036664D01*
X056685Y036663D02*
X056365Y036663D01*
X056365Y036662D02*
X056685Y036662D01*
X056685Y036661D02*
X056365Y036661D01*
X056365Y036660D02*
X056685Y036660D01*
X056685Y036659D02*
X056365Y036659D01*
X056365Y036658D02*
X056685Y036658D01*
X056685Y036657D02*
X056365Y036657D01*
X056365Y036656D02*
X056685Y036656D01*
X056685Y036655D02*
X056365Y036655D01*
X056365Y036654D02*
X056685Y036654D01*
X056685Y036653D02*
X056365Y036653D01*
X056365Y036652D02*
X056685Y036652D01*
X056685Y036651D02*
X056365Y036651D01*
X056365Y036650D02*
X056685Y036650D01*
X056685Y036649D02*
X056365Y036649D01*
X056365Y036648D02*
X056685Y036648D01*
X056685Y036647D02*
X056365Y036647D01*
X056365Y036646D02*
X056685Y036646D01*
X056685Y036645D02*
X056365Y036645D01*
X056365Y036644D02*
X056685Y036644D01*
X056685Y036643D02*
X056365Y036643D01*
X056365Y036642D02*
X056685Y036642D01*
X056685Y036641D02*
X056365Y036641D01*
X056365Y036640D02*
X056685Y036640D01*
X056685Y036639D02*
X056365Y036639D01*
X056365Y036638D02*
X056685Y036638D01*
X056685Y036637D02*
X056365Y036637D01*
X056365Y036636D02*
X056685Y036636D01*
X056685Y036635D02*
X056365Y036635D01*
X056365Y036634D02*
X056685Y036634D01*
X056685Y036633D02*
X056365Y036633D01*
X056365Y036632D02*
X056685Y036632D01*
X056685Y036631D02*
X056365Y036631D01*
X056365Y036630D02*
X056685Y036630D01*
X056685Y036629D02*
X056365Y036629D01*
X056365Y036628D02*
X056685Y036628D01*
X056685Y036627D02*
X056365Y036627D01*
X056365Y036626D02*
X056685Y036626D01*
X056685Y036625D02*
X056365Y036625D01*
X056365Y036624D02*
X056685Y036624D01*
X056685Y036623D02*
X056365Y036623D01*
X056365Y036622D02*
X056685Y036622D01*
X056685Y036621D02*
X056365Y036621D01*
X056365Y036620D02*
X056685Y036620D01*
X056685Y036619D02*
X056365Y036619D01*
X056365Y036618D02*
X056685Y036618D01*
X056685Y036617D02*
X056365Y036617D01*
X056365Y036616D02*
X056685Y036616D01*
X056685Y036615D02*
X056365Y036615D01*
X056365Y036614D02*
X056685Y036614D01*
X056685Y036613D02*
X056365Y036613D01*
X056365Y036612D02*
X056685Y036612D01*
X056685Y036611D02*
X056365Y036611D01*
X056365Y036610D02*
X056685Y036610D01*
X056685Y036609D02*
X056365Y036609D01*
X056365Y036608D02*
X056685Y036608D01*
X056685Y036607D02*
X056365Y036607D01*
X056365Y036606D02*
X056685Y036606D01*
X056685Y036605D02*
X056365Y036605D01*
X056365Y036604D02*
X056685Y036604D01*
X056685Y036603D02*
X056365Y036603D01*
X056365Y036602D02*
X056685Y036602D01*
X056685Y036601D02*
X056365Y036601D01*
X056365Y036600D02*
X056685Y036600D01*
X056685Y036599D02*
X056365Y036599D01*
X056365Y036598D02*
X056685Y036598D01*
X056685Y036597D02*
X056365Y036597D01*
X056365Y036596D02*
X056685Y036596D01*
X056685Y036595D02*
X056365Y036595D01*
X056365Y036594D02*
X056685Y036594D01*
X056685Y036593D02*
X056365Y036593D01*
X056365Y036592D02*
X056685Y036592D01*
X056685Y036591D02*
X056365Y036591D01*
X056365Y036590D02*
X056685Y036590D01*
X056685Y036589D02*
X056365Y036589D01*
X056365Y036588D02*
X056685Y036588D01*
X056685Y036587D02*
X056365Y036587D01*
X056365Y036586D02*
X056685Y036586D01*
X056685Y036585D02*
X056365Y036585D01*
X056365Y036584D02*
X056685Y036584D01*
X056685Y036583D02*
X056365Y036583D01*
X056365Y036582D02*
X056685Y036582D01*
X056685Y036581D02*
X056365Y036581D01*
X056365Y036580D02*
X056685Y036580D01*
X056685Y036579D02*
X056365Y036579D01*
X056365Y036578D02*
X056685Y036578D01*
X056685Y036577D02*
X056365Y036577D01*
X056365Y036576D02*
X056685Y036576D01*
X056685Y036575D02*
X056365Y036575D01*
X056365Y036574D02*
X056685Y036574D01*
X056685Y036573D02*
X056365Y036573D01*
X056365Y036572D02*
X056685Y036572D01*
X056685Y036571D02*
X056365Y036571D01*
X056365Y036570D02*
X056685Y036570D01*
X056685Y036569D02*
X056365Y036569D01*
X056365Y036568D02*
X056685Y036568D01*
X056685Y036567D02*
X056365Y036567D01*
X056365Y036566D02*
X056685Y036566D01*
X056685Y036565D02*
X056365Y036565D01*
X056365Y036564D02*
X056685Y036564D01*
X056685Y036563D02*
X056365Y036563D01*
X056365Y036562D02*
X056685Y036562D01*
X056685Y036561D02*
X056365Y036561D01*
X056365Y036560D02*
X056685Y036560D01*
X056685Y036559D02*
X056365Y036559D01*
X056365Y036558D02*
X056685Y036558D01*
X056685Y036557D02*
X056365Y036557D01*
X056365Y036556D02*
X056685Y036556D01*
X056685Y036555D02*
X056365Y036555D01*
X056365Y036554D02*
X056685Y036554D01*
X056685Y036553D02*
X056365Y036553D01*
X056365Y036552D02*
X056685Y036552D01*
X056685Y036551D02*
X056365Y036551D01*
X056365Y036550D02*
X056685Y036550D01*
X056685Y036549D02*
X056365Y036549D01*
X056365Y036548D02*
X056685Y036548D01*
X056685Y036547D02*
X056365Y036547D01*
X056365Y036546D02*
X056685Y036546D01*
X056685Y036545D02*
X056365Y036545D01*
X056365Y036544D02*
X056685Y036544D01*
X056685Y036543D02*
X056365Y036543D01*
X056365Y036542D02*
X056685Y036542D01*
X056685Y036541D02*
X056365Y036541D01*
X056365Y036540D02*
X056685Y036540D01*
X056685Y036539D02*
X056365Y036539D01*
X056365Y036538D02*
X056685Y036538D01*
X056685Y036537D02*
X056365Y036537D01*
X056365Y036536D02*
X056685Y036536D01*
X056685Y036535D02*
X056365Y036535D01*
X056365Y036534D02*
X056685Y036534D01*
X056685Y036533D02*
X056365Y036533D01*
X056365Y036532D02*
X056685Y036532D01*
X056685Y036531D02*
X056365Y036531D01*
X056365Y036530D02*
X056685Y036530D01*
X056685Y036529D02*
X056365Y036529D01*
X056365Y036528D02*
X056685Y036528D01*
X056685Y036527D02*
X056365Y036527D01*
X056365Y036526D02*
X056685Y036526D01*
X056685Y036525D02*
X056365Y036525D01*
X056365Y036524D02*
X056685Y036524D01*
X056685Y036523D02*
X056365Y036523D01*
X056365Y036522D02*
X056685Y036522D01*
X056685Y036521D02*
X056365Y036521D01*
X056365Y036520D02*
X056685Y036520D01*
X056685Y036519D02*
X056365Y036519D01*
X056365Y036518D02*
X056685Y036518D01*
X056685Y036517D02*
X056365Y036517D01*
X056365Y036516D02*
X056685Y036516D01*
X056685Y036515D02*
X056365Y036515D01*
X056365Y036514D02*
X056685Y036514D01*
X056685Y036513D02*
X056365Y036513D01*
X056365Y036512D02*
X056685Y036512D01*
X056685Y036511D02*
X056365Y036511D01*
X056365Y036510D02*
X056685Y036510D01*
X056685Y036509D02*
X056365Y036509D01*
X056365Y036508D02*
X056685Y036508D01*
X056685Y036507D02*
X056365Y036507D01*
X056365Y036506D02*
X056685Y036506D01*
X056685Y036505D02*
X056365Y036505D01*
X056365Y036504D02*
X056685Y036504D01*
X056685Y036503D02*
X056365Y036503D01*
X056365Y036502D02*
X056685Y036502D01*
X056685Y036501D02*
X056365Y036501D01*
X056365Y036500D02*
X056685Y036500D01*
X056685Y036499D02*
X056365Y036499D01*
X056365Y036498D02*
X056685Y036498D01*
X056685Y036497D02*
X056365Y036497D01*
X056365Y036496D02*
X056685Y036496D01*
X056685Y036495D02*
X056365Y036495D01*
X056365Y036494D02*
X056685Y036494D01*
X056685Y036493D02*
X056365Y036493D01*
X056365Y036492D02*
X056685Y036492D01*
X056685Y036491D02*
X056365Y036491D01*
X056365Y036490D02*
X056685Y036490D01*
X056685Y036489D02*
X056365Y036489D01*
X056365Y036488D02*
X056685Y036488D01*
X056685Y036487D02*
X056365Y036487D01*
X056365Y036486D02*
X056685Y036486D01*
X056685Y036485D02*
X056365Y036485D01*
X056365Y036484D02*
X056685Y036484D01*
X056685Y036483D02*
X056365Y036483D01*
X056365Y036482D02*
X056685Y036482D01*
X056685Y036481D02*
X056365Y036481D01*
X056365Y036480D02*
X056685Y036480D01*
X056685Y036479D02*
X056365Y036479D01*
X056365Y036478D02*
X056685Y036478D01*
X056685Y036477D02*
X056365Y036477D01*
X056365Y036476D02*
X056685Y036476D01*
X056685Y036475D02*
X056365Y036475D01*
X056365Y036474D02*
X056685Y036474D01*
X056685Y036473D02*
X056365Y036473D01*
X056365Y036472D02*
X056685Y036472D01*
X056685Y036471D02*
X056365Y036471D01*
X056365Y036470D02*
X056685Y036470D01*
X056685Y036469D02*
X056365Y036469D01*
X056365Y036468D02*
X056685Y036468D01*
X056685Y036467D02*
X056365Y036467D01*
X056365Y036466D02*
X056685Y036466D01*
X056685Y036465D02*
X056365Y036465D01*
X056365Y036464D02*
X056685Y036464D01*
X056685Y036463D02*
X056365Y036463D01*
X056365Y036462D02*
X056685Y036462D01*
X056685Y036461D02*
X056365Y036461D01*
X056365Y036460D02*
X056685Y036460D01*
X056685Y036459D02*
X056365Y036459D01*
X056365Y036458D02*
X056685Y036458D01*
X056685Y036457D02*
X056365Y036457D01*
X056365Y036456D02*
X056685Y036456D01*
X056685Y036455D02*
X056365Y036455D01*
X056365Y036454D02*
X056685Y036454D01*
X056685Y036453D02*
X056365Y036453D01*
X056365Y036452D02*
X056685Y036452D01*
X056685Y036451D02*
X056365Y036451D01*
X056365Y036450D02*
X056685Y036450D01*
X056685Y036449D02*
X056365Y036449D01*
X056365Y036448D02*
X056685Y036448D01*
X056685Y036447D02*
X056365Y036447D01*
X056365Y036446D02*
X056685Y036446D01*
X056685Y036445D02*
X056365Y036445D01*
X056365Y036444D02*
X056685Y036444D01*
X056685Y036443D02*
X056365Y036443D01*
X056365Y036442D02*
X056685Y036442D01*
X056685Y036441D02*
X056365Y036441D01*
X056365Y036440D02*
X056685Y036440D01*
X056685Y036439D02*
X056365Y036439D01*
X056365Y036438D02*
X056685Y036438D01*
X056685Y036437D02*
X056365Y036437D01*
X056365Y036436D02*
X056685Y036436D01*
X056685Y036435D02*
X056365Y036435D01*
X056365Y036434D02*
X056685Y036434D01*
X056685Y036433D02*
X056365Y036433D01*
X056365Y036432D02*
X056685Y036432D01*
X056685Y036431D02*
X056365Y036431D01*
X056365Y036430D02*
X056685Y036430D01*
X056685Y036429D02*
X056365Y036429D01*
X056365Y036428D02*
X056685Y036428D01*
X056685Y036427D02*
X056365Y036427D01*
X056365Y036426D02*
X056685Y036426D01*
X056685Y036425D02*
X056365Y036425D01*
X056365Y036424D02*
X056685Y036424D01*
X056685Y036423D02*
X056365Y036423D01*
X056365Y036422D02*
X056685Y036422D01*
X056685Y036421D02*
X056365Y036421D01*
X056365Y036420D02*
X056685Y036420D01*
X056685Y036419D02*
X056365Y036419D01*
X056365Y036418D02*
X056685Y036418D01*
X056685Y036417D02*
X056365Y036417D01*
X056365Y036416D02*
X056685Y036416D01*
X056685Y036415D02*
X056365Y036415D01*
X056365Y036414D02*
X056685Y036414D01*
X056685Y036413D02*
X056365Y036413D01*
X056365Y036412D02*
X056685Y036412D01*
X056685Y036411D02*
X056365Y036411D01*
X056365Y036410D02*
X056685Y036410D01*
X056685Y036409D02*
X056365Y036409D01*
X056365Y036408D02*
X056685Y036408D01*
X056685Y036407D02*
X056365Y036407D01*
X056365Y036406D02*
X056685Y036406D01*
X056685Y036405D02*
X056365Y036405D01*
X056365Y036404D02*
X056685Y036404D01*
X056685Y036403D02*
X056365Y036403D01*
X056365Y036402D02*
X056685Y036402D01*
X056685Y036401D02*
X056365Y036401D01*
X056365Y036400D02*
X056685Y036400D01*
X056685Y036399D02*
X056365Y036399D01*
X056365Y036398D02*
X056685Y036398D01*
X056685Y036397D02*
X056365Y036397D01*
X056365Y036396D02*
X056685Y036396D01*
X056685Y036395D02*
X056365Y036395D01*
X056365Y036394D02*
X056685Y036394D01*
X056685Y036393D02*
X056365Y036393D01*
X056365Y036392D02*
X056685Y036392D01*
X056685Y036391D02*
X056365Y036391D01*
X056365Y036390D02*
X056685Y036390D01*
X056685Y036389D02*
X056365Y036389D01*
X056365Y036388D02*
X056685Y036388D01*
X056685Y036387D02*
X056365Y036387D01*
X056365Y036386D02*
X056685Y036386D01*
X056685Y036385D02*
X056365Y036385D01*
X056365Y036384D02*
X056685Y036384D01*
X056685Y036383D02*
X056365Y036383D01*
X056685Y036383D01*
X056685Y036382D02*
X056365Y036382D01*
X056365Y036381D02*
X056685Y036381D01*
X056685Y036380D02*
X056365Y036380D01*
X056365Y036379D02*
X056685Y036379D01*
X056685Y036378D02*
X056365Y036378D01*
X056365Y036377D02*
X056685Y036377D01*
X056685Y036376D02*
X056365Y036376D01*
X056365Y036375D02*
X056685Y036375D01*
X056685Y036374D02*
X056365Y036374D01*
X056365Y036373D02*
X056685Y036373D01*
X056685Y036372D02*
X056365Y036372D01*
X056365Y036371D02*
X056685Y036371D01*
X056685Y036370D02*
X056365Y036370D01*
X056365Y036369D02*
X056685Y036369D01*
X056685Y036368D02*
X056365Y036368D01*
X056365Y036367D02*
X056685Y036367D01*
X056685Y036366D02*
X056365Y036366D01*
X056365Y036365D02*
X056685Y036365D01*
X056685Y036364D02*
X056365Y036364D01*
X056365Y036363D02*
X056685Y036363D01*
X056685Y036362D02*
X056365Y036362D01*
X056365Y036361D02*
X056685Y036361D01*
X056685Y036360D02*
X056365Y036360D01*
X056365Y036359D02*
X056685Y036359D01*
X056685Y036358D02*
X056365Y036358D01*
X056365Y036357D02*
X056685Y036357D01*
X056685Y036356D02*
X056365Y036356D01*
X056365Y036355D02*
X056685Y036355D01*
X056685Y036354D02*
X056365Y036354D01*
X056365Y036353D02*
X056685Y036353D01*
X056685Y036352D02*
X056365Y036352D01*
X056365Y036351D02*
X056685Y036351D01*
X056685Y036350D02*
X056365Y036350D01*
X056365Y036349D02*
X056685Y036349D01*
X056685Y036348D02*
X056365Y036348D01*
X056365Y036347D02*
X056685Y036347D01*
X056685Y036346D02*
X056365Y036346D01*
X056365Y036345D02*
X056685Y036345D01*
X056685Y036344D02*
X056365Y036344D01*
X056365Y036343D02*
X056685Y036343D01*
X056685Y036342D02*
X056365Y036342D01*
X056365Y036341D02*
X056685Y036341D01*
X056685Y036340D02*
X056365Y036340D01*
X056365Y036339D02*
X056685Y036339D01*
X056685Y036338D02*
X056365Y036338D01*
X056365Y036337D02*
X056685Y036337D01*
X056685Y036336D02*
X056365Y036336D01*
X056365Y036335D02*
X056685Y036335D01*
X056685Y036334D02*
X056365Y036334D01*
X056365Y036333D02*
X056685Y036333D01*
X056685Y036332D02*
X056365Y036332D01*
X056365Y036331D02*
X056685Y036331D01*
X056685Y036330D02*
X056365Y036330D01*
X056365Y036329D02*
X056685Y036329D01*
X056685Y036328D02*
X056365Y036328D01*
X056365Y036327D02*
X056685Y036327D01*
X056685Y036326D02*
X056365Y036326D01*
X056365Y036325D02*
X056685Y036325D01*
X056685Y036324D02*
X056365Y036324D01*
X056365Y036323D02*
X056685Y036323D01*
X056685Y036322D02*
X056365Y036322D01*
X056365Y036321D02*
X056685Y036321D01*
X056685Y036320D02*
X056365Y036320D01*
X056365Y036319D02*
X056685Y036319D01*
X056685Y036318D02*
X056365Y036318D01*
X056365Y036317D02*
X056685Y036317D01*
X056685Y036316D02*
X056365Y036316D01*
X056365Y036315D02*
X056685Y036315D01*
X056685Y036314D02*
X056365Y036314D01*
X056365Y036313D02*
X056685Y036313D01*
X056685Y036312D02*
X056365Y036312D01*
X056365Y036311D02*
X056685Y036311D01*
X056685Y036310D02*
X056365Y036310D01*
X056365Y036309D02*
X056685Y036309D01*
X056685Y036308D02*
X056365Y036308D01*
X056365Y036307D02*
X056685Y036307D01*
X056685Y036306D02*
X056365Y036306D01*
X056365Y036305D02*
X056685Y036305D01*
X056685Y036304D02*
X056365Y036304D01*
X056365Y036303D02*
X056685Y036303D01*
X056685Y036302D02*
X056365Y036302D01*
X056365Y036301D02*
X056685Y036301D01*
X056685Y036300D02*
X056365Y036300D01*
X056365Y036299D02*
X056685Y036299D01*
X056685Y036298D02*
X056365Y036298D01*
X056365Y036297D02*
X056685Y036297D01*
X056685Y036296D02*
X056365Y036296D01*
X056365Y036295D02*
X056685Y036295D01*
X056685Y036294D02*
X056365Y036294D01*
X056365Y036293D02*
X056685Y036293D01*
X056685Y036292D02*
X056365Y036292D01*
X056365Y036291D02*
X056685Y036291D01*
X056685Y036290D02*
X056365Y036290D01*
X056365Y036289D02*
X056685Y036289D01*
X056685Y036288D02*
X056365Y036288D01*
X056365Y036287D02*
X056685Y036287D01*
X056685Y036286D02*
X056365Y036286D01*
X056365Y036285D02*
X056685Y036285D01*
X056685Y036284D02*
X056365Y036284D01*
X056365Y036283D02*
X056685Y036283D01*
X056685Y036282D02*
X056365Y036282D01*
X056365Y036281D02*
X056685Y036281D01*
X056685Y036280D02*
X056365Y036280D01*
X056365Y036279D02*
X056685Y036279D01*
X056685Y036278D02*
X056365Y036278D01*
X056365Y036277D02*
X056685Y036277D01*
X056685Y036276D02*
X056365Y036276D01*
X056365Y036275D02*
X056685Y036275D01*
X056685Y036274D02*
X056365Y036274D01*
X056365Y036273D02*
X056685Y036273D01*
X056685Y036272D02*
X056365Y036272D01*
X056365Y036271D02*
X056685Y036271D01*
X056685Y036270D02*
X056365Y036270D01*
X056365Y036269D02*
X056685Y036269D01*
X056685Y036268D02*
X056365Y036268D01*
X056365Y036267D02*
X056685Y036267D01*
X056685Y036266D02*
X056365Y036266D01*
X056365Y036265D02*
X056685Y036265D01*
X056685Y036264D02*
X056365Y036264D01*
X056365Y036263D02*
X056685Y036263D01*
X056685Y036262D02*
X056365Y036262D01*
X056365Y036261D02*
X056685Y036261D01*
X056685Y036260D02*
X056365Y036260D01*
X056365Y036259D02*
X056685Y036259D01*
X056685Y036258D02*
X056365Y036258D01*
X056365Y036257D02*
X056685Y036257D01*
X056685Y036256D02*
X056365Y036256D01*
X056365Y036255D02*
X056685Y036255D01*
X056685Y036254D02*
X056365Y036254D01*
X056365Y036253D02*
X056685Y036253D01*
X056685Y036252D02*
X056365Y036252D01*
X056365Y036251D02*
X056685Y036251D01*
X056685Y036250D02*
X056365Y036250D01*
X056365Y036249D02*
X056685Y036249D01*
X056685Y036248D02*
X056365Y036248D01*
X056365Y036247D02*
X056685Y036247D01*
X056685Y036246D02*
X056365Y036246D01*
X056365Y036245D02*
X056685Y036245D01*
X056685Y036244D02*
X056365Y036244D01*
X056365Y036243D02*
X056685Y036243D01*
X056685Y036242D02*
X056365Y036242D01*
X056365Y036241D02*
X056685Y036241D01*
X056685Y036240D02*
X056365Y036240D01*
X056365Y036239D02*
X056685Y036239D01*
X056685Y036238D02*
X056365Y036238D01*
X056365Y036237D02*
X056685Y036237D01*
X056685Y036236D02*
X056365Y036236D01*
X056365Y036235D02*
X056685Y036235D01*
X056685Y036234D02*
X056365Y036234D01*
X056365Y036233D02*
X056685Y036233D01*
X056685Y036232D02*
X056365Y036232D01*
X056365Y036231D02*
X056685Y036231D01*
X056685Y036230D02*
X056365Y036230D01*
X056365Y036229D02*
X056685Y036229D01*
X056685Y036228D02*
X056365Y036228D01*
X056365Y036227D02*
X056685Y036227D01*
X056685Y036226D02*
X056365Y036226D01*
X056365Y036225D02*
X056685Y036225D01*
X056685Y036224D02*
X056365Y036224D01*
X056365Y036223D02*
X056685Y036223D01*
X056685Y036222D02*
X056365Y036222D01*
X056365Y036221D02*
X056685Y036221D01*
X056685Y036220D02*
X056365Y036220D01*
X056365Y036219D02*
X056685Y036219D01*
X056685Y036218D02*
X056365Y036218D01*
X056365Y036217D02*
X056685Y036217D01*
X056685Y036216D02*
X056365Y036216D01*
X056365Y036215D02*
X056685Y036215D01*
X056685Y036214D02*
X056365Y036214D01*
X056365Y036213D02*
X056685Y036213D01*
X056685Y036212D02*
X056365Y036212D01*
X056365Y036211D02*
X056685Y036211D01*
X056685Y036210D02*
X056365Y036210D01*
X056365Y036209D02*
X056685Y036209D01*
X056685Y036208D02*
X056365Y036208D01*
X056365Y036207D02*
X056685Y036207D01*
X056685Y036206D02*
X056365Y036206D01*
X056365Y036205D02*
X056685Y036205D01*
X056685Y036204D02*
X056365Y036204D01*
X056365Y036203D02*
X056685Y036203D01*
X056685Y036202D02*
X056365Y036202D01*
X056365Y036201D02*
X056685Y036201D01*
X056685Y036200D02*
X056365Y036200D01*
X056365Y036199D02*
X056685Y036199D01*
X056685Y036198D02*
X056365Y036198D01*
X056365Y036197D02*
X056685Y036197D01*
X056685Y036196D02*
X056365Y036196D01*
X056365Y036195D02*
X056685Y036195D01*
X056685Y036194D02*
X056365Y036194D01*
X056365Y036193D02*
X056685Y036193D01*
X056685Y036192D02*
X056365Y036192D01*
X056365Y036191D02*
X056685Y036191D01*
X056685Y036190D02*
X056365Y036190D01*
X056365Y036189D02*
X056685Y036189D01*
X056685Y036188D02*
X056365Y036188D01*
X056365Y036187D02*
X056685Y036187D01*
X056685Y036186D02*
X056365Y036186D01*
X056365Y036185D02*
X056685Y036185D01*
X056685Y036184D02*
X056365Y036184D01*
X056365Y036183D02*
X056685Y036183D01*
X056685Y036182D02*
X056365Y036182D01*
X056365Y036181D02*
X056685Y036181D01*
X056685Y036180D02*
X056365Y036180D01*
X056365Y036179D02*
X056685Y036179D01*
X056685Y036178D02*
X056365Y036178D01*
X056365Y036177D02*
X056685Y036177D01*
X056685Y036176D02*
X056365Y036176D01*
X056365Y036175D02*
X056685Y036175D01*
X056685Y036174D02*
X056365Y036174D01*
X056365Y036173D02*
X056685Y036173D01*
X056685Y036172D02*
X056365Y036172D01*
X056365Y036171D02*
X056685Y036171D01*
X056685Y036170D02*
X056365Y036170D01*
X056365Y036169D02*
X056685Y036169D01*
X056685Y036168D02*
X056365Y036168D01*
X056365Y036167D02*
X056685Y036167D01*
X056685Y036166D02*
X056365Y036166D01*
X056365Y036165D02*
X056685Y036165D01*
X056685Y036164D02*
X056365Y036164D01*
X056365Y036163D02*
X056685Y036163D01*
X056685Y036162D02*
X056365Y036162D01*
X056365Y036161D02*
X056685Y036161D01*
X056685Y036160D02*
X056365Y036160D01*
X056365Y036159D02*
X056685Y036159D01*
X056685Y036158D02*
X056365Y036158D01*
X056365Y036157D02*
X056685Y036157D01*
X056685Y036156D02*
X056365Y036156D01*
X056365Y036155D02*
X056685Y036155D01*
X056685Y036154D02*
X056365Y036154D01*
X056365Y036153D02*
X056685Y036153D01*
X056685Y036152D02*
X056365Y036152D01*
X056365Y036151D02*
X056685Y036151D01*
X056685Y036150D02*
X056365Y036150D01*
X056365Y036149D02*
X056685Y036149D01*
X056685Y036148D02*
X056365Y036148D01*
X056365Y036147D02*
X056685Y036147D01*
X056685Y036146D02*
X056365Y036146D01*
X056365Y036145D02*
X056685Y036145D01*
X056685Y036144D02*
X056365Y036144D01*
X056365Y036143D02*
X056685Y036143D01*
X056685Y036142D02*
X056365Y036142D01*
X056365Y036141D02*
X056685Y036141D01*
X056685Y036140D02*
X056365Y036140D01*
X056365Y036139D02*
X056685Y036139D01*
X056685Y036138D02*
X056365Y036138D01*
X056365Y036137D02*
X056685Y036137D01*
X056685Y036136D02*
X056365Y036136D01*
X056365Y036135D02*
X056685Y036135D01*
X056685Y036134D02*
X056365Y036134D01*
X056365Y036133D02*
X056685Y036133D01*
X056685Y036132D02*
X056365Y036132D01*
X056365Y036131D02*
X056685Y036131D01*
X056685Y036130D02*
X056365Y036130D01*
X056365Y036129D02*
X056685Y036129D01*
X056685Y036128D02*
X056365Y036128D01*
X056365Y036127D02*
X056685Y036127D01*
X056685Y036126D02*
X056365Y036126D01*
X056365Y036125D02*
X056685Y036125D01*
X056685Y036124D02*
X056365Y036124D01*
X056365Y036123D02*
X056685Y036123D01*
X056685Y036122D02*
X056365Y036122D01*
X056365Y036121D02*
X056685Y036121D01*
X056685Y036120D02*
X056365Y036120D01*
X056365Y036119D02*
X056685Y036119D01*
X056685Y036118D02*
X056365Y036118D01*
X056365Y036117D02*
X056685Y036117D01*
X056685Y036116D02*
X056365Y036116D01*
X056365Y036115D02*
X056685Y036115D01*
X056685Y036114D02*
X056365Y036114D01*
X056365Y036113D02*
X056685Y036113D01*
X056685Y036112D02*
X056365Y036112D01*
X056365Y036111D02*
X056685Y036111D01*
X056685Y036110D02*
X056365Y036110D01*
X056365Y036109D02*
X056685Y036109D01*
X056685Y036108D02*
X056365Y036108D01*
X056365Y036107D02*
X056685Y036107D01*
X056685Y036106D02*
X056365Y036106D01*
X056365Y036105D02*
X056685Y036105D01*
X056685Y036104D02*
X056365Y036104D01*
X056365Y036103D02*
X056685Y036103D01*
X056685Y036102D02*
X056365Y036102D01*
X056365Y036101D02*
X056685Y036101D01*
X056685Y036100D02*
X056365Y036100D01*
X056365Y036099D02*
X056685Y036099D01*
X056685Y036098D02*
X056365Y036098D01*
X056365Y036097D02*
X056685Y036097D01*
X056685Y036096D02*
X056365Y036096D01*
X056365Y036095D02*
X056685Y036095D01*
X056685Y036094D02*
X056365Y036094D01*
X056365Y036093D02*
X056685Y036093D01*
X056685Y036092D02*
X056365Y036092D01*
X056365Y036091D02*
X056685Y036091D01*
X056685Y036090D02*
X056365Y036090D01*
X056365Y036089D02*
X056685Y036089D01*
X056685Y036088D02*
X056365Y036088D01*
X056365Y036087D02*
X056685Y036087D01*
X056685Y036086D02*
X056365Y036086D01*
X056365Y036085D02*
X056685Y036085D01*
X056685Y036084D02*
X056365Y036084D01*
X056365Y036083D02*
X056685Y036083D01*
X056685Y036082D02*
X056365Y036082D01*
X056365Y036081D02*
X056685Y036081D01*
X056685Y036080D02*
X056365Y036080D01*
X056365Y036079D02*
X056685Y036079D01*
X056685Y036078D02*
X056365Y036078D01*
X056365Y036077D02*
X056685Y036077D01*
X056685Y036076D02*
X056365Y036076D01*
X056365Y036075D02*
X056685Y036075D01*
X056685Y036074D02*
X056365Y036074D01*
X056365Y036073D02*
X056685Y036073D01*
X056685Y036072D02*
X056365Y036072D01*
X056365Y036071D02*
X056685Y036071D01*
X056685Y036070D02*
X056365Y036070D01*
X056365Y036069D02*
X056685Y036069D01*
X056685Y036068D02*
X056365Y036068D01*
X056365Y036067D02*
X056685Y036067D01*
X056685Y036066D02*
X056365Y036066D01*
X056365Y036065D02*
X056685Y036065D01*
X056685Y036064D02*
X056365Y036064D01*
X056365Y036063D02*
X056685Y036063D01*
X056685Y036062D02*
X056365Y036062D01*
X056365Y036061D02*
X056685Y036061D01*
X056685Y036060D02*
X056365Y036060D01*
X056365Y036059D02*
X056685Y036059D01*
X056685Y036058D02*
X056365Y036058D01*
X056365Y036057D02*
X056685Y036057D01*
X056685Y036056D02*
X056365Y036056D01*
X056365Y036055D02*
X056685Y036055D01*
X056685Y036054D02*
X056365Y036054D01*
X056365Y036053D02*
X056685Y036053D01*
X056685Y036052D02*
X056365Y036052D01*
X056365Y036051D02*
X056685Y036051D01*
X056685Y036050D02*
X056365Y036050D01*
X056365Y036049D02*
X056685Y036049D01*
X056685Y036048D02*
X056365Y036048D01*
X056365Y036047D02*
X056685Y036047D01*
X056685Y036046D02*
X056365Y036046D01*
X056365Y036045D02*
X056685Y036045D01*
X056685Y036044D02*
X056365Y036044D01*
X056365Y036043D02*
X056685Y036043D01*
X056685Y036042D02*
X056365Y036042D01*
X056365Y036041D02*
X056685Y036041D01*
X056685Y036040D02*
X056365Y036040D01*
X056365Y036039D02*
X056685Y036039D01*
X056685Y036038D02*
X056365Y036038D01*
X056365Y036037D02*
X056685Y036037D01*
X056685Y036036D02*
X056365Y036036D01*
X056365Y036035D02*
X056685Y036035D01*
X056685Y036034D02*
X056365Y036034D01*
X056365Y036033D02*
X056685Y036033D01*
X056685Y036032D02*
X056365Y036032D01*
X056365Y036031D02*
X056685Y036031D01*
X056685Y036030D02*
X056365Y036030D01*
X056365Y036029D02*
X056685Y036029D01*
X056685Y036028D02*
X056365Y036028D01*
X056365Y036027D02*
X056685Y036027D01*
X056685Y036026D02*
X056365Y036026D01*
X056365Y036025D02*
X056685Y036025D01*
X056685Y036024D02*
X056365Y036024D01*
X056365Y036023D02*
X056685Y036023D01*
X056685Y036022D02*
X056365Y036022D01*
X056365Y036021D02*
X056685Y036021D01*
X056685Y036020D02*
X056365Y036020D01*
X056365Y036019D02*
X056685Y036019D01*
X056685Y036018D02*
X056365Y036018D01*
X056365Y036017D02*
X056685Y036017D01*
X056685Y036016D02*
X056365Y036016D01*
X056365Y036015D02*
X056685Y036015D01*
X056685Y036014D02*
X056365Y036014D01*
X056365Y036013D02*
X056685Y036013D01*
X056685Y036012D02*
X056365Y036012D01*
X056365Y036011D02*
X056685Y036011D01*
X056685Y036010D02*
X056365Y036010D01*
X056365Y036009D02*
X056685Y036009D01*
X056685Y036008D02*
X056365Y036008D01*
X056365Y036007D02*
X056685Y036007D01*
X056685Y036006D02*
X056365Y036006D01*
X056365Y036005D02*
X056685Y036005D01*
X056685Y036004D02*
X056365Y036004D01*
X056365Y036003D02*
X056685Y036003D01*
X056685Y036002D02*
X056365Y036002D01*
X056365Y036001D02*
X056685Y036001D01*
X056685Y036000D02*
X056365Y036000D01*
X056365Y035999D02*
X056685Y035999D01*
X056685Y035998D02*
X056365Y035998D01*
X056365Y035997D02*
X056685Y035997D01*
X056685Y035996D02*
X056365Y035996D01*
X056365Y035995D02*
X056685Y035995D01*
X056685Y035994D02*
X056365Y035994D01*
X056365Y035993D02*
X056685Y035993D01*
X056685Y035992D02*
X056365Y035992D01*
X056365Y035991D02*
X056685Y035991D01*
X056685Y035990D02*
X056365Y035990D01*
X056365Y035989D02*
X056685Y035989D01*
X056685Y035988D02*
X056365Y035988D01*
X056365Y035987D02*
X056685Y035987D01*
X056685Y035986D02*
X056365Y035986D01*
X056365Y035985D02*
X056685Y035985D01*
X056685Y035984D02*
X056365Y035984D01*
X056365Y035983D02*
X056685Y035983D01*
X056685Y035982D02*
X056365Y035982D01*
X056365Y035981D02*
X056685Y035981D01*
X056685Y035980D02*
X056365Y035980D01*
X056365Y035979D02*
X056685Y035979D01*
X056685Y035978D02*
X056365Y035978D01*
X056365Y035977D02*
X056685Y035977D01*
X056685Y035976D02*
X056365Y035976D01*
X056365Y035975D02*
X056685Y035975D01*
X056685Y035974D02*
X056365Y035974D01*
X056365Y035973D02*
X056685Y035973D01*
X056685Y035972D02*
X056365Y035972D01*
X056365Y035971D02*
X056685Y035971D01*
X056685Y035970D02*
X056365Y035970D01*
X056365Y035969D02*
X056685Y035969D01*
X056685Y035968D02*
X056365Y035968D01*
X056365Y035967D02*
X056685Y035967D01*
X056685Y035966D02*
X056365Y035966D01*
X056365Y035965D02*
X056685Y035965D01*
X056685Y035964D02*
X056365Y035964D01*
X056365Y035963D02*
X056685Y035963D01*
X056685Y035962D02*
X056365Y035962D01*
X056365Y035961D02*
X056685Y035961D01*
X056685Y035960D02*
X056365Y035960D01*
X056365Y035959D02*
X056685Y035959D01*
X056685Y035958D02*
X056365Y035958D01*
X056365Y035957D02*
X056685Y035957D01*
X056685Y035956D02*
X056365Y035956D01*
X056366Y035955D02*
X056684Y035955D01*
X056684Y035954D02*
X056366Y035954D01*
X056366Y035953D02*
X056684Y035953D01*
X056684Y035952D02*
X056366Y035952D01*
X056366Y035951D02*
X056684Y035951D01*
X056684Y035950D02*
X056366Y035950D01*
X056366Y035949D02*
X056684Y035949D01*
X056684Y035948D02*
X056366Y035948D01*
X056366Y035947D02*
X056684Y035947D01*
X056683Y035946D02*
X056367Y035946D01*
X056367Y035945D02*
X056683Y035945D01*
X056683Y035944D02*
X056367Y035944D01*
X056367Y035943D02*
X056683Y035943D01*
X056683Y035942D02*
X056367Y035942D01*
X056367Y035941D02*
X056683Y035941D01*
X056683Y035940D02*
X056367Y035940D01*
X056367Y035939D02*
X056683Y035939D01*
X056683Y035938D02*
X056367Y035938D01*
X056368Y035937D02*
X056682Y035937D01*
X056682Y035936D02*
X056368Y035936D01*
X056368Y035935D02*
X056682Y035935D01*
X056682Y035934D02*
X056368Y035934D01*
X056368Y035933D02*
X056682Y035933D01*
X056682Y035932D02*
X056368Y035932D01*
X056368Y035931D02*
X056682Y035931D01*
X056682Y035930D02*
X056368Y035930D01*
X056369Y035929D02*
X056682Y035929D01*
X056681Y035928D02*
X056369Y035928D01*
X056369Y035927D02*
X056681Y035927D01*
X056681Y035926D02*
X056369Y035926D01*
X056369Y035925D02*
X056681Y035925D01*
X056681Y035924D02*
X056369Y035924D01*
X056370Y035923D02*
X056680Y035923D01*
X056680Y035922D02*
X056370Y035922D01*
X056370Y035921D02*
X056680Y035921D01*
X056679Y035920D02*
X056371Y035920D01*
X056371Y035919D02*
X056679Y035919D01*
X056679Y035918D02*
X056371Y035918D01*
X056372Y035917D02*
X056678Y035917D01*
X056678Y035916D02*
X056372Y035916D01*
X056372Y035915D02*
X056678Y035915D01*
X056677Y035914D02*
X056373Y035914D01*
X056373Y035913D02*
X056677Y035913D01*
X056677Y035912D02*
X056373Y035912D01*
X056374Y035911D02*
X056676Y035911D01*
X056676Y035910D02*
X056374Y035910D01*
X056374Y035909D02*
X056676Y035909D01*
X056675Y035908D02*
X056375Y035908D01*
X056375Y035907D02*
X056675Y035907D01*
X056675Y035906D02*
X056375Y035906D01*
X056376Y035905D02*
X056674Y035905D01*
X056674Y035904D02*
X056376Y035904D01*
X056377Y035903D02*
X056673Y035903D01*
X056673Y035902D02*
X056377Y035902D01*
X056377Y035901D02*
X056673Y035901D01*
X056672Y035900D02*
X056378Y035900D01*
X056378Y035899D02*
X056672Y035899D01*
X056672Y035898D02*
X056378Y035898D01*
X056379Y035897D02*
X056671Y035897D01*
X056671Y035896D02*
X056379Y035896D01*
X056379Y035895D02*
X056671Y035895D01*
X056670Y035894D02*
X056380Y035894D01*
X056380Y035893D02*
X056670Y035893D01*
X056670Y035892D02*
X056380Y035892D01*
X056381Y035891D02*
X056669Y035891D01*
X056669Y035890D02*
X056381Y035890D01*
X056382Y035889D02*
X056668Y035889D01*
X056668Y035888D02*
X056382Y035888D01*
X056383Y035887D02*
X056667Y035887D01*
X056666Y035886D02*
X056384Y035886D01*
X056384Y035885D02*
X056666Y035885D01*
X056665Y035884D02*
X056385Y035884D01*
X056386Y035883D02*
X056664Y035883D01*
X056664Y035882D02*
X056386Y035882D01*
X056387Y035881D02*
X056663Y035881D01*
X056663Y035880D02*
X056387Y035880D01*
X056388Y035879D02*
X056662Y035879D01*
X056661Y035878D02*
X056389Y035878D01*
X056389Y035877D02*
X056661Y035877D01*
X056660Y035876D02*
X056390Y035876D01*
X056391Y035875D02*
X056659Y035875D01*
X056659Y035874D02*
X056391Y035874D01*
X056392Y035873D02*
X056658Y035873D01*
X056657Y035872D02*
X056393Y035872D01*
X056393Y035871D02*
X056657Y035871D01*
X056656Y035870D02*
X056394Y035870D01*
X056394Y035869D02*
X056656Y035869D01*
X056655Y035868D02*
X056395Y035868D01*
X056396Y035867D02*
X056654Y035867D01*
X056654Y035866D02*
X056396Y035866D01*
X056397Y035865D02*
X056653Y035865D01*
X056652Y035864D02*
X056398Y035864D01*
X056398Y035863D02*
X056652Y035863D01*
X056651Y035862D02*
X056399Y035862D01*
X056399Y035861D02*
X056651Y035861D01*
X056650Y035860D02*
X056400Y035860D01*
X056401Y035859D02*
X056649Y035859D01*
X056648Y035858D02*
X056402Y035858D01*
X056403Y035857D02*
X056647Y035857D01*
X056646Y035856D02*
X056404Y035856D01*
X056405Y035855D02*
X056645Y035855D01*
X056644Y035854D02*
X056406Y035854D01*
X056407Y035853D02*
X056643Y035853D01*
X056642Y035852D02*
X056408Y035852D01*
X056409Y035851D02*
X056641Y035851D01*
X056640Y035850D02*
X056410Y035850D01*
X056411Y035849D02*
X056639Y035849D01*
X056638Y035848D02*
X056412Y035848D01*
X056413Y035847D02*
X056637Y035847D01*
X056636Y035846D02*
X056414Y035846D01*
X056415Y035845D02*
X056635Y035845D01*
X056634Y035844D02*
X056416Y035844D01*
X056417Y035843D02*
X056633Y035843D01*
X056632Y035842D02*
X056418Y035842D01*
X056419Y035841D02*
X056631Y035841D01*
X056630Y035840D02*
X056420Y035840D01*
X056421Y035839D02*
X056629Y035839D01*
X056628Y035838D02*
X056422Y035838D01*
X056423Y035837D02*
X056627Y035837D01*
X056626Y035836D02*
X056424Y035836D01*
X056425Y035835D02*
X056625Y035835D01*
X056623Y035834D02*
X056427Y035834D01*
X056428Y035833D02*
X056622Y035833D01*
X056620Y035832D02*
X056430Y035832D01*
X056431Y035831D02*
X056619Y035831D01*
X056617Y035830D02*
X056433Y035830D01*
X056435Y035829D02*
X056615Y035829D01*
X056614Y035828D02*
X056436Y035828D01*
X056438Y035827D02*
X056612Y035827D01*
X056611Y035826D02*
X056439Y035826D01*
X056441Y035825D02*
X056609Y035825D01*
X056607Y035824D02*
X056443Y035824D01*
X056444Y035823D02*
X056606Y035823D01*
X056604Y035822D02*
X056446Y035822D01*
X056447Y035821D02*
X056603Y035821D01*
X056601Y035820D02*
X056449Y035820D01*
X056450Y035819D02*
X056600Y035819D01*
X056598Y035818D02*
X056452Y035818D01*
X056454Y035817D02*
X056596Y035817D01*
X056595Y035816D02*
X056455Y035816D01*
X056458Y035815D02*
X056592Y035815D01*
X056589Y035814D02*
X056461Y035814D01*
X056464Y035813D02*
X056586Y035813D01*
X056584Y035812D02*
X056466Y035812D01*
X056469Y035811D02*
X056581Y035811D01*
X056578Y035810D02*
X056472Y035810D01*
X056475Y035809D02*
X056575Y035809D01*
X056572Y035808D02*
X056478Y035808D01*
X056481Y035807D02*
X056569Y035807D01*
X056566Y035806D02*
X056484Y035806D01*
X056486Y035805D02*
X056564Y035805D01*
X056561Y035804D02*
X056489Y035804D01*
X056498Y035803D02*
X056552Y035803D01*
X056543Y035802D02*
X056507Y035802D01*
X056515Y035801D02*
X056535Y035801D01*
X056526Y035800D02*
X056524Y035800D01*
X056389Y036822D02*
X056661Y036822D01*
X056661Y036823D02*
X056389Y036823D01*
X056390Y036824D02*
X056660Y036824D01*
X056659Y036825D02*
X056391Y036825D01*
X056391Y036826D02*
X056659Y036826D01*
X056658Y036827D02*
X056392Y036827D01*
X056393Y036828D02*
X056657Y036828D01*
X056657Y036829D02*
X056393Y036829D01*
X056394Y036830D02*
X056656Y036830D01*
X056656Y036831D02*
X056394Y036831D01*
X056395Y036832D02*
X056655Y036832D01*
X056654Y036833D02*
X056396Y036833D01*
X056396Y036834D02*
X056654Y036834D01*
X056653Y036835D02*
X056397Y036835D01*
X056398Y036836D02*
X056652Y036836D01*
X056652Y036837D02*
X056398Y036837D01*
X056399Y036838D02*
X056651Y036838D01*
X056651Y036839D02*
X056399Y036839D01*
X056400Y036840D02*
X056650Y036840D01*
X056649Y036841D02*
X056401Y036841D01*
X056402Y036842D02*
X056648Y036842D01*
X056647Y036843D02*
X056403Y036843D01*
X056404Y036844D02*
X056646Y036844D01*
X056645Y036845D02*
X056405Y036845D01*
X056406Y036846D02*
X056644Y036846D01*
X056643Y036847D02*
X056407Y036847D01*
X056408Y036848D02*
X056642Y036848D01*
X056641Y036849D02*
X056409Y036849D01*
X056410Y036850D02*
X056640Y036850D01*
X056639Y036851D02*
X056411Y036851D01*
X056412Y036852D02*
X056638Y036852D01*
X056637Y036853D02*
X056413Y036853D01*
X056414Y036854D02*
X056636Y036854D01*
X056635Y036855D02*
X056415Y036855D01*
X056416Y036856D02*
X056634Y036856D01*
X056633Y036857D02*
X056417Y036857D01*
X056418Y036858D02*
X056632Y036858D01*
X056631Y036859D02*
X056419Y036859D01*
X056420Y036860D02*
X056630Y036860D01*
X056629Y036861D02*
X056421Y036861D01*
X056422Y036862D02*
X056628Y036862D01*
X056627Y036863D02*
X056423Y036863D01*
X056424Y036864D02*
X056626Y036864D01*
X056625Y036865D02*
X056425Y036865D01*
X056427Y036866D02*
X056623Y036866D01*
X056622Y036867D02*
X056428Y036867D01*
X056430Y036868D02*
X056620Y036868D01*
X056619Y036869D02*
X056431Y036869D01*
X056433Y036870D02*
X056617Y036870D01*
X056615Y036871D02*
X056435Y036871D01*
X056436Y036872D02*
X056614Y036872D01*
X056612Y036873D02*
X056438Y036873D01*
X056439Y036874D02*
X056611Y036874D01*
X056609Y036875D02*
X056441Y036875D01*
X056443Y036876D02*
X056607Y036876D01*
X056606Y036877D02*
X056444Y036877D01*
X056446Y036878D02*
X056604Y036878D01*
X056603Y036879D02*
X056447Y036879D01*
X056449Y036880D02*
X056601Y036880D01*
X056599Y036881D02*
X056451Y036881D01*
X056452Y036882D02*
X056598Y036882D01*
X056596Y036883D02*
X056454Y036883D01*
X056455Y036884D02*
X056595Y036884D01*
X056592Y036885D02*
X056458Y036885D01*
X056461Y036886D02*
X056589Y036886D01*
X056586Y036887D02*
X056464Y036887D01*
X056467Y036888D02*
X056583Y036888D01*
X056581Y036889D02*
X056469Y036889D01*
X056472Y036890D02*
X056578Y036890D01*
X056575Y036891D02*
X056475Y036891D01*
X056478Y036892D02*
X056572Y036892D01*
X056569Y036893D02*
X056481Y036893D01*
X056484Y036894D02*
X056566Y036894D01*
X056563Y036895D02*
X056487Y036895D01*
X056489Y036896D02*
X056561Y036896D01*
X056552Y036897D02*
X056498Y036897D01*
X056507Y036898D02*
X056543Y036898D01*
X056534Y036899D02*
X056516Y036899D01*
X056525Y036900D02*
X056525Y036900D01*
X057985Y035225D02*
X058965Y035225D01*
X058964Y035226D02*
X057986Y035226D01*
X057988Y035227D02*
X058962Y035227D01*
X058961Y035228D02*
X057989Y035228D01*
X057991Y035229D02*
X058959Y035229D01*
X058958Y035230D02*
X057992Y035230D01*
X057994Y035231D02*
X058956Y035231D01*
X058954Y035232D02*
X057996Y035232D01*
X057997Y035233D02*
X058953Y035233D01*
X058951Y035234D02*
X057999Y035234D01*
X058000Y035235D02*
X058950Y035235D01*
X058948Y035236D02*
X058002Y035236D01*
X058004Y035237D02*
X058946Y035237D01*
X058945Y035238D02*
X058005Y035238D01*
X058007Y035239D02*
X058943Y035239D01*
X058942Y035240D02*
X058008Y035240D01*
X058010Y035241D02*
X058940Y035241D01*
X058938Y035242D02*
X058012Y035242D01*
X058013Y035243D02*
X058937Y035243D01*
X058935Y035244D02*
X058015Y035244D01*
X058017Y035245D02*
X058933Y035245D01*
X058930Y035246D02*
X058020Y035246D01*
X058023Y035247D02*
X058927Y035247D01*
X058925Y035248D02*
X058025Y035248D01*
X058028Y035249D02*
X058922Y035249D01*
X058919Y035250D02*
X058031Y035250D01*
X058034Y035251D02*
X058916Y035251D01*
X058913Y035252D02*
X058037Y035252D01*
X058040Y035253D02*
X058910Y035253D01*
X058907Y035254D02*
X058043Y035254D01*
X058045Y035255D02*
X058905Y035255D01*
X058902Y035256D02*
X058048Y035256D01*
X058055Y035257D02*
X058895Y035257D01*
X058886Y035258D02*
X058064Y035258D01*
X058073Y035259D02*
X058877Y035259D01*
X058868Y035260D02*
X058082Y035260D01*
X057984Y035224D02*
X058966Y035224D01*
X058967Y035223D02*
X057983Y035223D01*
X057982Y035222D02*
X058968Y035222D01*
X058969Y035221D02*
X057981Y035221D01*
X057980Y035220D02*
X058970Y035220D01*
X058971Y035219D02*
X057979Y035219D01*
X057978Y035218D02*
X058972Y035218D01*
X058973Y035217D02*
X057977Y035217D01*
X057976Y035216D02*
X058974Y035216D01*
X058975Y035215D02*
X057975Y035215D01*
X057974Y035214D02*
X058976Y035214D01*
X058977Y035213D02*
X057973Y035213D01*
X057972Y035212D02*
X058978Y035212D01*
X058979Y035211D02*
X057971Y035211D01*
X057970Y035210D02*
X058980Y035210D01*
X058981Y035209D02*
X057969Y035209D01*
X057968Y035208D02*
X058982Y035208D01*
X058983Y035207D02*
X057967Y035207D01*
X057966Y035206D02*
X058984Y035206D01*
X058985Y035205D02*
X057965Y035205D01*
X057964Y035204D02*
X058986Y035204D01*
X058987Y035203D02*
X057963Y035203D01*
X057962Y035202D02*
X058988Y035202D01*
X058989Y035201D02*
X057961Y035201D01*
X057960Y035200D02*
X058990Y035200D01*
X058991Y035199D02*
X057959Y035199D01*
X057959Y035198D02*
X058991Y035198D01*
X058992Y035197D02*
X057958Y035197D01*
X057957Y035196D02*
X058993Y035196D01*
X058993Y035195D02*
X057957Y035195D01*
X057956Y035194D02*
X058994Y035194D01*
X058995Y035193D02*
X057955Y035193D01*
X057955Y035192D02*
X058995Y035192D01*
X058996Y035191D02*
X057954Y035191D01*
X057954Y035190D02*
X058996Y035190D01*
X058997Y035189D02*
X057953Y035189D01*
X057952Y035188D02*
X058998Y035188D01*
X058998Y035187D02*
X057952Y035187D01*
X057951Y035186D02*
X058999Y035186D01*
X059000Y035185D02*
X057950Y035185D01*
X057950Y035184D02*
X059000Y035184D01*
X059001Y035183D02*
X057949Y035183D01*
X057949Y035182D02*
X059001Y035182D01*
X059002Y035181D02*
X057948Y035181D01*
X057947Y035180D02*
X059003Y035180D01*
X059003Y035179D02*
X057947Y035179D01*
X057946Y035178D02*
X059004Y035178D01*
X059005Y035177D02*
X057945Y035177D01*
X057945Y035176D02*
X059005Y035176D01*
X059006Y035175D02*
X057944Y035175D01*
X057944Y035174D02*
X059006Y035174D01*
X059007Y035173D02*
X057943Y035173D01*
X057942Y035172D02*
X059008Y035172D01*
X059008Y035171D02*
X057942Y035171D01*
X057941Y035170D02*
X059009Y035170D01*
X059009Y035169D02*
X057941Y035169D01*
X057940Y035168D02*
X059010Y035168D01*
X059010Y035167D02*
X057940Y035167D01*
X057940Y035166D02*
X059010Y035166D01*
X059011Y035165D02*
X057939Y035165D01*
X057939Y035164D02*
X059011Y035164D01*
X059012Y035163D02*
X057938Y035163D01*
X057938Y035162D02*
X059012Y035162D01*
X059012Y035161D02*
X057938Y035161D01*
X057937Y035160D02*
X059013Y035160D01*
X059013Y035159D02*
X057937Y035159D01*
X057937Y035158D02*
X059013Y035158D01*
X059014Y035157D02*
X057936Y035157D01*
X057936Y035156D02*
X059014Y035156D01*
X059014Y035155D02*
X057936Y035155D01*
X057935Y035154D02*
X059015Y035154D01*
X059015Y035153D02*
X057935Y035153D01*
X057935Y035152D02*
X059015Y035152D01*
X059016Y035151D02*
X057934Y035151D01*
X057934Y035150D02*
X059016Y035150D01*
X059016Y035149D02*
X057934Y035149D01*
X057933Y035148D02*
X059017Y035148D01*
X059017Y035147D02*
X057933Y035147D01*
X057933Y035146D02*
X059017Y035146D01*
X059018Y035145D02*
X057932Y035145D01*
X057932Y035144D02*
X059018Y035144D01*
X059018Y035143D02*
X057932Y035143D01*
X057931Y035142D02*
X059019Y035142D01*
X059019Y035141D02*
X057931Y035141D01*
X057930Y035140D02*
X059020Y035140D01*
X059020Y035139D02*
X057930Y035139D01*
X057930Y035138D02*
X059020Y035138D01*
X059021Y035137D02*
X057929Y035137D01*
X057929Y035136D02*
X059021Y035136D01*
X059021Y035135D02*
X057929Y035135D01*
X057929Y035134D02*
X059021Y035134D01*
X059021Y035133D02*
X057929Y035133D01*
X057929Y035132D02*
X059021Y035132D01*
X059022Y035131D02*
X057928Y035131D01*
X057928Y035130D02*
X059022Y035130D01*
X059022Y035129D02*
X057928Y035129D01*
X057928Y035128D02*
X059022Y035128D01*
X059022Y035127D02*
X057928Y035127D01*
X057928Y035126D02*
X059022Y035126D01*
X059022Y035125D02*
X057928Y035125D01*
X057928Y035124D02*
X059022Y035124D01*
X059022Y035123D02*
X057928Y035123D01*
X057927Y035122D02*
X059023Y035122D01*
X059023Y035121D02*
X057927Y035121D01*
X057927Y035120D02*
X059023Y035120D01*
X059023Y035119D02*
X057927Y035119D01*
X057927Y035118D02*
X059023Y035118D01*
X059023Y035117D02*
X057927Y035117D01*
X057927Y035116D02*
X059023Y035116D01*
X059023Y035115D02*
X057927Y035115D01*
X057927Y035114D02*
X059023Y035114D01*
X059024Y035113D02*
X057926Y035113D01*
X057926Y035112D02*
X059024Y035112D01*
X059024Y035111D02*
X057926Y035111D01*
X057926Y035110D02*
X059024Y035110D01*
X059024Y035109D02*
X057926Y035109D01*
X057926Y035108D02*
X059024Y035108D01*
X059024Y035107D02*
X057926Y035107D01*
X057926Y035106D02*
X059024Y035106D01*
X059024Y035105D02*
X057926Y035105D01*
X057925Y035104D02*
X059025Y035104D01*
X059025Y035103D02*
X057925Y035103D01*
X057925Y035102D02*
X059025Y035102D01*
X059025Y035101D02*
X057925Y035101D01*
X057925Y035100D02*
X059025Y035100D01*
X059025Y035099D02*
X057925Y035099D01*
X057925Y035098D02*
X059025Y035098D01*
X059025Y035097D02*
X057925Y035097D01*
X057925Y035096D02*
X059025Y035096D01*
X059024Y035095D02*
X057926Y035095D01*
X057926Y035094D02*
X059024Y035094D01*
X059024Y035093D02*
X057926Y035093D01*
X057926Y035092D02*
X059024Y035092D01*
X059024Y035091D02*
X057926Y035091D01*
X057926Y035090D02*
X059024Y035090D01*
X059024Y035089D02*
X057926Y035089D01*
X057926Y035088D02*
X059024Y035088D01*
X059024Y035087D02*
X057926Y035087D01*
X057927Y035086D02*
X059023Y035086D01*
X059023Y035085D02*
X057927Y035085D01*
X057927Y035084D02*
X059023Y035084D01*
X059023Y035083D02*
X057927Y035083D01*
X057927Y035082D02*
X059023Y035082D01*
X059023Y035081D02*
X057927Y035081D01*
X057927Y035080D02*
X059023Y035080D01*
X059023Y035079D02*
X057927Y035079D01*
X057928Y035078D02*
X059022Y035078D01*
X059022Y035077D02*
X057928Y035077D01*
X057928Y035076D02*
X059022Y035076D01*
X059022Y035075D02*
X057928Y035075D01*
X057928Y035074D02*
X059022Y035074D01*
X059022Y035073D02*
X057928Y035073D01*
X057928Y035072D02*
X059022Y035072D01*
X059022Y035071D02*
X057928Y035071D01*
X057928Y035070D02*
X059022Y035070D01*
X059021Y035069D02*
X057929Y035069D01*
X057929Y035068D02*
X059021Y035068D01*
X059021Y035067D02*
X057929Y035067D01*
X057929Y035066D02*
X059021Y035066D01*
X059021Y035065D02*
X057929Y035065D01*
X057929Y035064D02*
X059021Y035064D01*
X059020Y035063D02*
X057930Y035063D01*
X057930Y035062D02*
X059020Y035062D01*
X059020Y035061D02*
X057930Y035061D01*
X057931Y035060D02*
X059019Y035060D01*
X059019Y035059D02*
X057931Y035059D01*
X057931Y035058D02*
X059019Y035058D01*
X059018Y035057D02*
X057932Y035057D01*
X057932Y035056D02*
X059018Y035056D01*
X059018Y035055D02*
X057932Y035055D01*
X057933Y035054D02*
X059017Y035054D01*
X059017Y035053D02*
X057933Y035053D01*
X057933Y035052D02*
X059017Y035052D01*
X059016Y035051D02*
X057934Y035051D01*
X057934Y035050D02*
X059016Y035050D01*
X059016Y035049D02*
X057934Y035049D01*
X057935Y035048D02*
X059015Y035048D01*
X059015Y035047D02*
X057935Y035047D01*
X057936Y035046D02*
X059014Y035046D01*
X059014Y035045D02*
X057936Y035045D01*
X057936Y035044D02*
X059014Y035044D01*
X059013Y035043D02*
X057937Y035043D01*
X057937Y035042D02*
X059013Y035042D01*
X059013Y035041D02*
X057937Y035041D01*
X057938Y035040D02*
X059012Y035040D01*
X059012Y035039D02*
X057938Y035039D01*
X057938Y035038D02*
X059012Y035038D01*
X059011Y035037D02*
X057939Y035037D01*
X057939Y035036D02*
X059011Y035036D01*
X059011Y035035D02*
X057939Y035035D01*
X057940Y035034D02*
X059010Y035034D01*
X059010Y035033D02*
X057940Y035033D01*
X057940Y035032D02*
X059010Y035032D01*
X059009Y035031D02*
X057941Y035031D01*
X057941Y035030D02*
X059009Y035030D01*
X059008Y035029D02*
X057942Y035029D01*
X057943Y035028D02*
X059007Y035028D01*
X059007Y035027D02*
X057943Y035027D01*
X057944Y035026D02*
X059006Y035026D01*
X059006Y035025D02*
X057944Y035025D01*
X057945Y035024D02*
X059005Y035024D01*
X059004Y035023D02*
X057946Y035023D01*
X057946Y035022D02*
X059004Y035022D01*
X059003Y035021D02*
X057947Y035021D01*
X057948Y035020D02*
X059002Y035020D01*
X059002Y035019D02*
X057948Y035019D01*
X057949Y035018D02*
X059001Y035018D01*
X059001Y035017D02*
X057949Y035017D01*
X057950Y035016D02*
X059000Y035016D01*
X058999Y035015D02*
X057951Y035015D01*
X057951Y035014D02*
X058999Y035014D01*
X058998Y035013D02*
X057952Y035013D01*
X057953Y035012D02*
X058997Y035012D01*
X058997Y035011D02*
X057953Y035011D01*
X057954Y035010D02*
X058996Y035010D01*
X058996Y035009D02*
X057954Y035009D01*
X057955Y035008D02*
X058995Y035008D01*
X058994Y035007D02*
X057956Y035007D01*
X057956Y035006D02*
X058994Y035006D01*
X058993Y035005D02*
X057957Y035005D01*
X057958Y035004D02*
X058992Y035004D01*
X058992Y035003D02*
X057958Y035003D01*
X057959Y035002D02*
X058991Y035002D01*
X058990Y035001D02*
X057960Y035001D01*
X057960Y035000D02*
X058990Y035000D01*
X058989Y034999D02*
X057961Y034999D01*
X057962Y034998D02*
X058988Y034998D01*
X058987Y034997D02*
X057963Y034997D01*
X057964Y034996D02*
X058986Y034996D01*
X058985Y034995D02*
X057965Y034995D01*
X057966Y034994D02*
X058984Y034994D01*
X058983Y034993D02*
X057967Y034993D01*
X057968Y034992D02*
X058982Y034992D01*
X058981Y034991D02*
X057969Y034991D01*
X057970Y034990D02*
X058980Y034990D01*
X058979Y034989D02*
X057971Y034989D01*
X057972Y034988D02*
X058978Y034988D01*
X058977Y034987D02*
X057973Y034987D01*
X057974Y034986D02*
X058976Y034986D01*
X058975Y034985D02*
X057975Y034985D01*
X057976Y034984D02*
X058974Y034984D01*
X058973Y034983D02*
X057977Y034983D01*
X057978Y034982D02*
X058972Y034982D01*
X058971Y034981D02*
X057979Y034981D01*
X057980Y034980D02*
X058970Y034980D01*
X058969Y034979D02*
X057981Y034979D01*
X057982Y034978D02*
X058968Y034978D01*
X058967Y034977D02*
X057983Y034977D01*
X057984Y034976D02*
X058966Y034976D01*
X058965Y034975D02*
X057985Y034975D01*
X057987Y034974D02*
X058963Y034974D01*
X058962Y034973D02*
X057988Y034973D01*
X057990Y034972D02*
X058960Y034972D01*
X058958Y034971D02*
X057992Y034971D01*
X057993Y034970D02*
X058957Y034970D01*
X058955Y034969D02*
X057995Y034969D01*
X057996Y034968D02*
X058954Y034968D01*
X058952Y034967D02*
X057998Y034967D01*
X058000Y034966D02*
X058950Y034966D01*
X058949Y034965D02*
X058001Y034965D01*
X058003Y034964D02*
X058947Y034964D01*
X058946Y034963D02*
X058004Y034963D01*
X058006Y034962D02*
X058944Y034962D01*
X058942Y034961D02*
X058008Y034961D01*
X058009Y034960D02*
X058941Y034960D01*
X058939Y034959D02*
X058011Y034959D01*
X058012Y034958D02*
X058938Y034958D01*
X058936Y034957D02*
X058014Y034957D01*
X058015Y034956D02*
X058935Y034956D01*
X058932Y034955D02*
X058018Y034955D01*
X058021Y034954D02*
X058929Y034954D01*
X058926Y034953D02*
X058024Y034953D01*
X058027Y034952D02*
X058923Y034952D01*
X058920Y034951D02*
X058030Y034951D01*
X058033Y034950D02*
X058917Y034950D01*
X058915Y034949D02*
X058035Y034949D01*
X058038Y034948D02*
X058912Y034948D01*
X058909Y034947D02*
X058041Y034947D01*
X058044Y034946D02*
X058906Y034946D01*
X058903Y034945D02*
X058047Y034945D01*
X058050Y034944D02*
X058900Y034944D01*
X058891Y034943D02*
X058059Y034943D01*
X058068Y034942D02*
X058882Y034942D01*
X058873Y034941D02*
X058077Y034941D01*
D14*
X056396Y030109D02*
X056396Y026841D01*
M02*
