G75*
%MOIN*%
%OFA0B0*%
%FSLAX24Y24*%
%IPPOS*%
%LPD*%
%AMOC8*
5,1,8,0,0,1.08239X$1,22.5*
%
%ADD10C,0.0050*%
D10*
X056375Y033850D02*
X056775Y033850D01*
X056875Y033850D02*
X057675Y033850D01*
X057525Y033950D01*
X057675Y033850D02*
X057525Y033750D01*
X057925Y033850D02*
X057975Y033800D01*
X058025Y033850D01*
X057975Y033900D01*
X057925Y033850D01*
X058025Y033850D01*
X057904Y033850D02*
X057906Y033866D01*
X057912Y033882D01*
X057921Y033896D01*
X057933Y033907D01*
X057947Y033915D01*
X057963Y033920D01*
X057979Y033921D01*
X057995Y033918D01*
X058010Y033911D01*
X058024Y033902D01*
X058034Y033889D01*
X058042Y033874D01*
X058046Y033858D01*
X058046Y033842D01*
X058042Y033826D01*
X058034Y033811D01*
X058024Y033798D01*
X058011Y033789D01*
X057995Y033782D01*
X057979Y033779D01*
X057963Y033780D01*
X057947Y033785D01*
X057933Y033793D01*
X057921Y033804D01*
X057912Y033818D01*
X057906Y033834D01*
X057904Y033850D01*
X057706Y033850D02*
X057708Y033882D01*
X057714Y033914D01*
X057723Y033945D01*
X057737Y033975D01*
X057754Y034003D01*
X057774Y034028D01*
X057797Y034051D01*
X057822Y034071D01*
X057850Y034088D01*
X057880Y034102D01*
X057911Y034111D01*
X057943Y034117D01*
X057975Y034119D01*
X058007Y034117D01*
X058039Y034111D01*
X058070Y034102D01*
X058100Y034088D01*
X058128Y034071D01*
X058153Y034051D01*
X058176Y034028D01*
X058196Y034003D01*
X058213Y033975D01*
X058227Y033945D01*
X058236Y033914D01*
X058242Y033882D01*
X058244Y033850D01*
X058242Y033818D01*
X058236Y033786D01*
X058227Y033755D01*
X058213Y033725D01*
X058196Y033697D01*
X058176Y033672D01*
X058153Y033649D01*
X058128Y033629D01*
X058100Y033612D01*
X058070Y033598D01*
X058039Y033589D01*
X058007Y033583D01*
X057975Y033581D01*
X057943Y033583D01*
X057911Y033589D01*
X057880Y033598D01*
X057850Y033612D01*
X057822Y033629D01*
X057797Y033649D01*
X057774Y033672D01*
X057754Y033697D01*
X057737Y033725D01*
X057723Y033755D01*
X057714Y033786D01*
X057708Y033818D01*
X057706Y033850D01*
X057904Y033850D02*
X057906Y033866D01*
X057912Y033882D01*
X057921Y033896D01*
X057933Y033907D01*
X057947Y033915D01*
X057963Y033920D01*
X057979Y033921D01*
X057995Y033918D01*
X058010Y033911D01*
X058024Y033902D01*
X058034Y033889D01*
X058042Y033874D01*
X058046Y033858D01*
X058046Y033842D01*
X058042Y033826D01*
X058034Y033811D01*
X058024Y033798D01*
X058011Y033789D01*
X057995Y033782D01*
X057979Y033779D01*
X057963Y033780D01*
X057947Y033785D01*
X057933Y033793D01*
X057921Y033804D01*
X057912Y033818D01*
X057906Y033834D01*
X057904Y033850D01*
X057706Y033850D02*
X057708Y033882D01*
X057714Y033914D01*
X057723Y033945D01*
X057737Y033975D01*
X057754Y034003D01*
X057774Y034028D01*
X057797Y034051D01*
X057822Y034071D01*
X057850Y034088D01*
X057880Y034102D01*
X057911Y034111D01*
X057943Y034117D01*
X057975Y034119D01*
X058007Y034117D01*
X058039Y034111D01*
X058070Y034102D01*
X058100Y034088D01*
X058128Y034071D01*
X058153Y034051D01*
X058176Y034028D01*
X058196Y034003D01*
X058213Y033975D01*
X058227Y033945D01*
X058236Y033914D01*
X058242Y033882D01*
X058244Y033850D01*
X058242Y033818D01*
X058236Y033786D01*
X058227Y033755D01*
X058213Y033725D01*
X058196Y033697D01*
X058176Y033672D01*
X058153Y033649D01*
X058128Y033629D01*
X058100Y033612D01*
X058070Y033598D01*
X058039Y033589D01*
X058007Y033583D01*
X057975Y033581D01*
X057943Y033583D01*
X057911Y033589D01*
X057880Y033598D01*
X057850Y033612D01*
X057822Y033629D01*
X057797Y033649D01*
X057774Y033672D01*
X057754Y033697D01*
X057737Y033725D01*
X057723Y033755D01*
X057714Y033786D01*
X057708Y033818D01*
X057706Y033850D01*
X057575Y033450D02*
X057609Y033418D01*
X057646Y033389D01*
X057685Y033364D01*
X057726Y033342D01*
X057769Y033323D01*
X057813Y033308D01*
X057859Y033296D01*
X057905Y033288D01*
X057952Y033284D01*
X057998Y033284D01*
X058045Y033288D01*
X058091Y033296D01*
X058137Y033308D01*
X058181Y033323D01*
X058224Y033342D01*
X058265Y033364D01*
X058304Y033389D01*
X058341Y033418D01*
X058375Y033450D01*
X058407Y033484D01*
X058436Y033521D01*
X058461Y033560D01*
X058483Y033601D01*
X058502Y033644D01*
X058517Y033688D01*
X058529Y033734D01*
X058537Y033780D01*
X058541Y033827D01*
X058541Y033873D01*
X058537Y033920D01*
X058529Y033966D01*
X058517Y034012D01*
X058502Y034056D01*
X058483Y034099D01*
X058461Y034140D01*
X058436Y034179D01*
X058407Y034216D01*
X058375Y034250D01*
X058341Y034282D01*
X058304Y034311D01*
X058265Y034336D01*
X058224Y034358D01*
X058181Y034377D01*
X058137Y034392D01*
X058091Y034404D01*
X058045Y034412D01*
X057998Y034416D01*
X057952Y034416D01*
X057905Y034412D01*
X057859Y034404D01*
X057813Y034392D01*
X057769Y034377D01*
X057726Y034358D01*
X057685Y034336D01*
X057646Y034311D01*
X057609Y034282D01*
X057575Y034250D01*
X057609Y034282D01*
X057646Y034311D01*
X057685Y034336D01*
X057726Y034358D01*
X057769Y034377D01*
X057813Y034392D01*
X057859Y034404D01*
X057905Y034412D01*
X057952Y034416D01*
X057998Y034416D01*
X058045Y034412D01*
X058091Y034404D01*
X058137Y034392D01*
X058181Y034377D01*
X058224Y034358D01*
X058265Y034336D01*
X058304Y034311D01*
X058341Y034282D01*
X058375Y034250D01*
X058407Y034216D01*
X058436Y034179D01*
X058461Y034140D01*
X058483Y034099D01*
X058502Y034056D01*
X058517Y034012D01*
X058529Y033966D01*
X058537Y033920D01*
X058541Y033873D01*
X058541Y033827D01*
X058537Y033780D01*
X058529Y033734D01*
X058517Y033688D01*
X058502Y033644D01*
X058483Y033601D01*
X058461Y033560D01*
X058436Y033521D01*
X058407Y033484D01*
X058375Y033450D01*
X058341Y033418D01*
X058304Y033389D01*
X058265Y033364D01*
X058224Y033342D01*
X058181Y033323D01*
X058137Y033308D01*
X058091Y033296D01*
X058045Y033288D01*
X057998Y033284D01*
X057952Y033284D01*
X057905Y033288D01*
X057859Y033296D01*
X057813Y033308D01*
X057769Y033323D01*
X057726Y033342D01*
X057685Y033364D01*
X057646Y033389D01*
X057609Y033418D01*
X057575Y033450D01*
X058575Y033850D02*
X058725Y033950D01*
X058575Y033850D02*
X058725Y033750D01*
X058575Y033850D02*
X059475Y033850D01*
X059575Y033850D02*
X059975Y033850D01*
X059483Y033850D02*
X059485Y033884D01*
X059491Y033917D01*
X059501Y033950D01*
X059514Y033981D01*
X059531Y034010D01*
X059551Y034038D01*
X059575Y034062D01*
X059601Y034084D01*
X059629Y034103D01*
X059659Y034118D01*
X059691Y034130D01*
X059724Y034138D01*
X059758Y034142D01*
X059792Y034142D01*
X059826Y034138D01*
X059859Y034130D01*
X059891Y034118D01*
X059921Y034103D01*
X059949Y034084D01*
X059975Y034062D01*
X059999Y034038D01*
X060019Y034010D01*
X060036Y033981D01*
X060049Y033950D01*
X060059Y033917D01*
X060065Y033884D01*
X060067Y033850D01*
X060065Y033816D01*
X060059Y033783D01*
X060049Y033750D01*
X060036Y033719D01*
X060019Y033690D01*
X059999Y033662D01*
X059975Y033638D01*
X059949Y033616D01*
X059921Y033597D01*
X059891Y033582D01*
X059859Y033570D01*
X059826Y033562D01*
X059792Y033558D01*
X059758Y033558D01*
X059724Y033562D01*
X059691Y033570D01*
X059659Y033582D01*
X059629Y033597D01*
X059601Y033616D01*
X059575Y033638D01*
X059551Y033662D01*
X059531Y033690D01*
X059514Y033719D01*
X059501Y033750D01*
X059491Y033783D01*
X059485Y033816D01*
X059483Y033850D01*
X059485Y033884D01*
X059491Y033917D01*
X059501Y033950D01*
X059514Y033981D01*
X059531Y034010D01*
X059551Y034038D01*
X059575Y034062D01*
X059601Y034084D01*
X059629Y034103D01*
X059659Y034118D01*
X059691Y034130D01*
X059724Y034138D01*
X059758Y034142D01*
X059792Y034142D01*
X059826Y034138D01*
X059859Y034130D01*
X059891Y034118D01*
X059921Y034103D01*
X059949Y034084D01*
X059975Y034062D01*
X059999Y034038D01*
X060019Y034010D01*
X060036Y033981D01*
X060049Y033950D01*
X060059Y033917D01*
X060065Y033884D01*
X060067Y033850D01*
X060065Y033816D01*
X060059Y033783D01*
X060049Y033750D01*
X060036Y033719D01*
X060019Y033690D01*
X059999Y033662D01*
X059975Y033638D01*
X059949Y033616D01*
X059921Y033597D01*
X059891Y033582D01*
X059859Y033570D01*
X059826Y033562D01*
X059792Y033558D01*
X059758Y033558D01*
X059724Y033562D01*
X059691Y033570D01*
X059659Y033582D01*
X059629Y033597D01*
X059601Y033616D01*
X059575Y033638D01*
X059551Y033662D01*
X059531Y033690D01*
X059514Y033719D01*
X059501Y033750D01*
X059491Y033783D01*
X059485Y033816D01*
X059483Y033850D01*
X056283Y033850D02*
X056285Y033884D01*
X056291Y033917D01*
X056301Y033950D01*
X056314Y033981D01*
X056331Y034010D01*
X056351Y034038D01*
X056375Y034062D01*
X056401Y034084D01*
X056429Y034103D01*
X056459Y034118D01*
X056491Y034130D01*
X056524Y034138D01*
X056558Y034142D01*
X056592Y034142D01*
X056626Y034138D01*
X056659Y034130D01*
X056691Y034118D01*
X056721Y034103D01*
X056749Y034084D01*
X056775Y034062D01*
X056799Y034038D01*
X056819Y034010D01*
X056836Y033981D01*
X056849Y033950D01*
X056859Y033917D01*
X056865Y033884D01*
X056867Y033850D01*
X056865Y033816D01*
X056859Y033783D01*
X056849Y033750D01*
X056836Y033719D01*
X056819Y033690D01*
X056799Y033662D01*
X056775Y033638D01*
X056749Y033616D01*
X056721Y033597D01*
X056691Y033582D01*
X056659Y033570D01*
X056626Y033562D01*
X056592Y033558D01*
X056558Y033558D01*
X056524Y033562D01*
X056491Y033570D01*
X056459Y033582D01*
X056429Y033597D01*
X056401Y033616D01*
X056375Y033638D01*
X056351Y033662D01*
X056331Y033690D01*
X056314Y033719D01*
X056301Y033750D01*
X056291Y033783D01*
X056285Y033816D01*
X056283Y033850D01*
X056285Y033884D01*
X056291Y033917D01*
X056301Y033950D01*
X056314Y033981D01*
X056331Y034010D01*
X056351Y034038D01*
X056375Y034062D01*
X056401Y034084D01*
X056429Y034103D01*
X056459Y034118D01*
X056491Y034130D01*
X056524Y034138D01*
X056558Y034142D01*
X056592Y034142D01*
X056626Y034138D01*
X056659Y034130D01*
X056691Y034118D01*
X056721Y034103D01*
X056749Y034084D01*
X056775Y034062D01*
X056799Y034038D01*
X056819Y034010D01*
X056836Y033981D01*
X056849Y033950D01*
X056859Y033917D01*
X056865Y033884D01*
X056867Y033850D01*
X056865Y033816D01*
X056859Y033783D01*
X056849Y033750D01*
X056836Y033719D01*
X056819Y033690D01*
X056799Y033662D01*
X056775Y033638D01*
X056749Y033616D01*
X056721Y033597D01*
X056691Y033582D01*
X056659Y033570D01*
X056626Y033562D01*
X056592Y033558D01*
X056558Y033558D01*
X056524Y033562D01*
X056491Y033570D01*
X056459Y033582D01*
X056429Y033597D01*
X056401Y033616D01*
X056375Y033638D01*
X056351Y033662D01*
X056331Y033690D01*
X056314Y033719D01*
X056301Y033750D01*
X056291Y033783D01*
X056285Y033816D01*
X056283Y033850D01*
X056575Y034050D02*
X056575Y033650D01*
M02*
